  0
SECTION
  2
HEADER
  9
$ACADVER
  1
AC1027
  9
$ACADMAINTVER
 70
   105
  9
$DWGCODEPAGE
  3
MAC-ROMAN
  9
$REQUIREDVERSIONS
160
                 0
  9
$INSBASE
 10
0.0
 20
0.0
 30
0.0
  9
$EXTMIN
 10
1.000000000000000E+20
 20
1.000000000000000E+20
 30
1.000000000000000E+20
  9
$EXTMAX
 10
-1.000000000000000E+20
 20
-1.000000000000000E+20
 30
-1.000000000000000E+20
  9
$LIMMIN
 10
0.0
 20
0.0
  9
$LIMMAX
 10
12.0
 20
9.0
  9
$ORTHOMODE
 70
     0
  9
$REGENMODE
 70
     1
  9
$FILLMODE
 70
     1
  9
$QTEXTMODE
 70
     0
  9
$MIRRTEXT
 70
     1
  9
$LTSCALE
 40
1.0
  9
$ATTMODE
 70
     1
  9
$TEXTSIZE
 40
0.2
  9
$TRACEWID
 40
0.05
  9
$TEXTSTYLE
  7
Standard
  9
$CLAYER
  8
0
  9
$CELTYPE
  6
ByLayer
  9
$CECOLOR
 62
   256
  9
$CELTSCALE
 40
1.0
  9
$DISPSILH
 70
     0
  9
$DIMSCALE
 40
1.0
  9
$DIMASZ
 40
0.18
  9
$DIMEXO
 40
0.0625
  9
$DIMDLI
 40
0.38
  9
$DIMRND
 40
0.0
  9
$DIMDLE
 40
0.0
  9
$DIMEXE
 40
0.18
  9
$DIMTP
 40
0.0
  9
$DIMTM
 40
0.0
  9
$DIMTXT
 40
0.18
  9
$DIMCEN
 40
0.09
  9
$DIMTSZ
 40
0.0
  9
$DIMTOL
 70
     0
  9
$DIMLIM
 70
     0
  9
$DIMTIH
 70
     1
  9
$DIMTOH
 70
     1
  9
$DIMSE1
 70
     0
  9
$DIMSE2
 70
     0
  9
$DIMTAD
 70
     0
  9
$DIMZIN
 70
     0
  9
$DIMBLK
  1

  9
$DIMASO
 70
     1
  9
$DIMSHO
 70
     1
  9
$DIMPOST
  1

  9
$DIMAPOST
  1

  9
$DIMALT
 70
     0
  9
$DIMALTD
 70
     2
  9
$DIMALTF
 40
25.4
  9
$DIMLFAC
 40
1.0
  9
$DIMTOFL
 70
     0
  9
$DIMTVP
 40
0.0
  9
$DIMTIX
 70
     0
  9
$DIMSOXD
 70
     0
  9
$DIMSAH
 70
     0
  9
$DIMBLK1
  1

  9
$DIMBLK2
  1

  9
$DIMSTYLE
  2
Standard
  9
$DIMCLRD
 70
     0
  9
$DIMCLRE
 70
     0
  9
$DIMCLRT
 70
     0
  9
$DIMTFAC
 40
1.0
  9
$DIMGAP
 40
0.09
  9
$DIMJUST
 70
     0
  9
$DIMSD1
 70
     0
  9
$DIMSD2
 70
     0
  9
$DIMTOLJ
 70
     1
  9
$DIMTZIN
 70
     0
  9
$DIMALTZ
 70
     0
  9
$DIMALTTZ
 70
     0
  9
$DIMUPT
 70
     0
  9
$DIMDEC
 70
     4
  9
$DIMTDEC
 70
     4
  9
$DIMALTU
 70
     2
  9
$DIMALTTD
 70
     2
  9
$DIMTXSTY
  7
Standard
  9
$DIMAUNIT
 70
     0
  9
$DIMADEC
 70
     0
  9
$DIMALTRND
 40
0.0
  9
$DIMAZIN
 70
     0
  9
$DIMDSEP
 70
    46
  9
$DIMATFIT
 70
     3
  9
$DIMFRAC
 70
     0
  9
$DIMLDRBLK
  1

  9
$DIMLUNIT
 70
     2
  9
$DIMLWD
 70
    -2
  9
$DIMLWE
 70
    -2
  9
$DIMTMOVE
 70
     0
  9
$DIMFXL
 40
1.0
  9
$DIMFXLON
 70
     0
  9
$DIMJOGANG
 40
0.7853981633974483
  9
$DIMTFILL
 70
     0
  9
$DIMTFILLCLR
 70
     0
  9
$DIMARCSYM
 70
     0
  9
$DIMLTYPE
  6

  9
$DIMLTEX1
  6

  9
$DIMLTEX2
  6

  9
$DIMTXTDIRECTION
 70
     0
  9
$LUNITS
 70
     2
  9
$LUPREC
 70
     4
  9
$SKETCHINC
 40
0.1
  9
$FILLETRAD
 40
0.5
  9
$AUNITS
 70
     0
  9
$AUPREC
 70
     0
  9
$MENU
  1
.
  9
$ELEVATION
 40
0.0
  9
$PELEVATION
 40
0.0
  9
$THICKNESS
 40
0.0
  9
$LIMCHECK
 70
     0
  9
$CHAMFERA
 40
0.0
  9
$CHAMFERB
 40
0.0
  9
$CHAMFERC
 40
0.0
  9
$CHAMFERD
 40
0.0
  9
$SKPOLY
 70
     0
  9
$TDCREATE
 40
2458132.625874734
  9
$TDUCREATE
 40
2458132.959208067
  9
$TDUPDATE
 40
2458132.625878599
  9
$TDUUPDATE
 40
2458132.959211933
  9
$TDINDWG
 40
0.0000000116
  9
$TDUSRTIMER
 40
0.0000000116
  9
$USRTIMER
 70
     1
  9
$ANGBASE
 50
0.0
  9
$ANGDIR
 70
     0
  9
$PDMODE
 70
     0
  9
$PDSIZE
 40
0.0
  9
$PLINEWID
 40
0.0
  9
$SPLFRAME
 70
     0
  9
$SPLINETYPE
 70
     6
  9
$SPLINESEGS
 70
     8
  9
$HANDSEED
  5
1B3
  9
$SURFTAB1
 70
     6
  9
$SURFTAB2
 70
     6
  9
$SURFTYPE
 70
     6
  9
$SURFU
 70
     6
  9
$SURFV
 70
     6
  9
$UCSBASE
  2

  9
$UCSNAME
  2

  9
$UCSORG
 10
0.0
 20
0.0
 30
0.0
  9
$UCSXDIR
 10
1.0
 20
0.0
 30
0.0
  9
$UCSYDIR
 10
0.0
 20
1.0
 30
0.0
  9
$UCSORTHOREF
  2

  9
$UCSORTHOVIEW
 70
     0
  9
$UCSORGTOP
 10
0.0
 20
0.0
 30
0.0
  9
$UCSORGBOTTOM
 10
0.0
 20
0.0
 30
0.0
  9
$UCSORGLEFT
 10
0.0
 20
0.0
 30
0.0
  9
$UCSORGRIGHT
 10
0.0
 20
0.0
 30
0.0
  9
$UCSORGFRONT
 10
0.0
 20
0.0
 30
0.0
  9
$UCSORGBACK
 10
0.0
 20
0.0
 30
0.0
  9
$PUCSBASE
  2

  9
$PUCSNAME
  2

  9
$PUCSORG
 10
0.0
 20
0.0
 30
0.0
  9
$PUCSXDIR
 10
1.0
 20
0.0
 30
0.0
  9
$PUCSYDIR
 10
0.0
 20
1.0
 30
0.0
  9
$PUCSORTHOREF
  2

  9
$PUCSORTHOVIEW
 70
     0
  9
$PUCSORGTOP
 10
0.0
 20
0.0
 30
0.0
  9
$PUCSORGBOTTOM
 10
0.0
 20
0.0
 30
0.0
  9
$PUCSORGLEFT
 10
0.0
 20
0.0
 30
0.0
  9
$PUCSORGRIGHT
 10
0.0
 20
0.0
 30
0.0
  9
$PUCSORGFRONT
 10
0.0
 20
0.0
 30
0.0
  9
$PUCSORGBACK
 10
0.0
 20
0.0
 30
0.0
  9
$USERI1
 70
     0
  9
$USERI2
 70
     0
  9
$USERI3
 70
     0
  9
$USERI4
 70
     0
  9
$USERI5
 70
     0
  9
$USERR1
 40
0.0
  9
$USERR2
 40
0.0
  9
$USERR3
 40
0.0
  9
$USERR4
 40
0.0
  9
$USERR5
 40
0.0
  9
$WORLDVIEW
 70
     1
  9
$SHADEDGE
 70
     3
  9
$SHADEDIF
 70
    70
  9
$TILEMODE
 70
     1
  9
$MAXACTVP
 70
    64
  9
$PINSBASE
 10
0.0
 20
0.0
 30
0.0
  9
$PLIMCHECK
 70
     0
  9
$PEXTMIN
 10
1.000000000000000E+20
 20
1.000000000000000E+20
 30
1.000000000000000E+20
  9
$PEXTMAX
 10
-1.000000000000000E+20
 20
-1.000000000000000E+20
 30
-1.000000000000000E+20
  9
$PLIMMIN
 10
0.0
 20
0.0
  9
$PLIMMAX
 10
12.0
 20
9.0
  9
$UNITMODE
 70
     0
  9
$VISRETAIN
 70
     1
  9
$PLINEGEN
 70
     0
  9
$PSLTSCALE
 70
     1
  9
$TREEDEPTH
 70
  3020
  9
$CMLSTYLE
  2
Standard
  9
$CMLJUST
 70
     0
  9
$CMLSCALE
 40
1.0
  9
$PROXYGRAPHICS
 70
     1
  9
$MEASUREMENT
 70
     1
  9
$CELWEIGHT
370
    -1
  9
$ENDCAPS
280
     0
  9
$JOINSTYLE
280
     0
  9
$LWDISPLAY
290
     0
  9
$INSUNITS
 70
     5
  9
$HYPERLINKBASE
  1

  9
$STYLESHEET
  1

  9
$XEDIT
290
     1
  9
$CEPSNTYPE
380
     0
  9
$PSTYLEMODE
290
     1
  9
$FINGERPRINTGUID
  2
{F685C99C-4D79-44C1-AFAD-E49C7A91DA38}
  9
$VERSIONGUID
  2
{FAEB1C32-E019-11D5-929B-00C0DF256EC4}
  9
$EXTNAMES
290
     1
  9
$PSVPSCALE
 40
0.0
  9
$OLESTARTUP
290
     0
  9
$SORTENTS
280
   127
  9
$INDEXCTL
280
     0
  9
$HIDETEXT
280
     1
  9
$XCLIPFRAME
280
     2
  9
$HALOGAP
280
     0
  9
$OBSCOLOR
 70
   257
  9
$OBSLTYPE
280
     0
  9
$INTERSECTIONDISPLAY
280
     0
  9
$INTERSECTIONCOLOR
 70
   257
  9
$DIMASSOC
280
     2
  9
$PROJECTNAME
  1

  9
$CAMERADISPLAY
290
     0
  9
$LENSLENGTH
 40
50.0
  9
$CAMERAHEIGHT
 40
0.0
  9
$STEPSPERSEC
 40
2.0
  9
$STEPSIZE
 40
6.0
  9
$3DDWFPREC
 40
2.0
  9
$PSOLWIDTH
 40
0.25
  9
$PSOLHEIGHT
 40
4.0
  9
$LOFTANG1
 40
1.570796326794897
  9
$LOFTANG2
 40
1.570796326794897
  9
$LOFTMAG1
 40
0.0
  9
$LOFTMAG2
 40
0.0
  9
$LOFTPARAM
 70
     7
  9
$LOFTNORMALS
280
     1
  9
$LATITUDE
 40
37.795
  9
$LONGITUDE
 40
-122.394
  9
$NORTHDIRECTION
 40
0.0
  9
$TIMEZONE
 70
 -8000
  9
$LIGHTGLYPHDISPLAY
280
     1
  9
$TILEMODELIGHTSYNCH
280
     1
  9
$CMATERIAL
347
44
  9
$SOLIDHIST
280
     0
  9
$SHOWHIST
280
     1
  9
$DWFFRAME
280
     2
  9
$DGNFRAME
280
     2
  9
$REALWORLDSCALE
290
     1
  9
$INTERFERECOLOR
 62
   256
  9
$CSHADOW
280
     0
  9
$SHADOWPLANELOCATION
 40
0.0
  0
ENDSEC
  0
SECTION
  2
CLASSES
  0
CLASS
  1
ACDBDICTIONARYWDFLT
  2
AcDbDictionaryWithDefault
  3
ObjectDBX Classes
 90
        0
 91
        4
280
     0
281
     0
  0
CLASS
  1
VISUALSTYLE
  2
AcDbVisualStyle
  3
ObjectDBX Classes
 90
     4095
 91
        4
280
     0
281
     0
  0
CLASS
  1
MATERIAL
  2
AcDbMaterial
  3
ObjectDBX Classes
 90
     1153
 91
        4
280
     0
281
     0
  0
CLASS
  1
SCALE
  2
AcDbScale
  3
ObjectDBX Classes
 90
     1153
 91
        4
280
     0
281
     0
  0
CLASS
  1
TABLESTYLE
  2
AcDbTableStyle
  3
ObjectDBX Classes
 90
     4095
 91
        4
280
     0
281
     0
  0
CLASS
  1
MLEADERSTYLE
  2
AcDbMLeaderStyle
  3
ACDB_MLEADERSTYLE_CLASS
 90
     4095
 91
        4
280
     0
281
     0
  0
CLASS
  1
SUN
  2
AcDbSun
  3
SCENEOE
 90
     1153
 91
        4
280
     0
281
     0
  0
CLASS
  1
DICTIONARYVAR
  2
AcDbDictionaryVar
  3
ObjectDBX Classes
 90
        0
 91
        4
280
     0
281
     0
  0
CLASS
  1
CELLSTYLEMAP
  2
AcDbCellStyleMap
  3
ObjectDBX Classes
 90
     1152
 91
        4
280
     0
281
     0
  0
ENDSEC
  0
SECTION
  2
TABLES
  0
TABLE
  2
VPORT
  5
8
330
0
100
AcDbSymbolTable
 70
     1
  0
VPORT
  5
29
330
8
100
AcDbSymbolTableRecord
100
AcDbViewportTableRecord
  2
*Active
 70
     0
 10
0.0
 20
0.0
 11
1.0
 21
1.0
 12
10.42990654205607
 22
4.5
 13
0.0
 23
0.0
 14
0.5
 24
0.5
 15
0.5
 25
0.5
 16
0.0
 26
0.0
 36
1.0
 17
0.0
 27
0.0
 37
0.0
 40
9.0
 41
1.972972972850329
 42
50.0
 43
0.0
 44
0.0
 50
0.0
 51
0.0
 71
     0
 72
   100
 73
     1
 74
     3
 75
     0
 76
     0
 77
     0
 78
     0
281
     0
 65
     1
110
0.0
120
0.0
130
0.0
111
1.0
121
0.0
131
0.0
112
0.0
122
1.0
132
0.0
 79
     0
146
0.0
348
2F
 60
     3
 61
     5
292
     1
282
     1
141
0.0
142
0.0
 63
   250
361
6D
  0
ENDTAB
  0
TABLE
  2
LTYPE
  5
5
330
0
100
AcDbSymbolTable
 70
     2
  0
LTYPE
  5
14
330
5
100
AcDbSymbolTableRecord
100
AcDbLinetypeTableRecord
  2
ByBlock
 70
     0
  3

 72
    65
 73
     0
 40
0.0
  0
LTYPE
  5
15
330
5
100
AcDbSymbolTableRecord
100
AcDbLinetypeTableRecord
  2
ByLayer
 70
     0
  3

 72
    65
 73
     0
 40
0.0
  0
LTYPE
  5
16
330
5
100
AcDbSymbolTableRecord
100
AcDbLinetypeTableRecord
  2
Continuous
 70
     0
  3
Solid line
 72
    65
 73
     0
 40
0.0
  0
LTYPE
  5
93
330
5
100
AcDbSymbolTableRecord
100
AcDbLinetypeTableRecord
  2
Dotted_G
 70
     0
  3

 72
    65
 73
     2
 40
0.1001
 49
0.0001
 74
     0
 49
-0.1
 74
     2
 75
     0
340
0
 46
0.0
 50
0.0
 44
0.0
 45
0.0
  9
.
  0
ENDTAB
  0
TABLE
  2
LAYER
  5
2
330
0
100
AcDbSymbolTable
 70
    21
  0
LAYER
  5
10
330
2
100
AcDbSymbolTableRecord
100
AcDbLayerTableRecord
  2
0
 70
     0
 62
     7
  6
Continuous
370
    -3
390
F
347
46
348
0
  0
LAYER
  5
94
330
2
100
AcDbSymbolTableRecord
100
AcDbLayerTableRecord
  2
Stringers
 70
     0
 62
     7
  6
Continuous
370
    -3
390
F
347
46
348
0
  0
LAYER
  5
95
330
2
100
AcDbSymbolTableRecord
100
AcDbLayerTableRecord
  2
Station 6
 70
     0
 62
     7
  6
Continuous
370
    -3
390
F
347
46
348
0
  0
LAYER
  5
96
330
2
100
AcDbSymbolTableRecord
100
AcDbLayerTableRecord
  2
Station 1
 70
     0
 62
     7
  6
Continuous
370
    -3
390
F
347
46
348
0
  0
LAYER
  5
97
330
2
100
AcDbSymbolTableRecord
100
AcDbLayerTableRecord
  2
Station 2
 70
     0
 62
     7
  6
Continuous
370
    -3
390
F
347
46
348
0
  0
LAYER
  5
98
330
2
100
AcDbSymbolTableRecord
100
AcDbLayerTableRecord
  2
Station 3
 70
     0
 62
     7
  6
Continuous
370
    -3
390
F
347
46
348
0
  0
LAYER
  5
99
330
2
100
AcDbSymbolTableRecord
100
AcDbLayerTableRecord
  2
Station 3.5
 70
     0
 62
     7
  6
Continuous
370
    -3
390
F
347
46
348
0
  0
LAYER
  5
9A
330
2
100
AcDbSymbolTableRecord
100
AcDbLayerTableRecord
  2
Station 4
 70
     0
 62
     7
  6
Continuous
370
    -3
390
F
347
46
348
0
  0
LAYER
  5
9B
330
2
100
AcDbSymbolTableRecord
100
AcDbLayerTableRecord
  2
Station 5
 70
     0
 62
     7
  6
Continuous
370
    -3
390
F
347
46
348
0
  0
LAYER
  5
9C
330
2
100
AcDbSymbolTableRecord
100
AcDbLayerTableRecord
  2
Station 7
 70
     0
 62
     7
  6
Continuous
370
    -3
390
F
347
46
348
0
  0
LAYER
  5
9D
330
2
100
AcDbSymbolTableRecord
100
AcDbLayerTableRecord
  2
Station 7.5
 70
     0
 62
     7
  6
Continuous
370
    -3
390
F
347
46
348
0
  0
LAYER
  5
9E
330
2
100
AcDbSymbolTableRecord
100
AcDbLayerTableRecord
  2
Station 8
 70
     0
 62
     7
  6
Continuous
370
    -3
390
F
347
46
348
0
  0
LAYER
  5
9F
330
2
100
AcDbSymbolTableRecord
100
AcDbLayerTableRecord
  2
Station 9
 70
     0
 62
     7
  6
Continuous
370
    -3
390
F
347
46
348
0
  0
LAYER
  5
A0
330
2
100
AcDbSymbolTableRecord
100
AcDbLayerTableRecord
  2
Station 10
 70
     0
 62
     7
  6
Continuous
370
    -3
390
F
347
46
348
0
  0
LAYER
  5
A1
330
2
100
AcDbSymbolTableRecord
100
AcDbLayerTableRecord
  2
Hatchways
 70
     0
 62
     7
  6
Continuous
370
    -3
390
F
347
46
348
0
  0
LAYER
  5
A2
330
2
100
AcDbSymbolTableRecord
100
AcDbLayerTableRecord
  2
Sections
 70
     0
 62
     7
  6
Continuous
370
    -3
390
F
347
46
348
0
  0
LAYER
  5
A3
330
2
100
AcDbSymbolTableRecord
100
AcDbLayerTableRecord
  2
Plan
 70
     0
 62
     7
  6
Continuous
370
    -3
390
F
347
46
348
0
  0
LAYER
  5
A4
330
2
100
AcDbSymbolTableRecord
100
AcDbLayerTableRecord
  2
Layer1
 70
     0
 62
     7
  6
Continuous
370
    -3
390
F
347
46
348
0
  0
LAYER
  5
A5
330
2
100
AcDbSymbolTableRecord
100
AcDbLayerTableRecord
  2
Text
 70
     0
 62
     7
  6
Continuous
370
    -3
390
F
347
46
348
0
  0
LAYER
  5
A6
330
2
100
AcDbSymbolTableRecord
100
AcDbLayerTableRecord
  2
Centers
 70
     0
 62
     7
  6
Continuous
370
    -3
390
F
347
46
348
0
  0
LAYER
  5
A7
330
2
100
AcDbSymbolTableRecord
100
AcDbLayerTableRecord
  2
Construction
 70
     0
 62
     7
  6
Continuous
370
    -3
390
F
347
46
348
0
  0
ENDTAB
  0
TABLE
  2
STYLE
  5
3
330
0
100
AcDbSymbolTable
 70
     4
  0
STYLE
  5
11
330
3
100
AcDbSymbolTableRecord
100
AcDbTextStyleTableRecord
  2
Standard
 70
     0
 40
0.0
 41
1.0
 50
0.0
 71
     0
 42
0.2
  3
txt
  4

  0
STYLE
  5
6E
330
3
100
AcDbSymbolTableRecord
100
AcDbTextStyleTableRecord
  2
OdaShxStyle
 70
     0
 40
0.0
 41
1.0
 50
0.0
 71
     0
 42
0.2
  3
txt
  4

  0
STYLE
  5
6F
330
3
100
AcDbSymbolTableRecord
100
AcDbTextStyleTableRecord
  2
OdaTtfStyle
 70
     0
 40
0.0
 41
1.0
 50
0.0
 71
     0
 42
0.2
  3
VERDANA.TTF
  4

1001
ACAD
1000
Verdana
1071
       34
  0
STYLE
  5
70
330
3
100
AcDbSymbolTableRecord
100
AcDbTextStyleTableRecord
  2

 70
     1
 40
0.0
 41
1.0
 50
0.0
 71
     0
 42
0.2
  3
ltypeshp.shx
  4

  0
ENDTAB
  0
TABLE
  2
VIEW
  5
6
330
0
100
AcDbSymbolTable
 70
     0
  0
ENDTAB
  0
TABLE
  2
UCS
  5
7
330
0
100
AcDbSymbolTable
 70
     0
  0
ENDTAB
  0
TABLE
  2
APPID
  5
9
330
0
100
AcDbSymbolTable
 70
     1
  0
APPID
  5
12
330
9
100
AcDbSymbolTableRecord
100
AcDbRegAppTableRecord
  2
ACAD
 70
     0
  0
ENDTAB
  0
TABLE
  2
DIMSTYLE
  5
A
330
0
100
AcDbSymbolTable
 70
     9
100
AcDbDimStyleTable
  0
DIMSTYLE
105
27
330
A
100
AcDbSymbolTableRecord
100
AcDbDimStyleTableRecord
  2
Standard
 70
     0
178
     0
340
11
  0
DIMSTYLE
105
71
330
A
100
AcDbSymbolTableRecord
100
AcDbDimStyleTableRecord
  2
OdaDimStyle0
 70
     0
178
     0
340
11
  0
DIMSTYLE
105
72
330
A
100
AcDbSymbolTableRecord
100
AcDbDimStyleTableRecord
  2
OdaDimStyle1
 70
     0
178
     0
340
11
  0
DIMSTYLE
105
73
330
A
100
AcDbSymbolTableRecord
100
AcDbDimStyleTableRecord
  2
OdaDimStyle2
 70
     0
178
     0
340
11
342
74
  0
DIMSTYLE
105
7A
330
A
100
AcDbSymbolTableRecord
100
AcDbDimStyleTableRecord
  2
OdaDimStyle3
 70
     0
178
     0
340
11
342
7B
  0
DIMSTYLE
105
7E
330
A
100
AcDbSymbolTableRecord
100
AcDbDimStyleTableRecord
  2
OdaDimStyle4
 70
     0
178
     0
340
11
342
7F
  0
DIMSTYLE
105
83
330
A
100
AcDbSymbolTableRecord
100
AcDbDimStyleTableRecord
  2
OdaDimStyle5
 70
     0
178
     0
340
11
  0
DIMSTYLE
105
84
330
A
100
AcDbSymbolTableRecord
100
AcDbDimStyleTableRecord
  2
OdaDimStyle6
 70
     0
178
     0
340
11
342
85
  0
DIMSTYLE
105
8D
330
A
100
AcDbSymbolTableRecord
100
AcDbDimStyleTableRecord
  2
OdaDimStyle7
 70
     0
178
     0
340
11
342
8E
  0
ENDTAB
  0
TABLE
  2
BLOCK_RECORD
  5
1
330
0
100
AcDbSymbolTable
 70
     6
  0
BLOCK_RECORD
  5
1F
330
1
100
AcDbSymbolTableRecord
100
AcDbBlockTableRecord
  2
*Model_Space
340
22
 70
     0
280
     1
281
     0
  0
BLOCK_RECORD
  5
1B
330
1
100
AcDbSymbolTableRecord
100
AcDbBlockTableRecord
  2
*Paper_Space
340
1E
 70
     0
280
     1
281
     0
  0
BLOCK_RECORD
  5
23
330
1
100
AcDbSymbolTableRecord
100
AcDbBlockTableRecord
  2
*Paper_Space0
340
26
 70
     0
280
     1
281
     0
  0
BLOCK_RECORD
  5
74
330
1
100
AcDbSymbolTableRecord
100
AcDbBlockTableRecord
  2
_CLOSEDBLANK
340
0
 70
     0
280
     1
281
     0
  0
BLOCK_RECORD
  5
7B
330
1
100
AcDbSymbolTableRecord
100
AcDbBlockTableRecord
  2
_NONE
340
0
 70
     0
280
     1
281
     0
  0
BLOCK_RECORD
  5
7F
330
1
100
AcDbSymbolTableRecord
100
AcDbBlockTableRecord
  2
_OBLIQUE
340
0
 70
     0
280
     1
281
     0
  0
BLOCK_RECORD
  5
85
330
1
100
AcDbSymbolTableRecord
100
AcDbBlockTableRecord
  2
_DOT
340
0
 70
     0
280
     1
281
     0
  0
BLOCK_RECORD
  5
8E
330
1
100
AcDbSymbolTableRecord
100
AcDbBlockTableRecord
  2
_DOTBLANK
340
0
 70
     0
280
     1
281
     0
  0
ENDTAB
  0
ENDSEC
  0
SECTION
  2
BLOCKS
  0
BLOCK
  5
20
330
1F
100
AcDbEntity
  8
0
100
AcDbBlockBegin
  2
*Model_Space
 70
     0
 10
0.0
 20
0.0
 30
0.0
  3
*Model_Space
  1

  0
ENDBLK
  5
21
330
1F
100
AcDbEntity
  8
0
100
AcDbBlockEnd
  0
BLOCK
  5
1C
330
1B
100
AcDbEntity
 67
     1
  8
0
100
AcDbBlockBegin
  2
*Paper_Space
 70
     0
 10
0.0
 20
0.0
 30
0.0
  3
*Paper_Space
  1

  0
ENDBLK
  5
1D
330
1B
100
AcDbEntity
 67
     1
  8
0
100
AcDbBlockEnd
  0
BLOCK
  5
24
330
23
100
AcDbEntity
  8
0
100
AcDbBlockBegin
  2
*Paper_Space0
 70
     0
 10
0.0
 20
0.0
 30
0.0
  3
*Paper_Space0
  1

  0
ENDBLK
  5
25
330
23
100
AcDbEntity
  8
0
100
AcDbBlockEnd
  0
BLOCK
  5
75
330
74
100
AcDbEntity
  8
0
100
AcDbBlockBegin
  2
_CLOSEDBLANK
 70
     0
 10
0.0
 20
0.0
 30
0.0
  3
_CLOSEDBLANK
  1

  0
LINE
  5
77
330
74
100
AcDbEntity
  8
0
  6
ByBlock
 62
     0
370
    -2
100
AcDbLine
 10
-1.0
 20
0.166667
 30
0.0
 11
0.0
 21
0.0
 31
0.0
  0
LINE
  5
78
330
74
100
AcDbEntity
  8
0
  6
ByBlock
 62
     0
370
    -2
100
AcDbLine
 10
0.0
 20
0.0
 30
0.0
 11
-1.0
 21
-0.166667
 31
0.0
  0
LINE
  5
79
330
74
100
AcDbEntity
  8
0
  6
ByBlock
 62
     0
370
    -2
100
AcDbLine
 10
-1.0
 20
0.166667
 30
0.0
 11
-1.0
 21
-0.166667
 31
0.0
  0
ENDBLK
  5
76
330
74
100
AcDbEntity
  8
0
100
AcDbBlockEnd
  0
BLOCK
  5
7C
330
7B
100
AcDbEntity
  8
0
100
AcDbBlockBegin
  2
_NONE
 70
     0
 10
0.0
 20
0.0
 30
0.0
  3
_NONE
  1

  0
ENDBLK
  5
7D
330
7B
100
AcDbEntity
  8
0
100
AcDbBlockEnd
  0
BLOCK
  5
80
330
7F
100
AcDbEntity
  8
0
100
AcDbBlockBegin
  2
_OBLIQUE
 70
     0
 10
0.0
 20
0.0
 30
0.0
  3
_OBLIQUE
  1

  0
LINE
  5
82
330
7F
100
AcDbEntity
  8
0
  6
ByBlock
 62
     0
370
    -2
100
AcDbLine
 10
-0.5
 20
-0.5
 30
0.0
 11
0.5
 21
0.5
 31
0.0
  0
ENDBLK
  5
81
330
7F
100
AcDbEntity
  8
0
100
AcDbBlockEnd
  0
BLOCK
  5
86
330
85
100
AcDbEntity
  8
0
100
AcDbBlockBegin
  2
_DOT
 70
     0
 10
0.0
 20
0.0
 30
0.0
  3
_DOT
  1

  0
POLYLINE
  5
88
330
85
100
AcDbEntity
  8
0
  6
ByBlock
 62
     0
100
AcDb2dPolyline
 66
     1
 10
0.0
 20
0.0
 30
0.0
 70
     1
 40
0.5
 41
0.5
  0
VERTEX
  5
8A
330
88
100
AcDbEntity
  8
0
  6
ByBlock
 62
     0
100
AcDbVertex
100
AcDb2dVertex
 10
-0.25
 20
0.0
 30
0.0
 42
1.0
  0
VERTEX
  5
8B
330
88
100
AcDbEntity
  8
0
  6
ByBlock
 62
     0
100
AcDbVertex
100
AcDb2dVertex
 10
0.25
 20
0.0
 30
0.0
 42
1.0
  0
SEQEND
  5
8C
330
88
100
AcDbEntity
  8
0
  6
ByBlock
 62
     0
  0
LINE
  5
89
330
85
100
AcDbEntity
  8
0
  6
ByBlock
 62
     0
370
    -2
100
AcDbLine
 10
-0.5
 20
0.0
 30
0.0
 11
-1.0
 21
0.0
 31
0.0
  0
ENDBLK
  5
87
330
85
100
AcDbEntity
  8
0
100
AcDbBlockEnd
  0
BLOCK
  5
8F
330
8E
100
AcDbEntity
  8
0
100
AcDbBlockBegin
  2
_DOTBLANK
 70
     0
 10
0.0
 20
0.0
 30
0.0
  3
_DOTBLANK
  1

  0
CIRCLE
  5
91
330
8E
100
AcDbEntity
  8
0
  6
ByBlock
 62
     0
370
    -2
100
AcDbCircle
 10
0.0
 20
0.0
 30
0.0
 40
0.5
  0
LINE
  5
92
330
8E
100
AcDbEntity
  8
0
  6
ByBlock
 62
     0
370
    -2
100
AcDbLine
 10
-0.5
 20
0.0
 30
0.0
 11
-1.0
 21
0.0
 31
0.0
  0
ENDBLK
  5
90
330
8E
100
AcDbEntity
  8
0
100
AcDbBlockEnd
  0
ENDSEC
  0
SECTION
  2
ENTITIES
  0
ARC
  5
A8
330
1F
100
AcDbEntity
  8
Station 7
 62
     7
370
     9
100
AcDbCircle
 10
-18.29260761184156
 20
64.08211723678706
 30
0.0
 40
6.349999999999991
210
0.0
220
0.0
230
-1.0
100
AcDbArc
 50
217.0106732336031
 51
260.4341005128774
  0
ARC
  5
A9
330
1F
100
AcDbEntity
  8
Station 7
 62
     7
370
     9
100
AcDbCircle
 10
-18.29260761184155
 20
64.08211723678706
 30
0.0
 40
7.620000000000004
210
0.0
220
0.0
230
-1.0
100
AcDbArc
 50
217.0106732336032
 51
260.4341005128774
  0
SPLINE
  5
AA
330
1F
100
AcDbEntity
  8
Layer1
 62
     7
370
     9
100
AcDbSpline
210
0.0
220
0.0
230
1.0
 70
     8
 71
     3
 72
     9
 73
     5
 74
     0
 42
0.000000001
 43
0.0
 40
0.0
 40
0.0
 40
0.0
 40
0.0
 40
0.5020006087372534
 40
1.0
 40
1.0
 40
1.0
 40
1.0
 10
30.73443276339929
 20
74.42856206489657
 30
0.0
 10
30.58935676232631
 20
74.15273472201709
 30
0.0
 10
30.30036109469572
 20
73.60327852997519
 30
0.0
 10
30.86755476635209
 20
73.35304901099359
 30
0.0
 10
31.15001686956504
 20
73.22843486286479
 30
0.0
  0
MTEXT
  5
AB
330
1F
100
AcDbEntity
  8
Layer1
 62
     7
370
     9
100
AcDbMText
 10
39.00811047619048
 20
76.01876041666667
 30
0.0
 40
0.635
 41
15.5575
 46
0.0
 71
     1
 72
     1
  1
{\C7;\l\Fplotter|b0|i0|c00|p34;© 1992 GBD/DBC \P}
 11
0.0
 21
1.0
 31
0.0
 73
     1
 44
1.0
  0
MTEXT
  5
AC
330
1F
100
AcDbEntity
  8
Layer1
 62
     7
370
     9
100
AcDbMText
 10
39.00811047619048
 20
30.93376041666667
 30
0.0
 40
0.635
 41
15.5575
 46
0.0
 71
     1
 72
     1
  1
{\C7;\l\Fplotter|b0|i1|c01|p34;Version 1.1\P}
 11
0.0
 21
1.0
 31
0.0
 73
     1
 44
1.0
  0
MTEXT
  5
AD
330
1F
100
AcDbEntity
  8
Layer1
 62
     7
370
     9
100
AcDbMText
 10
39.00811047619048
 20
30.93376041666664
 30
0.0
 40
0.635
 41
15.5575
 46
0.0
 71
     1
 72
     1
  1
{\C7;\l\Fplotter|b0|i1|c01|p34;Version 1.0\P}
 11
0.0
 21
1.0
 31
0.0
 73
     1
 44
1.0
  0
MTEXT
  5
AE
330
1F
100
AcDbEntity
  8
Layer1
 62
     7
370
     9
100
AcDbMText
 10
39.00811047619048
 20
76.01876041666664
 30
0.0
 40
0.635
 41
15.5575
 46
0.0
 71
     1
 72
     1
  1
{\C7;\l\Fplotter|b0|i0|c00|p34;© 1992 GBD/DBC \P}
 11
0.0
 21
1.0
 31
0.0
 73
     1
 44
1.0
  0
MTEXT
  5
AF
330
1F
100
AcDbEntity
  8
Text
 62
     7
370
     9
100
AcDbMText
 10
11.70615885416667
 20
47.77267860044321
 30
0.0
 40
0.4233333459496498
 41
8.432208427303072
 46
0.0
 71
     1
 72
     1
  1
{\C7;\l\Fplotter|b0|i0|c00|p34;\H1.00x;382 cm   \P}
 73
     1
 44
1.0
  0
CIRCLE
  5
B0
330
1F
100
AcDbEntity
  8
Centers
 62
     7
370
     9
100
AcDbCircle
 10
-29.26031196043512
 20
64.91766324507512
 30
0.0
 40
0.0199999999999996
210
0.0
220
0.0
230
-1.0
  0
CIRCLE
  5
B1
330
1F
100
AcDbEntity
  8
Centers
 62
     7
370
     9
100
AcDbCircle
 10
-18.62229022279925
 20
63.53940702310749
 30
0.0
 40
0.0199999999999996
210
0.0
220
0.0
230
-1.0
  0
CIRCLE
  5
B2
330
1F
100
AcDbEntity
  8
Centers
 62
     7
370
     9
100
AcDbCircle
 10
-24.36031196043512
 20
58.41766324507511
 30
0.0
 40
0.0199999999999996
210
0.0
220
0.0
230
-1.0
  0
CIRCLE
  5
B3
330
1F
100
AcDbEntity
  8
Centers
 62
     7
370
     9
100
AcDbCircle
 10
-15.96031196043512
 20
55.31766324507511
 30
0.0
 40
0.0199999999999996
210
0.0
220
0.0
230
-1.0
  0
CIRCLE
  5
B4
330
1F
100
AcDbEntity
  8
Centers
 62
     7
370
     9
100
AcDbCircle
 10
-18.36176421460047
 20
81.64874684550558
 30
0.0
 40
0.0199999999999996
210
0.0
220
0.0
230
-1.0
  0
CIRCLE
  5
B5
330
1F
100
AcDbEntity
  8
Centers
 62
     7
370
     9
100
AcDbCircle
 10
-17.74826615335479
 20
81.9404991220588
 30
0.0
 40
0.0199999999999996
210
0.0
220
0.0
230
-1.0
  0
CIRCLE
  5
B6
330
1F
100
AcDbEntity
  8
Station 7
 62
     7
370
     9
100
AcDbCircle
 10
-18.36176421460047
 20
81.64874684550558
 30
0.0
 40
0.1999999999999993
210
0.0
220
0.0
230
-1.0
  0
CIRCLE
  5
B7
330
1F
100
AcDbEntity
  8
Station 7
  6
Dotted_G
 62
     7
370
     9
100
AcDbCircle
 10
-17.74826615335479
 20
81.9404991220588
 30
0.0
 40
0.1999999999999993
210
0.0
220
0.0
230
-1.0
  0
CIRCLE
  5
B8
330
1F
100
AcDbEntity
  8
Station 7
 62
     7
370
     9
100
AcDbCircle
 10
-15.96031196043512
 20
55.31766324507511
 30
0.0
 40
0.6349999999999998
210
0.0
220
0.0
230
-1.0
  0
ARC
  5
B9
330
1F
100
AcDbEntity
  8
Station 7
 62
     7
370
     9
100
AcDbCircle
 10
-23.7667664117852
 20
71.34375646120209
 30
0.0
 40
7.620000000000009
210
0.0
220
0.0
230
-1.0
100
AcDbArc
 50
115.3865923189181
 51
217.0106732336031
  0
CIRCLE
  5
BA
330
1F
100
AcDbEntity
  8
Station 7
 62
     7
370
     9
100
AcDbCircle
 10
-24.36031196043512
 20
58.41766324507511
 30
0.0
 40
0.6350000000000016
210
0.0
220
0.0
230
-1.0
  0
CIRCLE
  5
BB
330
1F
100
AcDbEntity
  8
Station 7
 62
     7
370
     9
100
AcDbCircle
 10
-29.26031196043512
 20
64.91766324507512
 30
0.0
 40
0.6350000000000016
210
0.0
220
0.0
230
-1.0
  0
CIRCLE
  5
BC
330
1F
100
AcDbEntity
  8
Station 7
 62
     7
370
     9
100
AcDbCircle
 10
-15.96031196043512
 20
55.3176632450751
 30
0.0
 40
0.509999999999998
210
0.0
220
0.0
230
-1.0
  0
CIRCLE
  5
BD
330
1F
100
AcDbEntity
  8
Station 7
 62
     7
370
     9
100
AcDbCircle
 10
-24.36031196043512
 20
58.4176632450751
 30
0.0
 40
0.5100000000000016
210
0.0
220
0.0
230
-1.0
  0
CIRCLE
  5
BE
330
1F
100
AcDbEntity
  8
Station 7
 62
     7
370
     9
100
AcDbCircle
 10
-29.26031196043512
 20
64.9176632450751
 30
0.0
 40
0.5100000000000016
210
0.0
220
0.0
230
-1.0
  0
CIRCLE
  5
BF
330
1F
100
AcDbEntity
  8
Station 7
 62
     7
370
     9
100
AcDbCircle
 10
-24.38349378672761
 20
71.49499251839963
 30
0.0
 40
0.634999999999998
210
0.0
220
0.0
230
-1.0
  0
CIRCLE
  5
C0
330
1F
100
AcDbEntity
  8
Station 7
 62
     7
370
     9
100
AcDbCircle
 10
-18.62229022279925
 20
63.53940702310749
 30
0.0
 40
0.634999999999998
210
0.0
220
0.0
230
-1.0
  0
LINE
  5
C1
330
1F
100
AcDbEntity
  8
Station 7
 62
     7
370
     9
100
AcDbLine
 10
32.70113073725131
 20
73.78029976111164
 30
0.0
 11
31.15001686956504
 21
73.22843486286479
 31
0.0
  0
LINE
  5
C2
330
1F
100
AcDbEntity
  8
Station 7
 62
     7
370
     9
100
AcDbLine
 10
19.34786258586853
 20
57.82041324028648
 30
0.0
 11
1.015567380662472
 21
54.73095936136854
 31
0.0
  0
LINE
  5
C3
330
1F
100
AcDbEntity
  8
Station 7
 62
     7
370
     9
100
AcDbLine
 10
29.85151463018967
 20
66.75679241963564
 30
0.0
 11
24.37735583024602
 21
59.49515319522059
 31
0.0
  0
LINE
  5
C4
330
1F
100
AcDbEntity
  8
Station 7
 62
     7
370
     9
100
AcDbLine
 10
32.27542347621736
 20
74.97682528440941
 30
0.0
 11
30.73443276339929
 21
74.42856206489657
 31
0.0
  0
CIRCLE
  5
C5
330
1F
100
AcDbEntity
  8
Station 7
 62
     7
370
     9
100
AcDbCircle
 10
-33.16031196043512
 20
74.6176632450751
 30
0.0
 40
0.9549999999999983
210
0.0
220
0.0
230
-1.0
  0
CIRCLE
  5
C6
330
1F
100
AcDbEntity
  8
Station 7
 62
     7
370
     9
100
AcDbCircle
 10
-33.16031196043512
 20
74.6176632450751
 30
0.0
 40
0.8300000000000054
210
0.0
220
0.0
230
-1.0
  0
CIRCLE
  5
C7
330
1F
100
AcDbEntity
  8
Centers
 62
     7
370
     9
100
AcDbCircle
 10
-33.16031196043512
 20
74.6176632450751
 30
0.0
 40
0.0200000000000031
210
0.0
220
0.0
230
-1.0
  0
ARC
  5
C8
330
1F
100
AcDbEntity
  8
Station 7
 62
     7
370
     9
100
AcDbCircle
 10
-23.76434069880101
 20
71.34053867867203
 30
0.0
 40
6.350000000000001
210
0.0
220
0.0
230
-1.0
100
AcDbArc
 50
115.3865923189181
 51
217.010673233603
  0
ARC
  5
C9
330
1F
100
AcDbEntity
  8
Station 7
 62
     7
370
     9
100
AcDbCircle
 10
-23.76434069880102
 20
71.34053867867202
 30
0.0
 40
6.350000000000016
210
0.0
220
0.0
230
-1.0
100
AcDbArc
 50
115.3865923189181
 51
217.010673233603
  0
LINE
  5
CA
330
1F
100
AcDbEntity
  8
Station 7
 62
     7
370
     9
100
AcDbLine
 10
26.48673640851429
 20
77.07735500828682
 30
0.0
 11
16.65224678242336
 21
81.76144903143762
 31
0.0
  0
LINE
  5
CB
330
1F
100
AcDbEntity
  8
Station 7
 62
     7
370
     9
100
AcDbLine
 10
27.03411257787557
 20
78.22771215803711
 30
0.0
 11
17.24839159969325
 21
82.88136398425877
 31
0.0
  0
ELLIPSE
  5
CC
330
1F
100
AcDbEntity
  8
Station 7
  6
Dotted_G
 62
     7
370
     9
100
AcDbEllipse
 10
16.97568071428745
 20
82.30790625
 30
0.0
 11
0.7113137718988023
 21
0.0
 31
0.0
210
0.0
220
0.0
230
1.0
 40
0.8927143337952139
 41
4.71238898038469
 42
10.99557428756428
  0
ELLIPSE
  5
CD
330
1F
100
AcDbEntity
  8
Station 7
 62
     7
370
     9
100
AcDbEllipse
 10
17.28242974491029
 20
82.1620301117234
 30
0.0
 11
0.7113137718988023
 21
0.0
 31
0.0
210
0.0
220
0.0
230
1.0
 40
0.8927143337952139
 41
3.712417653930217
 42
7.875013539697569
  0
ELLIPSE
  5
CE
330
1F
100
AcDbEntity
  8
Station 7
 62
     7
370
     9
100
AcDbEllipse
 10
16.66893168366461
 20
82.45378238827661
 30
0.0
 11
0.7113137718988023
 21
0.0
 31
0.0
210
0.0
220
0.0
230
1.0
 40
0.8927143337952139
 41
4.733420886107774
 42
6.854010307519999
  0
CIRCLE
  5
CF
330
1F
100
AcDbEntity
  8
Station 7
 62
     7
370
     9
100
AcDbCircle
 10
-18.36176421460047
 20
81.64874684550557
 30
0.0
 40
0.1999999999999993
210
0.0
220
0.0
230
-1.0
  0
CIRCLE
  5
D0
330
1F
100
AcDbEntity
  8
Station 7
  6
Dotted_G
 62
     7
370
     9
100
AcDbCircle
 10
-17.74826615335479
 20
81.9404991220588
 30
0.0
 40
0.1999999999999993
210
0.0
220
0.0
230
-1.0
  0
LINE
  5
D1
330
1F
100
AcDbEntity
  8
Station 7
 62
     7
370
     9
100
AcDbLine
 10
18.29260761184155
 20
64.08211723678706
 30
0.0
 11
25.47931810602007
 21
58.66444317194479
 31
0.0
  0
LINE
  5
D2
330
1F
100
AcDbEntity
  8
Station 7
 62
     7
370
     9
100
AcDbLine
 10
23.76434069880102
 20
71.34053867867202
 30
0.0
 11
30.95105119297953
 21
65.92286461382976
 31
0.0
  0
LINE
  5
D3
330
1F
100
AcDbEntity
  8
Station 7
 62
     7
370
     9
100
AcDbLine
 10
18.29260761184155
 20
64.08211723678706
 30
0.0
 11
19.78824458290341
 21
55.20726117875473
 31
0.0
  0
LINE
  5
D4
330
1F
100
AcDbEntity
  8
Station 7
 62
     7
370
     9
100
AcDbLine
 10
23.76434069880102
 20
71.34053867867202
 30
0.0
 11
27.62285430311903
 21
79.47145946080322
 31
0.0
  0
LINE
  5
D5
330
1F
100
AcDbEntity
  8
Station 7
  6
Dotted_G
 62
     7
370
     5
100
AcDbLine
 10
32.26056245275846
 20
74.29754479288029
 30
0.0
 11
30.96719854075913
 21
73.8373837701719
 31
0.0
  0
CIRCLE
  5
D6
330
1F
100
AcDbEntity
  8
Plan
 62
     7
370
     9
100
AcDbCircle
 10
-23.57437481327099
 20
51.39203824507511
 30
0.0
 40
0.1600000000000001
210
0.0
220
0.0
230
-1.0
  0
CIRCLE
  5
D7
330
1F
100
AcDbEntity
  8
Plan
 62
     7
370
     9
100
AcDbCircle
 10
-16.11312481327098
 20
48.13766324507511
 30
0.0
 40
0.1599999999999984
210
0.0
220
0.0
230
-1.0
  0
MTEXT
  5
D8
330
1F
100
AcDbEntity
  8
Station 7
 62
     7
370
     9
100
AcDbMText
 10
11.20311979166667
 20
45.82471684551831
 30
0.0
 40
0.4233333459496498
 41
8.96039944292807
 46
0.0
 71
     1
 72
     1
  1
{\C7;\l\Fplotter|b0|i0|c00|p34;382 cm   \P}
 73
     1
 44
1.0
  0
ARC
  5
D9
330
1F
100
AcDbEntity
  8
Station 7
 62
     7
370
     9
100
AcDbCircle
 10
10.74266793790336
 20
76.38644059645141
 30
0.0
 40
27.56705491060378
100
AcDbArc
 50
282.2300662835888
 51
298.2828580654576
  0
LINE
  5
DA
330
1F
100
AcDbEntity
  8
Station 7
 62
     7
370
     9
100
AcDbLine
 10
0.9153119604351234
 20
46.41766324507511
 30
0.0
 11
15.33678965550032
 21
49.19747616070747
 31
0.0
  0
LINE
  5
DB
330
1F
100
AcDbEntity
  8
Station 7
 62
     7
370
     9
100
AcDbLine
 10
14.96031240663549
 20
40.11766324507509
 30
0.0
 11
24.84860492341684
 21
52.01171376262374
 31
0.0
  0
CIRCLE
  5
DC
330
1F
100
AcDbEntity
  8
Centers
 62
     7
370
     9
100
AcDbCircle
 10
-15.96031196043512
 20
49.31766324507511
 30
0.0
 40
0.0199999999999996
210
0.0
220
0.0
230
-1.0
  0
CIRCLE
  5
DD
330
1F
100
AcDbEntity
  8
Station 7
 62
     7
370
     9
100
AcDbCircle
 10
-18.62229022279925
 20
63.53940702310749
 30
0.0
 40
0.634999999999998
210
0.0
220
0.0
230
-1.0
  0
CIRCLE
  5
DE
330
1F
100
AcDbEntity
  8
Station 7
 62
     7
370
     9
100
AcDbCircle
 10
-24.38349378672761
 20
71.49499251839964
 30
0.0
 40
0.634999999999998
210
0.0
220
0.0
230
-1.0
  0
CIRCLE
  5
DF
330
1F
100
AcDbEntity
  8
Station 7
 62
     7
370
     9
100
AcDbCircle
 10
-16.97568071428745
 20
82.30790625
 30
0.0
 40
0.0199999999999996
210
0.0
220
0.0
230
-1.0
  0
CIRCLE
  5
E0
330
1F
100
AcDbEntity
  8
Station 7
 62
     7
370
     9
100
AcDbCircle
 10
-29.26031196043512
 20
64.91766324507512
 30
0.0
 40
0.5100000000000016
210
0.0
220
0.0
230
-1.0
  0
CIRCLE
  5
E1
330
1F
100
AcDbEntity
  8
Centers
 62
     7
370
     9
100
AcDbCircle
 10
-24.38349378672761
 20
71.49499251839964
 30
0.0
 40
0.0199999999999996
210
0.0
220
0.0
230
-1.0
  0
CIRCLE
  5
E2
330
1F
100
AcDbEntity
  8
Station 7.5
 62
     7
370
     9
100
AcDbCircle
 10
-22.83016780917243
 20
18.65328199254176
 30
0.0
 40
0.634999999999998
210
0.0
220
0.0
230
-1.0
  0
CIRCLE
  5
E3
330
1F
100
AcDbEntity
  8
Station 7.5
 62
     7
370
     9
100
AcDbCircle
 10
-17.66239409398563
 20
10.98013389858521
 30
0.0
 40
0.6350000000000016
210
0.0
220
0.0
230
-1.0
  0
CIRCLE
  5
E4
330
1F
100
AcDbEntity
  8
Station 7.5
 62
     7
370
     9
100
AcDbCircle
 10
-31.78149008939754
 20
21.66407902801905
 30
0.0
 40
0.9549999999999983
210
0.0
220
0.0
230
-1.0
  0
CIRCLE
  5
E5
330
1F
100
AcDbEntity
  8
Station 7.5
 62
     7
370
     9
100
AcDbCircle
 10
-23.21231853886068
 20
5.763333498906244
 30
0.0
 40
0.634999999999998
210
0.0
220
0.0
230
-1.0
  0
CIRCLE
  5
E6
330
1F
100
AcDbEntity
  8
Station 7.5
 62
     7
370
     9
100
AcDbCircle
 10
-27.93849812201082
 20
12.24163947148094
 30
0.0
 40
0.6350000000000016
210
0.0
220
0.0
230
-1.0
  0
CIRCLE
  5
E7
330
1F
100
AcDbEntity
  8
Station 7.5
 62
     7
370
     9
100
AcDbCircle
 10
-15.07326229975821
 20
2.726271868097755
 30
0.0
 40
0.6349999999999998
210
0.0
220
0.0
230
-1.0
  0
LINE
  5
E8
330
1F
100
AcDbEntity
  8
Station 7.5
 62
     7
370
     9
100
AcDbLine
 10
30.90296786471157
 20
22.03854358005677
 30
0.0
 11
29.2276720856083
 21
21.47505414158413
 31
0.0
  0
LINE
  5
E9
330
1F
100
AcDbEntity
  8
Station 7.5
 62
     7
370
     9
100
AcDbLine
 10
22.51693335355184
 20
7.866510024491313
 30
0.0
 11
27.41360434385798
 21
14.84080344617459
 31
0.0
  0
LINE
  5
EA
330
1F
100
AcDbEntity
  8
Station 7.5
 62
     7
370
     9
100
AcDbLine
 10
23.61562028051758
 20
7.221193352308289
 30
0.0
 11
28.45314554674912
 21
14.11124594279201
 31
0.0
  0
LINE
  5
EB
330
1F
100
AcDbEntity
  8
Station 7.5
 62
     7
370
     9
100
AcDbLine
 10
25.49938573173511
 20
25.36651145158142
 30
0.0
 11
19.1900780313394
 21
28.31606849751388
 31
0.0
  0
LINE
  5
EC
330
1F
100
AcDbEntity
  8
Station 7.5
 62
     7
370
     9
100
AcDbLine
 10
31.30784617818218
 20
20.83481040726423
 30
0.0
 11
29.62611010530268
 21
20.26915476174394
 31
0.0
  0
LINE
  5
ED
330
1F
100
AcDbEntity
  8
Station 7.5
 62
     7
370
     9
100
AcDbLine
 10
18.43924845466804
 20
5.264752827438579
 30
0.0
 11
1.079610899280367
 21
2.15613956184789
 31
0.0
  0
LINE
  5
EE
330
1F
100
AcDbEntity
  8
Station 7.5
 62
     7
370
     9
100
AcDbLine
 10
18.66407124709324
 20
4.014810561052127
 30
0.0
 11
1.303470151608936
 21
0.9060247530614748
 31
0.0
  0
CIRCLE
  5
EF
330
1F
100
AcDbEntity
  8
Centers
 62
     7
370
     9
100
AcDbCircle
 10
-31.78149008939754
 20
21.66407902801905
 30
0.0
 40
0.8299999999999983
210
0.0
220
0.0
230
-1.0
  0
CIRCLE
  5
F0
330
1F
100
AcDbEntity
  8
Centers
 62
     7
370
     9
100
AcDbCircle
 10
-27.93849812201082
 20
12.24163947148094
 30
0.0
 40
0.5100000000000016
210
0.0
220
0.0
230
-1.0
  0
CIRCLE
  5
F1
330
1F
100
AcDbEntity
  8
Centers
 62
     7
370
     9
100
AcDbCircle
 10
-15.07326229975821
 20
2.726271868097755
 30
0.0
 40
0.509999999999998
210
0.0
220
0.0
230
-1.0
  0
SPLINE
  5
F2
330
1F
100
AcDbEntity
  8
Layer1
 62
     7
370
     9
100
AcDbSpline
210
0.0
220
0.0
230
1.0
 70
     8
 71
     3
 72
     9
 73
     5
 74
     0
 42
0.000000001
 43
0.0
 40
0.0
 40
0.0
 40
0.0
 40
0.0
 40
0.5012651802636477
 40
1.0
 40
1.0
 40
1.0
 40
1.0
 10
29.2276720856083
 20
21.47505414158413
 30
0.0
 10
29.0787146535555
 20
21.20191680442333
 30
0.0
 10
28.78155171881016
 20
20.65702091315646
 30
0.0
 10
29.34506594118679
 20
20.39822519672629
 30
0.0
 10
29.62611010530268
 20
20.26915476174394
 30
0.0
  0
CIRCLE
  5
F3
330
1F
100
AcDbEntity
  8
Centers
 62
     7
370
     9
100
AcDbCircle
 10
-24.36031196043512
 20
52.41766324507511
 30
0.0
 40
0.0199999999999996
210
0.0
220
0.0
230
-1.0
  0
LINE
  5
F4
330
1F
100
AcDbEntity
  8
Station 7
 62
     7
370
     9
100
AcDbLine
 10
0.8669688855843596
 20
46.11766351460731
 30
0.0
 11
19.94850021350293
 21
46.11766351460731
 31
0.0
  0
ARC
  5
F5
330
1F
100
AcDbEntity
  8
Station 7
 62
     7
370
     9
100
AcDbCircle
 10
-15.96031196043512
 20
49.31766324507511
 30
0.0
 40
0.6350000000000027
210
0.0
220
0.0
230
-1.0
100
AcDbArc
 50
168.4298450583982
 51
349.0897564003831
  0
ARC
  5
F6
330
1F
100
AcDbEntity
  8
Station 7
 62
     7
370
     9
100
AcDbCircle
 10
24.36031285283586
 20
52.4176632450751
 30
0.0
 40
0.635000000000003
100
AcDbArc
 50
208.9427312520978
 51
320.1768306881805
  0
LINE
  5
F7
330
1F
100
AcDbEntity
  8
Station 7
 62
     7
370
     9
100
AcDbLine
 10
19.55891358067393
 20
56.56807244098635
 30
0.0
 11
1.226617706167315
 21
53.47861844927441
 31
0.0
  0
CIRCLE
  5
F8
330
1F
100
AcDbEntity
  8
Station 7
 62
     7
370
     9
100
AcDbCircle
 10
29.26031285283586
 20
64.9176632450751
 30
0.0
 40
0.6350000000000016
  0
ARC
  5
F9
330
1F
100
AcDbEntity
  8
Station 7
 62
     7
370
     9
100
AcDbCircle
 10
-23.76676641178521
 20
71.34375646120209
 30
0.0
 40
7.619999999999997
210
0.0
220
0.0
230
-1.0
100
AcDbArc
 50
115.3865923189182
 51
217.0106732336031
  0
LINE
  5
FA
330
1F
100
AcDbEntity
  8
Station 7
 62
     7
370
     9
100
AcDbLine
 10
28.83496421413808
 20
67.51806864403332
 30
0.0
 11
23.36323112717862
 21
60.25964720214835
 31
0.0
  0
LINE
  5
FB
330
1F
100
AcDbEntity
  8
Station 7.5
 62
     7
370
     9
100
AcDbLine
 10
24.9058461828956
 20
24.24206021086725
 30
0.0
 11
18.65223296141597
 21
27.16558047899346
 31
0.0
  0
CIRCLE
  5
FC
330
1F
100
AcDbEntity
  8
Text
  6
Dotted_G
 62
     7
370
     9
100
AcDbCircle
 10
-19.83782804460379
 20
27.31228650883898
 30
0.0
 40
0.1999999999999993
210
0.0
220
0.0
230
-1.0
  0
CIRCLE
  5
FD
330
1F
100
AcDbEntity
  8
Text
 62
     7
370
     9
100
AcDbCircle
 10
-20.05804425330672
 20
27.20933697763011
 30
0.0
 40
0.1999999999999993
210
0.0
220
0.0
230
-1.0
  0
ELLIPSE
  5
FE
330
1F
100
AcDbEntity
  8
Text
 62
     7
370
     9
100
AcDbEllipse
 10
18.79940152433289
 20
27.80062944039889
 30
0.0
 11
0.6505004153085511
 21
0.0
 31
0.0
210
0.0
220
0.0
230
-1.0
 40
0.9756758724552484
 41
5.368600307692987
 42
8.132486389766676
  0
ELLIPSE
  5
FF
330
1F
100
AcDbEntity
  8
Text
 62
     7
370
     9
100
AcDbEllipse
 10
19.01744998508094
 20
27.69326857257325
 30
0.0
 11
0.6505004153085511
 21
0.0
 31
0.0
210
0.0
220
0.0
230
-1.0
 40
0.9756758724552484
 41
4.990893736176887
 42
8.510192961282776
  0
ELLIPSE
  5
100
330
1F
100
AcDbEntity
  8
Text
  6
Dotted_G
 62
     7
370
     9
100
AcDbEllipse
 10
18.90842575470692
 20
27.74694900648607
 30
0.0
 11
0.6505004153085511
 21
0.0
 31
0.0
210
0.0
220
0.0
230
-1.0
 40
0.9756758724552484
 41
4.71238898038469
 42
10.99557428756428
  0
CIRCLE
  5
101
330
1F
100
AcDbEntity
  8
Centers
 62
     7
370
     9
100
AcDbCircle
 10
-31.78149008939754
 20
21.66407902801905
 30
0.0
 40
0.8299999999999983
210
0.0
220
0.0
230
-1.0
  0
CIRCLE
  5
102
330
1F
100
AcDbEntity
  8
Centers
 62
     7
370
     9
100
AcDbCircle
 10
-27.93849812201082
 20
12.24163947148094
 30
0.0
 40
0.5100000000000016
210
0.0
220
0.0
230
-1.0
  0
CIRCLE
  5
103
330
1F
100
AcDbEntity
  8
Centers
 62
     7
370
     9
100
AcDbCircle
 10
-15.07326229975821
 20
2.726271868097755
 30
0.0
 40
0.509999999999998
210
0.0
220
0.0
230
-1.0
  0
CIRCLE
  5
104
330
1F
100
AcDbEntity
  8
Centers
 62
     7
370
     9
100
AcDbCircle
 10
-23.21231853886068
 20
5.763333498906244
 30
0.0
 40
0.5100000000000016
210
0.0
220
0.0
230
-1.0
  0
LINE
  5
105
330
1F
100
AcDbEntity
  8
Station 7.5
 62
     7
370
     9
100
AcDbLine
 10
22.21662091718727
 20
18.48962013087482
 30
0.0
 11
29.58242419908276
 21
13.31806892421308
 31
0.0
  0
LINE
  5
106
330
1F
100
AcDbEntity
  8
Station 7.5
 62
     7
370
     9
100
AcDbLine
 10
22.21662091718727
 20
18.48962013087482
 30
0.0
 11
26.02812129378175
 21
26.64268481117905
 31
0.0
  0
LINE
  5
107
330
1F
100
AcDbEntity
  8
Station 7.5
 62
     7
370
     9
100
AcDbLine
 10
17.32091305913369
 20
11.51549891641062
 30
0.0
 11
18.90595533229148
 21
2.65617386119097
 31
0.0
  0
LINE
  5
108
330
1F
100
AcDbEntity
  8
Station 7.5
 62
     7
370
     9
100
AcDbLine
 10
17.32091305913369
 20
11.51549891641062
 30
0.0
 11
24.68615066685454
 21
6.343142248406258
 31
0.0
  0
LINE
  5
109
330
1F
100
AcDbEntity
  8
Station 7.5
  6
Dotted_G
 62
     7
370
     5
100
AcDbLine
 10
30.87632065631339
 20
21.35962328836202
 30
0.0
 11
29.45201363818444
 21
20.88055447444325
 31
0.0
  0
CIRCLE
  5
10A
330
1F
100
AcDbEntity
  8
Centers
 62
     7
370
     9
100
AcDbCircle
 10
-23.21231853886068
 20
5.763333498906244
 30
0.0
 40
0.5100000000000016
210
0.0
220
0.0
230
-1.0
  0
CIRCLE
  5
10B
330
1F
100
AcDbEntity
  8
Centers
 62
     7
370
     9
100
AcDbCircle
 10
-18.90842575470693
 20
27.74694900648608
 30
0.0
 40
0.0199999999999996
210
0.0
220
0.0
230
-1.0
  0
CIRCLE
  5
10C
330
1F
100
AcDbEntity
  8
Centers
 62
     7
370
     9
100
AcDbCircle
 10
-20.05804425330672
 20
27.20933697763011
 30
0.0
 40
0.0199999999999996
210
0.0
220
0.0
230
-1.0
  0
CIRCLE
  5
10D
330
1F
100
AcDbEntity
  8
Centers
 62
     7
370
     9
100
AcDbCircle
 10
-19.83782804460379
 20
27.31228650883898
 30
0.0
 40
0.0199999999999996
210
0.0
220
0.0
230
-1.0
  0
CIRCLE
  5
10E
330
1F
100
AcDbEntity
  8
Centers
 62
     7
370
     9
100
AcDbCircle
 10
-22.83016780917242
 20
18.65328199254176
 30
0.0
 40
0.0199999999999996
210
0.0
220
0.0
230
-1.0
  0
CIRCLE
  5
10F
330
1F
100
AcDbEntity
  8
Centers
 62
     7
370
     9
100
AcDbCircle
 10
-31.78149008939754
 20
21.66407902801905
 30
0.0
 40
0.0199999999999996
210
0.0
220
0.0
230
-1.0
  0
CIRCLE
  5
110
330
1F
100
AcDbEntity
  8
Centers
 62
     7
370
     9
100
AcDbCircle
 10
-27.93849812201082
 20
12.24163947148094
 30
0.0
 40
0.0200000000000031
210
0.0
220
0.0
230
-1.0
  0
CIRCLE
  5
111
330
1F
100
AcDbEntity
  8
Centers
 62
     7
370
     9
100
AcDbCircle
 10
-23.21231853886068
 20
5.763333498906244
 30
0.0
 40
0.0199999999999996
210
0.0
220
0.0
230
-1.0
  0
CIRCLE
  5
112
330
1F
100
AcDbEntity
  8
Centers
 62
     7
370
     9
100
AcDbCircle
 10
-17.66239409398563
 20
10.98013389858521
 30
0.0
 40
0.0199999999999996
210
0.0
220
0.0
230
-1.0
  0
CIRCLE
  5
113
330
1F
100
AcDbEntity
  8
Centers
 62
     7
370
     9
100
AcDbCircle
 10
-15.07326229975821
 20
2.726271868097755
 30
0.0
 40
0.0199999999999996
210
0.0
220
0.0
230
-1.0
  0
CIRCLE
  5
114
330
1F
100
AcDbEntity
  8
Centers
 62
     7
370
     9
100
AcDbCircle
 10
-33.23968714716414
 20
74.6176632450751
 30
0.0
 40
0.0200000000000031
  0
CIRCLE
  5
115
330
1F
100
AcDbEntity
  8
Station 7
 62
     7
370
     9
100
AcDbCircle
 10
-33.23968714716414
 20
74.6176632450751
 30
0.0
 40
0.8300000000000054
  0
CIRCLE
  5
116
330
1F
100
AcDbEntity
  8
Station 7
 62
     7
370
     9
100
AcDbCircle
 10
-29.33968714716414
 20
64.9176632450751
 30
0.0
 40
0.5100000000000016
  0
CIRCLE
  5
117
330
1F
100
AcDbEntity
  8
Station 7
 62
     7
370
     9
100
AcDbCircle
 10
-24.43968714716414
 20
58.4176632450751
 30
0.0
 40
0.5100000000000016
  0
CIRCLE
  5
118
330
1F
100
AcDbEntity
  8
Station 7
 62
     7
370
     9
100
AcDbCircle
 10
-16.03968714716414
 20
55.3176632450751
 30
0.0
 40
0.5099999999999998
  0
CIRCLE
  5
119
330
1F
100
AcDbEntity
  8
Station 7
 62
     7
370
     9
100
AcDbCircle
 10
-17.05505590101647
 20
82.30790625
 30
0.0
 40
0.0199999999999996
  0
CIRCLE
  5
11A
330
1F
100
AcDbEntity
  8
Station 7
 62
     7
370
     9
100
AcDbCircle
 10
-24.46286897345662
 20
71.49499251839963
 30
0.0
 40
0.6350000000000016
  0
CIRCLE
  5
11B
330
1F
100
AcDbEntity
  8
Station 7
 62
     7
370
     9
100
AcDbCircle
 10
-18.70166540952827
 20
63.53940702310749
 30
0.0
 40
0.634999999999998
  0
LINE
  5
11C
330
1F
100
AcDbEntity
  8
Station 7
 62
     7
370
     9
100
AcDbLine
 10
-19.42723777259754
 20
57.82041324028648
 30
0.0
 11
-1.094942567391488
 21
54.73095936136854
 31
0.0
  0
LINE
  5
11D
330
1F
100
AcDbEntity
  8
Station 7
 62
     7
370
     9
100
AcDbLine
 10
-32.78050592398033
 20
73.78029976111164
 30
0.0
 11
-31.22939205629406
 21
73.22843486286479
 31
0.0
  0
LINE
  5
11E
330
1F
100
AcDbEntity
  8
Station 7
 62
     7
370
     9
100
AcDbLine
 10
-28.91433940086709
 20
67.51806864403332
 30
0.0
 11
-23.44260631390763
 21
60.25964720214835
 31
0.0
  0
LINE
  5
11F
330
1F
100
AcDbEntity
  8
Station 7
 62
     7
370
     9
100
AcDbLine
 10
-29.93088981691869
 20
66.75679241963564
 30
0.0
 11
-24.45673101697504
 21
59.49515319522059
 31
0.0
  0
SPLINE
  5
120
330
1F
100
AcDbEntity
  8
Layer1
 62
     7
370
     9
100
AcDbSpline
210
0.0
220
0.0
230
1.0
 70
     8
 71
     3
 72
     9
 73
     5
 74
     0
 42
0.000000001
 43
0.0
 40
0.0
 40
0.0
 40
0.0
 40
0.0
 40
0.5020006087372534
 40
1.0
 40
1.0
 40
1.0
 40
1.0
 10
-30.81380795012831
 20
74.42856206489658
 30
0.0
 10
-30.66873194905533
 20
74.15273472201709
 30
0.0
 10
-30.37973628142474
 20
73.60327852997519
 30
0.0
 10
-30.94692995308111
 20
73.35304901099359
 30
0.0
 10
-31.22939205629406
 20
73.22843486286479
 30
0.0
  0
MTEXT
  5
121
330
1F
100
AcDbEntity
  8
Layer1
 62
     7
370
     9
100
AcDbMText
 10
-39.73188952380952
 20
76.01876041666667
 30
0.0
 40
0.635
 41
15.5575
 46
0.0
 71
     1
 72
     1
  1
{\C7;\l\Fplotter|b0|i0|c00|p34;\H1.00x;Scale 1:1 \P}
 11
0.0
 21
1.0
 31
0.0
 73
     1
 44
1.0
  0
MTEXT
  5
122
330
1F
100
AcDbEntity
  8
Layer1
 62
     7
370
     9
100
AcDbMText
 10
-39.67141333333333
 20
28.35407291666662
 30
0.0
 40
0.635
 41
20.8915
 46
0.0
 71
     1
 72
     1
  1
{\C7;\l\Fplotter|b0|i0|c00|p34;—STATIONS 7 & 7.5—\P}
 11
0.0
 21
1.0
 31
0.0
 73
     1
 44
1.0
  0
MTEXT
  5
123
330
1F
100
AcDbEntity
  8
Layer1
 62
     7
370
     9
100
AcDbMText
 10
-39.67141333333333
 20
28.3540729166666
 30
0.0
 40
0.635
 41
20.8915
 46
0.0
 71
     1
 72
     1
  1
{\C7;\l\Fplotter|b0|i0|c00|p34;—Stations 7 & 7.5—\P}
 11
0.0
 21
1.0
 31
0.0
 73
     1
 44
1.0
  0
MTEXT
  5
124
330
1F
100
AcDbEntity
  8
Layer1
 62
     7
370
     9
100
AcDbMText
 10
-39.73188952380952
 20
76.01876041666664
 30
0.0
 40
0.635
 41
15.5575
 46
0.0
 71
     1
 72
     1
  1
{\C7;\l\Fplotter|b0|i0|c00|p34;Scale 1:1 \P}
 11
0.0
 21
1.0
 31
0.0
 73
     1
 44
1.0
  0
MTEXT
  5
125
330
1F
100
AcDbEntity
  8
Text
 62
     7
370
     9
100
AcDbMText
 10
-19.81620873356528
 20
47.77267860044321
 30
0.0
 40
0.4233333459496498
 41
6.963275029618547
 46
0.0
 71
     1
 72
     1
  1
{\C7;\l\Fplotter|b0|i0|c00|p34;\H1.00x;   Station 7\P}
 73
     1
 44
1.0
  0
MTEXT
  5
126
330
1F
100
AcDbEntity
  8
Station 7.5
 62
     7
370
     9
100
AcDbMText
 10
12.45724479166667
 20
-1.226352649556787
 30
0.0
 40
0.4233333459496498
 41
6.887196191596269
 46
0.0
 71
     1
 72
     1
  1
{\C7;\l\Fplotter|b0|i0|c00|p34;410.5 cm   \P}
 73
     1
 44
1.0
  0
MTEXT
  5
127
330
1F
100
AcDbEntity
  8
Station 7.5
 62
     7
370
     9
100
AcDbMText
 10
1.339600324982148
 20
1.905089711755572
 30
0.0
 40
0.4233333459496498
 41
5.060370471320529
 46
0.0
 71
     1
 72
     1
  1
{\C7;\l\Fplotter|b0|i0|c00|p34;  -107.3 cm-\P}
 11
0.9843423062084409
 21
0.1762674791566728
 31
0.0
 73
     1
 44
1.0
  0
ARC
  5
128
330
1F
100
AcDbEntity
  8
Station 7.5
 62
     7
370
     9
100
AcDbCircle
 10
-22.21662091718727
 20
18.48962013087482
 30
0.0
 40
7.620247966073221
210
0.0
220
0.0
230
-1.0
100
AcDbArc
 50
115.5180241884097
 51
215.0709098958452
  0
ARC
  5
129
330
1F
100
AcDbEntity
  8
Station 7.5
 62
     7
370
     9
100
AcDbCircle
 10
-22.21662091718727
 20
18.48962013087482
 30
0.0
 40
6.349999953041524
210
0.0
220
0.0
230
-1.0
100
AcDbArc
 50
115.0557580244417
 51
215.0728009652227
  0
ARC
  5
12A
330
1F
100
AcDbEntity
  8
Station 7.5
 62
     7
370
     9
100
AcDbCircle
 10
-17.32091305913369
 20
11.51549891641062
 30
0.0
 40
6.349310736871816
210
0.0
220
0.0
230
-1.0
100
AcDbArc
 50
215.079066918581
 51
259.8564021855232
  0
ARC
  5
12B
330
1F
100
AcDbEntity
  8
Station 7.5
 62
     7
370
     9
100
AcDbCircle
 10
-17.32091305913369
 20
11.51549891641062
 30
0.0
 40
7.619999952809883
210
0.0
220
0.0
230
-1.0
100
AcDbArc
 50
214.3021580873808
 51
259.8475740013614
  0
MTEXT
  5
12C
330
1F
100
AcDbEntity
  8
Text
 62
     7
370
     9
100
AcDbMText
 10
1.272973277083482
 20
54.47726124707557
 30
0.0
 40
0.4233333459496498
 41
6.324508547179403
 46
0.0
 71
     1
 72
     1
  1
{\C7;\l\Fplotter|b0|i0|c00|p34;  -118.2 cm-\P}
 11
0.9860951175591464
 21
0.16618188567354
 31
0.0
 73
     1
 44
1.0
  0
CIRCLE
  5
12D
330
1F
100
AcDbEntity
  8
Station 7
 62
     7
370
     9
100
AcDbCircle
 10
-33.23968714716414
 20
74.6176632450751
 30
0.0
 40
0.9550000000000054
  0
LINE
  5
12E
330
1F
100
AcDbEntity
  8
Station 7
 62
     7
370
     9
100
AcDbLine
 10
-26.5661115952433
 20
77.07735500828682
 30
0.0
 11
-16.73162196915238
 21
81.76144903143762
 31
0.0
  0
CIRCLE
  5
12F
330
1F
100
AcDbEntity
  8
Station 7
 62
     7
370
     9
100
AcDbCircle
 10
-29.33968714716414
 20
64.9176632450751
 30
0.0
 40
0.6350000000000016
  0
CIRCLE
  5
130
330
1F
100
AcDbEntity
  8
Station 7
 62
     7
370
     9
100
AcDbCircle
 10
-24.43968714716414
 20
58.4176632450751
 30
0.0
 40
0.6350000000000016
  0
LINE
  5
131
330
1F
100
AcDbEntity
  8
Station 7
 62
     7
370
     9
100
AcDbLine
 10
-19.63828876740294
 20
56.56807244098635
 30
0.0
 11
-1.305992892896332
 21
53.47861844927441
 31
0.0
  0
ARC
  5
132
330
1F
100
AcDbEntity
  8
Station 7
 62
     7
370
     9
100
AcDbCircle
 10
-23.84614159851422
 20
71.34375646120209
 30
0.0
 40
7.619999999999997
100
AcDbArc
 50
115.3865923189182
 51
217.0106732336031
  0
CIRCLE
  5
133
330
1F
100
AcDbEntity
  8
Station 7
 62
     7
370
     9
100
AcDbCircle
 10
-16.03968714716414
 20
55.3176632450751
 30
0.0
 40
0.6349999999999998
  0
LINE
  5
134
330
1F
100
AcDbEntity
  8
Station 7
 62
     7
370
     9
100
AcDbLine
 10
-27.11348776460459
 20
78.22771215803711
 30
0.0
 11
-17.32776678642226
 21
82.88136398425877
 31
0.0
  0
CIRCLE
  5
135
330
1F
100
AcDbEntity
  8
Station 7
  6
Dotted_G
 62
     7
370
     9
100
AcDbCircle
 10
-17.82764134008381
 20
81.9404991220588
 30
0.0
 40
0.1999999999999993
  0
CIRCLE
  5
136
330
1F
100
AcDbEntity
  8
Station 7
 62
     7
370
     9
100
AcDbCircle
 10
-18.44113940132948
 20
81.64874684550557
 30
0.0
 40
0.1999999999999993
  0
ELLIPSE
  5
137
330
1F
100
AcDbEntity
  8
Station 7
 62
     7
370
     9
100
AcDbEllipse
 10
-16.74830687039363
 20
82.45378238827661
 30
0.0
 11
-0.7113137718988023
 21
0.0
 31
0.0
210
0.0
220
0.0
230
-1.0
 40
0.8927143337952139
 41
4.733420886107774
 42
6.854010307519999
  0
ELLIPSE
  5
138
330
1F
100
AcDbEntity
  8
Station 7
 62
     7
370
     9
100
AcDbEllipse
 10
-17.36180493163931
 20
82.1620301117234
 30
0.0
 11
-0.7113137718988023
 21
0.0
 31
0.0
210
0.0
220
0.0
230
-1.0
 40
0.8927143337952139
 41
3.712417653930217
 42
7.875013539697569
  0
ELLIPSE
  5
139
330
1F
100
AcDbEntity
  8
Station 7
  6
Dotted_G
 62
     7
370
     9
100
AcDbEllipse
 10
-17.05505590101647
 20
82.30790625
 30
0.0
 11
-0.7113137718988023
 21
0.0
 31
0.0
210
0.0
220
0.0
230
-1.0
 40
0.8927143337952139
 41
4.71238898038469
 42
10.99557428756428
  0
LINE
  5
13A
330
1F
100
AcDbEntity
  8
Station 7
 62
     7
370
     9
100
AcDbLine
 10
-23.84371588553003
 20
71.34053867867202
 30
0.0
 11
-27.70222948984804
 21
79.47145946080322
 31
0.0
  0
LINE
  5
13B
330
1F
100
AcDbEntity
  8
Station 7
 62
     7
370
     9
100
AcDbLine
 10
-18.37198279857057
 20
64.08211723678706
 30
0.0
 11
-25.55869329274908
 21
58.66444317194479
 31
0.0
  0
LINE
  5
13C
330
1F
100
AcDbEntity
  8
Station 7
 62
     7
370
     9
100
AcDbLine
 10
-23.84371588553003
 20
71.34053867867202
 30
0.0
 11
-31.03042637970854
 21
65.92286461382976
 31
0.0
  0
LINE
  5
13D
330
1F
100
AcDbEntity
  8
Station 7
 62
     7
370
     9
100
AcDbLine
 10
-18.37198279857057
 20
64.08211723678706
 30
0.0
 11
-19.86761976963242
 21
55.20726117875473
 31
0.0
  0
LINE
  5
13E
330
1F
100
AcDbEntity
  8
Station 7
  6
Dotted_G
 62
     7
370
     5
100
AcDbLine
 10
-32.33993763948747
 20
74.29754479288029
 30
0.0
 11
-31.04657372748814
 21
73.8373837701719
 31
0.0
  0
CIRCLE
  5
13F
330
1F
100
AcDbEntity
  8
Centers
 62
     7
370
     9
100
AcDbCircle
 10
-17.82764134008381
 20
81.9404991220588
 30
0.0
 40
0.0199999999999996
  0
CIRCLE
  5
140
330
1F
100
AcDbEntity
  8
Centers
 62
     7
370
     9
100
AcDbCircle
 10
-18.44113940132948
 20
81.64874684550557
 30
0.0
 40
0.0199999999999996
  0
CIRCLE
  5
141
330
1F
100
AcDbEntity
  8
Centers
 62
     7
370
     9
100
AcDbCircle
 10
-16.03968714716414
 20
55.3176632450751
 30
0.0
 40
0.0199999999999996
  0
CIRCLE
  5
142
330
1F
100
AcDbEntity
  8
Centers
 62
     7
370
     9
100
AcDbCircle
 10
-24.43968714716414
 20
58.4176632450751
 30
0.0
 40
0.0199999999999996
  0
CIRCLE
  5
143
330
1F
100
AcDbEntity
  8
Centers
 62
     7
370
     9
100
AcDbCircle
 10
-18.70166540952827
 20
63.53940702310749
 30
0.0
 40
0.0199999999999996
  0
CIRCLE
  5
144
330
1F
100
AcDbEntity
  8
Centers
 62
     7
370
     9
100
AcDbCircle
 10
-29.33968714716414
 20
64.9176632450751
 30
0.0
 40
0.0200000000000031
  0
CIRCLE
  5
145
330
1F
100
AcDbEntity
  8
Centers
 62
     7
370
     9
100
AcDbCircle
 10
-24.46286897345662
 20
71.49499251839963
 30
0.0
 40
0.0199999999999996
  0
LINE
  5
146
330
1F
100
AcDbEntity
  8
Station 7.5
 62
     7
370
     9
100
AcDbLine
 10
-25.57876091846412
 20
25.36651145158142
 30
0.0
 11
-19.26945321806842
 21
28.31606849751388
 31
0.0
  0
LINE
  5
147
330
1F
100
AcDbEntity
  8
Station 7.5
 62
     7
370
     9
100
AcDbLine
 10
-23.69499546724659
 20
7.221193352308289
 30
0.0
 11
-28.53252073347813
 21
14.11124594279201
 31
0.0
  0
LINE
  5
148
330
1F
100
AcDbEntity
  8
Station 7.5
 62
     7
370
     9
100
AcDbLine
 10
-30.98234305144058
 20
22.03854358005677
 30
0.0
 11
-29.30704727233732
 21
21.47505414158413
 31
0.0
  0
CIRCLE
  5
149
330
1F
100
AcDbEntity
  8
Station 7.5
 62
     7
370
     9
100
AcDbCircle
 10
-31.86086527612655
 20
21.66407902801905
 30
0.0
 40
0.9549999999999983
  0
CIRCLE
  5
14A
330
1F
100
AcDbEntity
  8
Centers
 62
     7
370
     9
100
AcDbCircle
 10
-15.15263748648722
 20
2.726271868097755
 30
0.0
 40
0.0199999999999996
  0
CIRCLE
  5
14B
330
1F
100
AcDbEntity
  8
Centers
 62
     7
370
     9
100
AcDbCircle
 10
-17.74176928071465
 20
10.98013389858521
 30
0.0
 40
0.0199999999999996
  0
CIRCLE
  5
14C
330
1F
100
AcDbEntity
  8
Centers
 62
     7
370
     9
100
AcDbCircle
 10
-23.2916937255897
 20
5.763333498906244
 30
0.0
 40
0.0199999999999996
  0
CIRCLE
  5
14D
330
1F
100
AcDbEntity
  8
Centers
 62
     7
370
     9
100
AcDbCircle
 10
-28.01787330873983
 20
12.24163947148094
 30
0.0
 40
0.0199999999999996
  0
CIRCLE
  5
14E
330
1F
100
AcDbEntity
  8
Centers
 62
     7
370
     9
100
AcDbCircle
 10
-31.86086527612655
 20
21.66407902801905
 30
0.0
 40
0.0199999999999996
  0
SPLINE
  5
14F
330
1F
100
AcDbEntity
  8
Layer1
 62
     7
370
     9
100
AcDbSpline
210
0.0
220
0.0
230
1.0
 70
     8
 71
     3
 72
     9
 73
     5
 74
     0
 42
0.000000001
 43
0.0
 40
0.0
 40
0.0
 40
0.0
 40
0.0
 40
0.5012651802636477
 40
1.0
 40
1.0
 40
1.0
 40
1.0
 10
-29.30704727233732
 20
21.47505414158413
 30
0.0
 10
-29.15808984028452
 20
21.20191680442333
 30
0.0
 10
-28.86092690553917
 20
20.65702091315647
 30
0.0
 10
-29.42444112791581
 20
20.39822519672629
 30
0.0
 10
-29.70548529203169
 20
20.26915476174395
 30
0.0
  0
ARC
  5
150
330
1F
100
AcDbEntity
  8
Station 7
 62
     7
370
     9
100
AcDbCircle
 10
10.82204312463238
 20
76.38644059645141
 30
0.0
 40
27.56705491060378
210
0.0
220
0.0
230
-1.0
100
AcDbArc
 50
282.2300662835888
 51
298.2828580654576
  0
CIRCLE
  5
151
330
1F
100
AcDbEntity
  8
Centers
 62
     7
370
     9
100
AcDbCircle
 10
-24.43968714716414
 20
52.4176632450751
 30
0.0
 40
0.0199999999999996
  0
CIRCLE
  5
152
330
1F
100
AcDbEntity
  8
Centers
 62
     7
370
     9
100
AcDbCircle
 10
-16.03968714716414
 20
49.3176632450751
 30
0.0
 40
0.0199999999999996
  0
CIRCLE
  5
153
330
1F
100
AcDbEntity
  8
Plan
 62
     7
370
     9
100
AcDbCircle
 10
-16.1925
 20
48.1376632450751
 30
0.0
 40
0.1600000000000001
  0
CIRCLE
  5
154
330
1F
100
AcDbEntity
  8
Plan
 62
     7
370
     9
100
AcDbCircle
 10
-23.65375
 20
51.3920382450751
 30
0.0
 40
0.1599999999999966
  0
MTEXT
  5
155
330
1F
100
AcDbEntity
  8
Station 7
 62
     7
370
     9
100
AcDbMText
 10
-19.81620873356528
 20
45.97986056957099
 30
0.0
 40
0.4233333459496498
 41
6.749706670243545
 46
0.0
 71
     1
 72
     1
  1
{\C7;\l\Fplotter|b0|i0|c00|p34;   Station 7\P}
 73
     1
 44
1.0
  0
LINE
  5
156
330
1F
100
AcDbEntity
  8
Station 7
 62
     7
370
     9
100
AcDbLine
 10
-15.03968759336451
 20
40.11766324507509
 30
0.0
 11
-24.92798011014586
 21
52.01171376262374
 31
0.0
  0
LINE
  5
157
330
1F
100
AcDbEntity
  8
Station 7
 62
     7
370
     9
100
AcDbLine
 10
-0.9946871471641398
 20
46.41766324507511
 30
0.0
 11
-15.41616484222934
 21
49.19747616070747
 31
0.0
  0
LINE
  5
158
330
1F
100
AcDbEntity
  8
Station 7
 62
     7
370
     9
100
AcDbLine
 10
-20.02787540023195
 20
46.11766351460731
 30
0.0
 11
-0.946343179912635
 21
46.11766351460731
 31
0.0
  0
ARC
  5
159
330
1F
100
AcDbEntity
  8
Station 7
 62
     7
370
     9
100
AcDbCircle
 10
-24.43968714716414
 20
52.4176632450751
 30
0.0
 40
0.6350000000000031
100
AcDbArc
 50
219.7389328648203
 51
331.0572305925564
  0
ARC
  5
15A
330
1F
100
AcDbEntity
  8
Station 7
 62
     7
370
     9
100
AcDbCircle
 10
-16.03968714716414
 20
49.3176632450751
 30
0.0
 40
0.6350000000000006
100
AcDbArc
 50
168.4298450583975
 51
349.0897564003837
  0
ARC
  5
15B
330
1F
100
AcDbEntity
  8
Station 7
 62
     7
370
     9
100
AcDbCircle
 10
-18.37198279857057
 20
64.08211723678706
 30
0.0
 40
7.620000000000008
100
AcDbArc
 50
217.0106732336032
 51
260.4341005128774
  0
ARC
  5
15C
330
1F
100
AcDbEntity
  8
Station 7
 62
     7
370
     9
100
AcDbCircle
 10
-18.37198279857058
 20
64.08211723678706
 30
0.0
 40
6.349999999999995
100
AcDbArc
 50
217.0106732336031
 51
260.4341005128774
  0
LINE
  5
15D
330
1F
100
AcDbEntity
  8
Station 7
 62
     7
370
     9
100
AcDbLine
 10
-32.35479866294637
 20
74.97682528440941
 30
0.0
 11
-30.8138079501283
 21
74.42856206489657
 31
0.0
  0
ARC
  5
15E
330
1F
100
AcDbEntity
  8
Station 7
 62
     7
370
     9
100
AcDbCircle
 10
-23.84371588553003
 20
71.34053867867202
 30
0.0
 40
6.350000000000015
100
AcDbArc
 50
115.386592318918
 51
217.010673233603
  0
ELLIPSE
  5
15F
330
1F
100
AcDbEntity
  8
Text
 62
     7
370
     9
100
AcDbEllipse
 10
-18.87877671106191
 20
27.8006294403989
 30
0.0
 11
-0.6505004153085511
 21
0.0
 31
0.0
210
0.0
220
0.0
230
1.0
 40
0.9756758724552484
 41
5.368600307692987
 42
8.132486389766676
  0
CIRCLE
  5
160
330
1F
100
AcDbEntity
  8
Text
 62
     7
370
     9
100
AcDbCircle
 10
-20.13741944003574
 20
27.20933697763011
 30
0.0
 40
0.1999999999999993
  0
CIRCLE
  5
161
330
1F
100
AcDbEntity
  8
Text
  6
Dotted_G
 62
     7
370
     9
100
AcDbCircle
 10
-19.91720323133281
 20
27.31228650883898
 30
0.0
 40
0.1999999999999993
  0
LINE
  5
162
330
1F
100
AcDbEntity
  8
Station 7.5
 62
     7
370
     9
100
AcDbLine
 10
-22.29599610391629
 20
18.48962013087482
 30
0.0
 11
-26.10749648051076
 21
26.64268481117905
 31
0.0
  0
LINE
  5
163
330
1F
100
AcDbEntity
  8
Station 7.5
 62
     7
370
     9
100
AcDbLine
 10
-17.40028824586271
 20
11.51549891641062
 30
0.0
 11
-24.76552585358355
 21
6.343142248406258
 31
0.0
  0
LINE
  5
164
330
1F
100
AcDbEntity
  8
Station 7.5
 62
     7
370
     9
100
AcDbLine
 10
-17.40028824586271
 20
11.51549891641062
 30
0.0
 11
-18.98533051902049
 21
2.65617386119097
 31
0.0
  0
LINE
  5
165
330
1F
100
AcDbEntity
  8
Station 7.5
 62
     7
370
     9
100
AcDbLine
 10
-22.29599610391629
 20
18.48962013087482
 30
0.0
 11
-29.66179938581178
 21
13.31806892421308
 31
0.0
  0
LINE
  5
166
330
1F
100
AcDbEntity
  8
Station 7.5
  6
Dotted_G
 62
     7
370
     5
100
AcDbLine
 10
-30.9556958430424
 20
21.35962328836202
 30
0.0
 11
-29.53138882491346
 21
20.88055447444325
 31
0.0
  0
CIRCLE
  5
167
330
1F
100
AcDbEntity
  8
Centers
 62
     7
370
     9
100
AcDbCircle
 10
-22.90954299590144
 20
18.65328199254176
 30
0.0
 40
0.0199999999999996
  0
CIRCLE
  5
168
330
1F
100
AcDbEntity
  8
Centers
 62
     7
370
     9
100
AcDbCircle
 10
-19.91720323133281
 20
27.31228650883898
 30
0.0
 40
0.0199999999999996
  0
CIRCLE
  5
169
330
1F
100
AcDbEntity
  8
Centers
 62
     7
370
     9
100
AcDbCircle
 10
-20.13741944003574
 20
27.20933697763011
 30
0.0
 40
0.0199999999999996
  0
CIRCLE
  5
16A
330
1F
100
AcDbEntity
  8
Centers
 62
     7
370
     9
100
AcDbCircle
 10
-18.98780094143594
 20
27.74694900648608
 30
0.0
 40
0.0199999999999996
  0
CIRCLE
  5
16B
330
1F
100
AcDbEntity
  8
Centers
 62
     7
370
     9
100
AcDbCircle
 10
-23.2916937255897
 20
5.763333498906244
 30
0.0
 40
0.5100000000000016
  0
CIRCLE
  5
16C
330
1F
100
AcDbEntity
  8
Centers
 62
     7
370
     9
100
AcDbCircle
 10
-15.15263748648722
 20
2.726271868097755
 30
0.0
 40
0.5099999999999998
  0
CIRCLE
  5
16D
330
1F
100
AcDbEntity
  8
Centers
 62
     7
370
     9
100
AcDbCircle
 10
-28.01787330873983
 20
12.24163947148094
 30
0.0
 40
0.509999999999998
  0
CIRCLE
  5
16E
330
1F
100
AcDbEntity
  8
Centers
 62
     7
370
     9
100
AcDbCircle
 10
-31.86086527612655
 20
21.66407902801905
 30
0.0
 40
0.8300000000000018
  0
CIRCLE
  5
16F
330
1F
100
AcDbEntity
  8
Station 7.5
 62
     7
370
     9
100
AcDbCircle
 10
-22.90954299590144
 20
18.65328199254176
 30
0.0
 40
0.634999999999998
  0
CIRCLE
  5
170
330
1F
100
AcDbEntity
  8
Station 7.5
 62
     7
370
     9
100
AcDbCircle
 10
-17.74176928071465
 20
10.98013389858521
 30
0.0
 40
0.6350000000000016
  0
LINE
  5
171
330
1F
100
AcDbEntity
  8
Station 7.5
 62
     7
370
     9
100
AcDbLine
 10
-31.38722136491119
 20
20.83481040726423
 30
0.0
 11
-29.70548529203169
 21
20.26915476174394
 31
0.0
  0
LINE
  5
172
330
1F
100
AcDbEntity
  8
Station 7.5
 62
     7
370
     9
100
AcDbLine
 10
-24.98522136962461
 20
24.24206021086725
 30
0.0
 11
-18.73160814814498
 21
27.16558047899346
 31
0.0
  0
LINE
  5
173
330
1F
100
AcDbEntity
  8
Station 7.5
 62
     7
370
     9
100
AcDbLine
 10
-18.74344643382225
 20
4.014810561052127
 30
0.0
 11
-1.382845338337953
 21
0.9060247530614748
 31
0.0
  0
CIRCLE
  5
174
330
1F
100
AcDbEntity
  8
Station 7.5
 62
     7
370
     9
100
AcDbCircle
 10
-28.01787330873983
 20
12.24163947148094
 30
0.0
 40
0.634999999999998
  0
LINE
  5
175
330
1F
100
AcDbEntity
  8
Station 7.5
 62
     7
370
     9
100
AcDbLine
 10
-18.51862364139705
 20
5.264752827438579
 30
0.0
 11
-1.158986086009379
 21
2.15613956184789
 31
0.0
  0
CIRCLE
  5
176
330
1F
100
AcDbEntity
  8
Station 7.5
 62
     7
370
     9
100
AcDbCircle
 10
-23.2916937255897
 20
5.763333498906244
 30
0.0
 40
0.634999999999998
  0
CIRCLE
  5
177
330
1F
100
AcDbEntity
  8
Station 7.5
 62
     7
370
     9
100
AcDbCircle
 10
-15.15263748648722
 20
2.726271868097755
 30
0.0
 40
0.6349999999999998
  0
ARC
  5
178
330
1F
100
AcDbEntity
  8
Station 7
 62
     7
370
     9
100
AcDbCircle
 10
-0.0396875933645085
 20
60.99266335786911
 30
0.0
 40
6.349999999999993
100
AcDbArc
 50
260.4341005128774
 51
279.5658994871226
  0
LINE
  5
179
330
1F
100
AcDbEntity
  8
Station 7
 62
     7
370
     9
100
AcDbLine
 10
-0.0396882626650607
 20
60.99266324507511
 30
0.0
 11
1.455948708396801
 21
52.11780718704279
 31
0.0
  0
CIRCLE
  5
17A
330
1F
100
AcDbEntity
  8
Plan
 62
     7
370
     9
100
AcDbCircle
 10
-0.0396875933645095
 20
44.11766351460731
 30
0.0
 40
0.6349999999999999
  0
LINE
  5
17B
330
1F
100
AcDbEntity
  8
Station 7
 62
     7
370
     9
100
AcDbLine
 10
-0.0396875933645082
 20
40.11766324507509
 30
0.0
 11
14.96031240663549
 21
40.11766324507509
 31
0.0
  0
ARC
  5
17C
330
1F
100
AcDbEntity
  8
Station 7
 62
     7
370
     9
100
AcDbCircle
 10
-0.03968714716414
 20
46.41766324507511
 30
0.0
 40
0.9549999999999997
100
AcDbArc
 50
180.0
 51
0.0000103514553343
  0
LINE
  5
17D
330
1F
100
AcDbEntity
  8
Layer1
 62
     7
370
     9
100
AcDbLine
 10
-40.005
 20
91.04709375
 30
0.0
 11
40.005
 21
91.04709375
 31
0.0
  0
LINE
  5
17E
330
1F
100
AcDbEntity
  8
Layer1
 62
     7
370
     9
100
AcDbLine
 10
40.005
 20
-14.36290625000001
 30
0.0
 11
-40.005
 21
-14.36290625000001
 31
0.0
  0
LINE
  5
17F
330
1F
100
AcDbEntity
  8
Construction
  6
Dotted_G
 62
     7
370
     5
100
AcDbLine
 10
40.005
 20
-17.53790625000001
 30
0.0
 11
-40.005
 21
-17.53790625000001
 31
0.0
  0
LINE
  5
180
330
1F
100
AcDbEntity
  8
Construction
  6
Dotted_G
 62
     7
370
     5
100
AcDbLine
 10
-40.005
 20
94.22209375
 30
0.0
 11
40.005
 21
94.22209375
 31
0.0
  0
MTEXT
  5
181
330
1F
100
AcDbEntity
  8
Layer1
 62
     7
370
     9
100
AcDbMText
 10
-39.67141333333333
 20
-14.15123958333333
 30
0.0
 40
0.635
 41
15.5575
 46
0.0
 71
     1
 72
     1
  1
{\C7;\l\Fplotter|b0|i0|c00|p34;\H1.00x; 6.6m TWO-HATCH BAIDARKA\P}
 11
0.0
 21
1.0
 31
0.0
 73
     1
 44
1.0
  0
LINE
  5
182
330
1F
100
AcDbEntity
  8
Layer1
 62
     7
370
     9
100
AcDbLine
 10
-40.005
 20
-14.36290625000001
 30
0.0
 11
-40.005
 21
91.04709375
 31
0.0
  0
MTEXT
  5
183
330
1F
100
AcDbEntity
  8
Layer1
 62
     7
370
     9
100
AcDbMText
 10
-39.67141333333333
 20
-14.15123958333334
 30
0.0
 40
0.635
 41
15.5575
 46
0.0
 71
     1
 72
     1
  1
{\C7;\l\Fplotter|b0|i0|c00|p34; 6.6m Two-hatch Baidarka\P}
 11
0.0
 21
1.0
 31
0.0
 73
     1
 44
1.0
  0
MTEXT
  5
184
330
1F
100
AcDbEntity
  8
Station 7
 62
     7
370
     9
100
AcDbMText
 10
-19.0958544465826
 20
-0.227321399556786
 30
0.0
 40
0.4233333459496498
 41
6.956996778286729
 46
0.0
 71
     1
 72
     1
  1
{\C7;\l\Fplotter|b0|i0|c00|p34;\H1.00x;   Station 7.5\P}
 73
     1
 44
1.0
  0
MTEXT
  5
185
330
1F
100
AcDbEntity
  8
Layer1
 62
     7
370
     9
100
AcDbMText
 10
39.00811047619048
 20
-14.15123958333333
 30
0.0
 40
0.635
 41
15.5575
 46
0.0
 71
     1
 72
     1
  1
{\C7;\l\Fplotter|b0|i0|c00|p34;\H1.00x; Sheet No. 7\P}
 11
0.0
 21
1.0
 31
0.0
 73
     1
 44
1.0
  0
LINE
  5
186
330
1F
100
AcDbEntity
  8
Layer1
 62
     7
370
     9
100
AcDbLine
 10
40.005
 20
91.04709375
 30
0.0
 11
40.005
 21
-14.36290625000001
 31
0.0
  0
MTEXT
  5
187
330
1F
100
AcDbEntity
  8
Layer1
 62
     7
370
     9
100
AcDbMText
 10
39.00811047619048
 20
-14.15123958333334
 30
0.0
 40
0.635
 41
15.5575
 46
0.0
 71
     1
 72
     1
  1
{\C7;\l\Fplotter|b0|i0|c00|p34; Sheet No. 8\P}
 11
0.0
 21
1.0
 31
0.0
 73
     1
 44
1.0
  0
MTEXT
  5
188
330
1F
100
AcDbEntity
  8
Text
 62
     7
370
     9
100
AcDbMText
 10
12.24194010416666
 20
-0.227321399556786
 30
0.0
 40
0.4233333459496498
 41
7.11326611347127
 46
0.0
 71
     1
 72
     1
  1
{\C7;\l\Fplotter|b0|i0|c00|p34;\H1.00x;410.5 cm   \P}
 73
     1
 44
1.0
  0
MTEXT
  5
189
330
1F
100
AcDbEntity
  8
Station 7.5
 62
     7
370
     9
100
AcDbMText
 10
-19.0958544465826
 20
-1.226352649556787
 30
0.0
 40
0.4233333459496498
 41
7.160147168911729
 46
0.0
 71
     1
 72
     1
  1
{\C7;\l\Fplotter|b0|i0|c00|p34;   Station 7.5\P}
 73
     1
 44
1.0
  0
ARC
  5
18A
330
1F
100
AcDbEntity
  8
Station 7.5
 62
     7
370
     9
100
AcDbCircle
 10
-17.40028824586271
 20
11.51549891641062
 30
0.0
 40
7.619999952809883
100
AcDbArc
 50
214.3021580873808
 51
259.8475740013614
  0
ARC
  5
18B
330
1F
100
AcDbEntity
  8
Station 7.5
 62
     7
370
     9
100
AcDbCircle
 10
-17.40028824586271
 20
11.51549891641062
 30
0.0
 40
6.349310736871816
100
AcDbArc
 50
215.079066918581
 51
259.8564021855232
  0
ARC
  5
18C
330
1F
100
AcDbEntity
  8
Station 7.5
 62
     7
370
     9
100
AcDbCircle
 10
-22.29599610391629
 20
18.48962013087482
 30
0.0
 40
6.349999953041524
100
AcDbArc
 50
115.0557580244417
 51
215.0728009652227
  0
ARC
  5
18D
330
1F
100
AcDbEntity
  8
Station 7.5
 62
     7
370
     9
100
AcDbCircle
 10
-22.29599610391629
 20
18.48962013087482
 30
0.0
 40
7.620247966073221
100
AcDbArc
 50
115.5180241884097
 51
215.0709098958452
  0
LINE
  5
18E
330
1F
100
AcDbEntity
  8
Station 7.5
 62
     7
370
     9
100
AcDbLine
 10
-22.59630854028086
 20
7.866510024491313
 30
0.0
 11
-27.49297953058699
 21
14.84080344617459
 31
0.0
  0
ELLIPSE
  5
18F
330
1F
100
AcDbEntity
  8
Text
  6
Dotted_G
 62
     7
370
     9
100
AcDbEllipse
 10
-18.98780094143594
 20
27.74694900648608
 30
0.0
 11
-0.6505004153085511
 21
0.0
 31
0.0
210
0.0
220
0.0
230
1.0
 40
0.9756758724552484
 41
4.71238898038469
 42
10.99557428756428
  0
ELLIPSE
  5
190
330
1F
100
AcDbEntity
  8
Text
 62
     7
370
     9
100
AcDbEllipse
 10
-19.09682517180996
 20
27.69326857257326
 30
0.0
 11
-0.6505004153085511
 21
0.0
 31
0.0
210
0.0
220
0.0
230
1.0
 40
0.9756758724552484
 41
4.990893736176887
 42
8.510192961282776
  0
CIRCLE
  5
191
330
1F
100
AcDbEntity
  8
Centers
 62
     7
370
     9
100
AcDbCircle
 10
-0.0396874857465568
 20
7.771713126369885
 30
0.0
 40
0.02
  0
CIRCLE
  5
192
330
1F
100
AcDbEntity
  8
Centers
 62
     7
370
     9
100
AcDbCircle
 10
-0.03968714716414
 20
46.41766324507511
 30
0.0
 40
0.02
  0
CIRCLE
  5
193
330
1F
100
AcDbEntity
  8
Centers
 62
     7
370
     9
100
AcDbCircle
 10
-0.0396875933645095
 20
44.11766351460731
 30
0.0
 40
0.02
  0
LINE
  5
194
330
1F
100
AcDbEntity
  8
Station 7
 62
     7
370
     9
100
AcDbLine
 10
-0.0396875933645082
 20
40.11766324507509
 30
0.0
 11
-0.0396875933645082
 21
43.48266351460731
 31
0.0
  0
LINE
  5
195
330
1F
100
AcDbEntity
  8
Station 7
 62
     7
370
     9
100
AcDbLine
 10
-0.0396875933645082
 20
40.11766324507509
 30
0.0
 11
-15.03968759336451
 21
40.11766324507509
 31
0.0
  0
LINE
  5
196
330
1F
100
AcDbEntity
  8
Centers
 62
     7
370
     9
100
AcDbLine
 10
-0.0396875933645082
 20
44.75266351460731
 30
0.0
 11
-0.0396875933645082
 21
82.94290625000001
 31
0.0
  0
LINE
  5
197
330
1F
100
AcDbEntity
  8
Station 7
 62
     7
370
     9
100
AcDbLine
 10
-0.0396869240639558
 20
60.99266324507511
 30
0.0
 11
-1.535323895125817
 21
52.11780718704279
 31
0.0
  0
CIRCLE
  5
198
330
1F
100
AcDbEntity
  8
Centers
 62
     7
370
     9
100
AcDbCircle
 10
-0.03968714716414
 20
52.41766324507511
 30
0.0
 40
0.02
  0
CIRCLE
  5
199
330
1F
100
AcDbEntity
  8
Centers
 62
     7
370
     9
100
AcDbCircle
 10
-0.0396871893992079
 20
60.35766324507517
 30
0.0
 40
0.02
  0
LINE
  5
19A
330
1F
100
AcDbEntity
  8
Station 7.5
 62
     7
370
     9
100
AcDbLine
 10
-0.0396875933645082
 20
-6.933406249999988
 30
0.0
 11
-15.03968759336451
 21
-6.933406249999988
 31
0.0
  0
CIRCLE
  5
19B
330
1F
100
AcDbEntity
  8
Centers
 62
     7
370
     9
100
AcDbCircle
 10
-0.0396875933645082
 20
-0.1682868736302077
 30
0.0
 40
0.02
  0
LINE
  5
19C
330
1F
100
AcDbEntity
  8
Station 7.5
 62
     7
370
     9
100
AcDbLine
 10
-0.0396871471641068
 20
8.406713126369795
 30
0.0
 11
-1.62609445957416
 21
-0.4523676295061725
 31
0.0
  0
LINE
  5
19D
330
1F
100
AcDbEntity
  8
Centers
 62
     7
370
     9
100
AcDbLine
 10
-0.0396875933645082
 20
-6.933406249999988
 30
0.0
 11
-0.0396875933645082
 21
28.38194900648608
 31
0.0
  0
ARC
  5
19E
330
1F
100
AcDbEntity
  8
Station 7
 62
     7
370
     9
100
AcDbCircle
 10
-0.0396869240639558
 20
60.99266324507511
 30
0.0
 40
7.620000000000013
100
AcDbArc
 50
260.4341005128774
 51
279.5658895619596
  0
CIRCLE
  5
19F
330
1F
100
AcDbEntity
  8
Centers
 62
     7
370
     9
100
AcDbCircle
 10
-0.0396875933645082
 20
-0.1682868736302077
 30
0.0
 40
0.83
  0
CIRCLE
  5
1A0
330
1F
100
AcDbEntity
  8
Station 7.5
 62
     7
370
     9
100
AcDbCircle
 10
-0.0396874857465568
 20
7.771713126369885
 30
0.0
 40
0.6349999999999999
  0
ARC
  5
1A1
330
1F
100
AcDbEntity
  8
Station 7.5
 62
     7
370
     9
100
AcDbCircle
 10
-0.0396871471641068
 20
8.406713126369795
 30
0.0
 40
7.62
100
AcDbArc
 50
259.8475740013613
 51
280.1524193936244
  0
ARC
  5
1A2
330
1F
100
AcDbEntity
  8
Station 7.5
 62
     7
370
     9
100
AcDbCircle
 10
-0.0396875933645068
 20
8.406713206271489
 30
0.0
 40
6.349999999999998
100
AcDbArc
 50
259.8475740013613
 51
280.1524259986387
  0
CIRCLE
  5
1A3
330
1F
100
AcDbEntity
  8
Station 7.5
 62
     7
370
     9
100
AcDbCircle
 10
-0.0396871471641068
 20
-0.1682868736302041
 30
0.0
 40
0.9549999999999998
  0
LINE
  5
1A4
330
1F
100
AcDbEntity
  8
Station 7.5
 62
     7
370
     9
100
AcDbLine
 10
-0.0396875933645082
 20
-6.933406249999993
 30
0.0
 11
14.96031240663549
 21
-6.933406249999993
 31
0.0
  0
LINE
  5
1A5
330
1F
100
AcDbEntity
  8
Station 7.5
 62
     7
370
     9
100
AcDbLine
 10
-0.0396880395649097
 20
8.406713126369795
 30
0.0
 11
1.546719272845144
 21
-0.4523676295061725
 31
0.0
  0
LINE
  5
1A6
330
1F
100
AcDbEntity
  8
Station 7.5
 62
     7
370
     9
100
AcDbLine
 10
-19.30752111324927
 20
-0.9334059804677876
 30
0.0
 11
19.22814592652026
 21
-0.9334059804677876
 31
0.0
  0
CIRCLE
  5
1A7
330
1F
100
AcDbEntity
  8
Station 7
 62
     7
370
     9
100
AcDbCircle
 10
-0.03968714716414
 20
52.41766324507511
 30
0.0
 40
0.8300000000000001
  0
CIRCLE
  5
1A8
330
1F
100
AcDbEntity
  8
Station 7
 62
     7
370
     9
100
AcDbCircle
 10
-0.0396871893992079
 20
60.35766324507517
 30
0.0
 40
0.635
  0
CIRCLE
  5
1A9
330
1F
100
AcDbEntity
  8
Station 7
 62
     7
370
     9
100
AcDbCircle
 10
-0.03968714716414
 20
52.41766324507511
 30
0.0
 40
0.955
  0
ENDSEC
  0
SECTION
  2
OBJECTS
  0
DICTIONARY
  5
C
330
0
100
AcDbDictionary
281
     1
  3
ACAD_DETAILVIEWSTYLE
350
1B1
  3
ACAD_GROUP
350
D
  3
ACAD_LAYOUT
350
1A
  3
ACAD_MATERIAL
350
43
  3
ACAD_MLEADERSTYLE
350
6B
  3
ACAD_MLINESTYLE
350
17
  3
ACAD_PLOTSETTINGS
350
19
  3
ACAD_PLOTSTYLENAME
350
E
  3
ACAD_SCALELIST
350
47
  3
ACAD_SECTIONVIEWSTYLE
350
1B2
  3
ACAD_TABLESTYLE
350
69
  3
ACAD_VISUALSTYLE
350
2A
  3
AcDbVariableDictionary
350
1AA
  3
ACDB_RECOMPOSE_DATA
350
1AE
  0
SUN
  5
6D
330
29
100
AcDbSun
 90
        1
290
     0
 63
     7
421
 16777215
 40
1.0
291
     1
 91
  2455826
 92
 54000000
292
     0
 70
     2
 71
   256
280
     1
  0
DICTIONARY
  5
1B1
102
{ACAD_REACTORS
330
C
102
}
330
C
100
AcDbDictionary
281
     1
  0
DICTIONARY
  5
D
102
{ACAD_REACTORS
330
C
102
}
330
C
100
AcDbDictionary
281
     1
  0
DICTIONARY
  5
1A
102
{ACAD_REACTORS
330
C
102
}
330
C
100
AcDbDictionary
281
     1
  3
Layout1
350
1E
  3
Layout2
350
26
  3
Model
350
22
  0
DICTIONARY
  5
43
102
{ACAD_REACTORS
330
C
102
}
330
C
100
AcDbDictionary
281
     1
  3
ByBlock
350
45
  3
ByLayer
350
44
  3
Global
350
46
  0
DICTIONARY
  5
6B
102
{ACAD_REACTORS
330
C
102
}
330
C
100
AcDbDictionary
281
     1
  3
Standard
350
6C
  0
DICTIONARY
  5
17
102
{ACAD_REACTORS
330
C
102
}
330
C
100
AcDbDictionary
281
     1
  3
Standard
350
18
  0
DICTIONARY
  5
19
102
{ACAD_REACTORS
330
C
102
}
330
C
100
AcDbDictionary
281
     1
  0
ACDBDICTIONARYWDFLT
  5
E
102
{ACAD_REACTORS
330
C
102
}
330
C
100
AcDbDictionary
281
     1
  3
Normal
350
F
100
AcDbDictionaryWithDefault
340
F
  0
DICTIONARY
  5
47
102
{ACAD_REACTORS
330
C
102
}
330
C
100
AcDbDictionary
281
     1
  3
A0
350
48
  3
A1
350
49
  3
A2
350
4A
  3
A3
350
4B
  3
A4
350
4C
  3
A5
350
4D
  3
A6
350
4E
  3
A7
350
4F
  3
A8
350
50
  3
A9
350
51
  3
B0
350
52
  3
B1
350
53
  3
B2
350
54
  3
B3
350
55
  3
B4
350
56
  3
B5
350
57
  3
B6
350
58
  3
B7
350
59
  3
B8
350
5A
  3
B9
350
5B
  3
C0
350
5C
  3
C1
350
5D
  3
C2
350
5E
  3
C3
350
5F
  3
C4
350
60
  3
C5
350
61
  3
C6
350
62
  3
C7
350
63
  3
C8
350
64
  3
C9
350
65
  3
D0
350
66
  3
D1
350
67
  3
D2
350
68
  0
DICTIONARY
  5
1B2
102
{ACAD_REACTORS
330
C
102
}
330
C
100
AcDbDictionary
281
     1
  0
DICTIONARY
  5
69
102
{ACAD_REACTORS
330
C
102
}
330
C
100
AcDbDictionary
281
     1
  3
Standard
350
6A
  0
DICTIONARY
  5
2A
102
{ACAD_REACTORS
330
C
102
}
330
C
100
AcDbDictionary
281
     1
  3
2dWireframe
350
2F
  3
Basic
350
32
  3
Brighten
350
36
  3
ColorChange
350
3A
  3
Conceptual
350
34
  3
Dim
350
35
  3
EdgeColorOff
350
3D
  3
Facepattern
350
39
  3
Flat
350
2B
  3
FlatWithEdges
350
2C
  3
Gouraud
350
2D
  3
GouraudWithEdges
350
2E
  3
Hidden
350
31
  3
JitterOff
350
3B
  3
Linepattern
350
38
  3
OverhangOff
350
3C
  3
Realistic
350
33
  3
Shaded
350
42
  3
Shaded with edges
350
41
  3
Shades of Gray
350
3E
  3
Sketchy
350
3F
  3
Thicken
350
37
  3
Wireframe
350
30
  3
X-Ray
350
40
  0
DICTIONARY
  5
1AA
102
{ACAD_REACTORS
330
C
102
}
330
C
100
AcDbDictionary
281
     1
  3
CANNOSCALE
350
1AB
  3
CMLEADERSTYLE
350
1B0
  3
CTABLESTYLE
350
1AF
  0
XRECORD
  5
1AE
102
{ACAD_REACTORS
330
C
102
}
330
C
100
AcDbXrecord
280
     1
 90
        1
330
6A
  0
LAYOUT
  5
1E
102
{ACAD_REACTORS
330
1A
102
}
330
1A
100
AcDbPlotSettings
  1

  2
none_device
  4

  6

 40
0.0
 41
0.0
 42
0.0
 43
0.0
 44
0.0
 45
0.0
 46
0.0
 47
0.0
 48
0.0
 49
0.0
140
0.0
141
0.0
142
1.0
143
1.0
 70
   688
 72
     0
 73
     0
 74
     5
  7

 75
    16
 76
     0
 77
     2
 78
   300
147
1.0
148
0.0
149
0.0
100
AcDbLayout
  1
Layout1
 70
     1
 71
     1
 10
0.0
 20
0.0
 11
12.0
 21
9.0
 12
0.0
 22
0.0
 32
0.0
 14
1.000000000000000E+20
 24
1.000000000000000E+20
 34
1.000000000000000E+20
 15
-1.000000000000000E+20
 25
-1.000000000000000E+20
 35
-1.000000000000000E+20
146
0.0
 13
0.0
 23
0.0
 33
0.0
 16
1.0
 26
0.0
 36
0.0
 17
0.0
 27
1.0
 37
0.0
 76
     0
330
1B
  0
LAYOUT
  5
26
102
{ACAD_REACTORS
330
1A
102
}
330
1A
100
AcDbPlotSettings
  1

  2
none_device
  4

  6

 40
0.0
 41
0.0
 42
0.0
 43
0.0
 44
0.0
 45
0.0
 46
0.0
 47
0.0
 48
0.0
 49
0.0
140
0.0
141
0.0
142
1.0
143
1.0
 70
   688
 72
     0
 73
     0
 74
     5
  7

 75
    16
 76
     0
 77
     2
 78
   300
147
1.0
148
0.0
149
0.0
100
AcDbLayout
  1
Layout2
 70
     1
 71
     2
 10
0.0
 20
0.0
 11
0.0
 21
0.0
 12
0.0
 22
0.0
 32
0.0
 14
0.0
 24
0.0
 34
0.0
 15
0.0
 25
0.0
 35
0.0
146
0.0
 13
0.0
 23
0.0
 33
0.0
 16
1.0
 26
0.0
 36
0.0
 17
0.0
 27
1.0
 37
0.0
 76
     0
330
23
  0
LAYOUT
  5
22
102
{ACAD_REACTORS
330
1A
102
}
330
1A
100
AcDbPlotSettings
  1

  2
none_device
  4
Letter_(8.50_x_11.00_Inches)
  6

 40
6.35
 41
6.35
 42
6.35000508
 43
6.35000508
 44
215.9
 45
279.4
 46
0.0
 47
0.0
 48
0.0
 49
0.0
140
0.0
141
0.0
142
1.0
143
1.0
 70
  1712
 72
     0
 73
     0
 74
     0
  7

 75
     0
 76
     0
 77
     2
 78
   300
147
1.0
148
0.0
149
0.0
100
AcDbLayout
  1
Model
 70
     1
 71
     0
 10
0.0
 20
0.0
 11
12.0
 21
9.0
 12
0.0
 22
0.0
 32
0.0
 14
1.000000000000000E+20
 24
1.000000000000000E+20
 34
1.000000000000000E+20
 15
-1.000000000000000E+20
 25
-1.000000000000000E+20
 35
-1.000000000000000E+20
146
0.0
 13
0.0
 23
0.0
 33
0.0
 16
1.0
 26
0.0
 36
0.0
 17
0.0
 27
1.0
 37
0.0
 76
     0
330
1F
331
29
  0
MATERIAL
  5
45
102
{ACAD_REACTORS
330
43
102
}
330
43
100
AcDbMaterial
  1
ByBlock
 72
     1
 94
      127
  0
MATERIAL
  5
44
102
{ACAD_REACTORS
330
43
102
}
330
43
100
AcDbMaterial
  1
ByLayer
 72
     1
 94
      127
  0
MATERIAL
  5
46
102
{ACAD_REACTORS
330
43
102
}
330
43
100
AcDbMaterial
  1
Global
 72
     1
 94
      127
  0
MLEADERSTYLE
  5
6C
102
{ACAD_REACTORS
330
6B
102
}
330
6B
100
AcDbMLeaderStyle
179
     2
170
     2
171
     1
172
     0
 90
        2
 40
0.0
 41
0.0
173
     1
 91
-1056964608
340
14
 92
       -2
290
     1
 42
0.09
291
     1
 43
0.36
  3
Standard
341
0
 44
0.18
300

342
11
174
     1
178
     6
175
     1
176
     0
 93
-1056964608
 45
0.18
292
     0
297
     0
 46
0.18
343
0
 94
-1056964608
 47
1.0
 49
1.0
140
1.0
293
     1
141
0.0
294
     1
177
     0
142
1.0
295
     0
296
     0
143
0.125
271
     0
272
     9
273
     9
298
     0
  0
MLINESTYLE
  5
18
102
{ACAD_REACTORS
330
17
102
}
330
17
100
AcDbMlineStyle
  2
Standard
 70
     0
  3

 62
   256
 51
90.0
 52
90.0
 71
     2
 49
0.5
 62
   256
  6
BYLAYER
 49
-0.5
 62
   256
  6
BYLAYER
  0
ACDBPLACEHOLDER
  5
F
102
{ACAD_REACTORS
330
E
102
}
330
E
  0
SCALE
  5
48
102
{ACAD_REACTORS
330
47
102
}
330
47
100
AcDbScale
 70
     0
300
1:1
140
1.0
141
1.0
290
     1
  0
SCALE
  5
49
102
{ACAD_REACTORS
330
47
102
}
330
47
100
AcDbScale
 70
     0
300
1:2
140
1.0
141
2.0
290
     0
  0
SCALE
  5
4A
102
{ACAD_REACTORS
330
47
102
}
330
47
100
AcDbScale
 70
     0
300
1:4
140
1.0
141
4.0
290
     0
  0
SCALE
  5
4B
102
{ACAD_REACTORS
330
47
102
}
330
47
100
AcDbScale
 70
     0
300
1:5
140
1.0
141
5.0
290
     0
  0
SCALE
  5
4C
102
{ACAD_REACTORS
330
47
102
}
330
47
100
AcDbScale
 70
     0
300
1:8
140
1.0
141
8.0
290
     0
  0
SCALE
  5
4D
102
{ACAD_REACTORS
330
47
102
}
330
47
100
AcDbScale
 70
     0
300
1:10
140
1.0
141
10.0
290
     0
  0
SCALE
  5
4E
102
{ACAD_REACTORS
330
47
102
}
330
47
100
AcDbScale
 70
     0
300
1:16
140
1.0
141
16.0
290
     0
  0
SCALE
  5
4F
102
{ACAD_REACTORS
330
47
102
}
330
47
100
AcDbScale
 70
     0
300
1:20
140
1.0
141
20.0
290
     0
  0
SCALE
  5
50
102
{ACAD_REACTORS
330
47
102
}
330
47
100
AcDbScale
 70
     0
300
1:30
140
1.0
141
30.0
290
     0
  0
SCALE
  5
51
102
{ACAD_REACTORS
330
47
102
}
330
47
100
AcDbScale
 70
     0
300
1:40
140
1.0
141
40.0
290
     0
  0
SCALE
  5
52
102
{ACAD_REACTORS
330
47
102
}
330
47
100
AcDbScale
 70
     0
300
1:50
140
1.0
141
50.0
290
     0
  0
SCALE
  5
53
102
{ACAD_REACTORS
330
47
102
}
330
47
100
AcDbScale
 70
     0
300
1:100
140
1.0
141
100.0
290
     0
  0
SCALE
  5
54
102
{ACAD_REACTORS
330
47
102
}
330
47
100
AcDbScale
 70
     0
300
2:1
140
2.0
141
1.0
290
     0
  0
SCALE
  5
55
102
{ACAD_REACTORS
330
47
102
}
330
47
100
AcDbScale
 70
     0
300
4:1
140
4.0
141
1.0
290
     0
  0
SCALE
  5
56
102
{ACAD_REACTORS
330
47
102
}
330
47
100
AcDbScale
 70
     0
300
8:1
140
8.0
141
1.0
290
     0
  0
SCALE
  5
57
102
{ACAD_REACTORS
330
47
102
}
330
47
100
AcDbScale
 70
     0
300
10:1
140
10.0
141
1.0
290
     0
  0
SCALE
  5
58
102
{ACAD_REACTORS
330
47
102
}
330
47
100
AcDbScale
 70
     0
300
100:1
140
100.0
141
1.0
290
     0
  0
SCALE
  5
59
102
{ACAD_REACTORS
330
47
102
}
330
47
100
AcDbScale
 70
     0
300
1/128" = 1'-0"
140
0.0078125
141
12.0
290
     0
  0
SCALE
  5
5A
102
{ACAD_REACTORS
330
47
102
}
330
47
100
AcDbScale
 70
     0
300
1/64" = 1'-0"
140
0.015625
141
12.0
290
     0
  0
SCALE
  5
5B
102
{ACAD_REACTORS
330
47
102
}
330
47
100
AcDbScale
 70
     0
300
1/32" = 1'-0"
140
0.03125
141
12.0
290
     0
  0
SCALE
  5
5C
102
{ACAD_REACTORS
330
47
102
}
330
47
100
AcDbScale
 70
     0
300
1/16" = 1'-0"
140
0.0625
141
12.0
290
     0
  0
SCALE
  5
5D
102
{ACAD_REACTORS
330
47
102
}
330
47
100
AcDbScale
 70
     0
300
3/32" = 1'-0"
140
0.09375
141
12.0
290
     0
  0
SCALE
  5
5E
102
{ACAD_REACTORS
330
47
102
}
330
47
100
AcDbScale
 70
     0
300
1/8" = 1'-0"
140
0.125
141
12.0
290
     0
  0
SCALE
  5
5F
102
{ACAD_REACTORS
330
47
102
}
330
47
100
AcDbScale
 70
     0
300
3/16" = 1'-0"
140
0.1875
141
12.0
290
     0
  0
SCALE
  5
60
102
{ACAD_REACTORS
330
47
102
}
330
47
100
AcDbScale
 70
     0
300
1/4" = 1'-0"
140
0.25
141
12.0
290
     0
  0
SCALE
  5
61
102
{ACAD_REACTORS
330
47
102
}
330
47
100
AcDbScale
 70
     0
300
3/8" = 1'-0"
140
0.375
141
12.0
290
     0
  0
SCALE
  5
62
102
{ACAD_REACTORS
330
47
102
}
330
47
100
AcDbScale
 70
     0
300
1/2" = 1'-0"
140
0.5
141
12.0
290
     0
  0
SCALE
  5
63
102
{ACAD_REACTORS
330
47
102
}
330
47
100
AcDbScale
 70
     0
300
3/4" = 1'-0"
140
0.75
141
12.0
290
     0
  0
SCALE
  5
64
102
{ACAD_REACTORS
330
47
102
}
330
47
100
AcDbScale
 70
     0
300
1" = 1'-0"
140
1.0
141
12.0
290
     0
  0
SCALE
  5
65
102
{ACAD_REACTORS
330
47
102
}
330
47
100
AcDbScale
 70
     0
300
1-1/2" = 1'-0"
140
1.5
141
12.0
290
     0
  0
SCALE
  5
66
102
{ACAD_REACTORS
330
47
102
}
330
47
100
AcDbScale
 70
     0
300
3" = 1'-0"
140
3.0
141
12.0
290
     0
  0
SCALE
  5
67
102
{ACAD_REACTORS
330
47
102
}
330
47
100
AcDbScale
 70
     0
300
6" = 1'-0"
140
6.0
141
12.0
290
     0
  0
SCALE
  5
68
102
{ACAD_REACTORS
330
47
102
}
330
47
100
AcDbScale
 70
     0
300
1'-0" = 1'-0"
140
12.0
141
12.0
290
     0
  0
TABLESTYLE
  5
6A
102
{ACAD_REACTORS
330
69
102
}
102
{ACAD_XDICTIONARY
360
1AC
102
}
330
69
100
AcDbTableStyle
  3
Standard
 70
     0
 71
     0
 40
0.06
 41
0.06
280
     0
281
     0
  7
Standard
140
0.18
170
     2
 62
     0
 63
   257
283
     0
 90
        4
 91
        0
  1

274
    -2
284
     1
 64
     0
275
    -2
285
     1
 65
     0
276
    -2
286
     1
 66
     0
277
    -2
287
     1
 67
     0
278
    -2
288
     1
 68
     0
279
    -2
289
     1
 69
     0
  7
Standard
140
0.25
170
     5
 62
     0
 63
   257
283
     0
 90
        4
 91
        0
  1

274
    -2
284
     1
 64
     0
275
    -2
285
     1
 65
     0
276
    -2
286
     1
 66
     0
277
    -2
287
     1
 67
     0
278
    -2
288
     1
 68
     0
279
    -2
289
     1
 69
     0
  7
Standard
140
0.18
170
     5
 62
     0
 63
   257
283
     0
 90
        4
 91
        0
  1

274
    -2
284
     1
 64
     0
275
    -2
285
     1
 65
     0
276
    -2
286
     1
 66
     0
277
    -2
287
     1
 67
     0
278
    -2
288
     1
 68
     0
279
    -2
289
     1
 69
     0
  0
VISUALSTYLE
  5
2F
102
{ACAD_REACTORS
330
2A
102
}
330
2A
100
AcDbVisualStyle
  2
2dWireframe
 70
     4
177
     3
291
     0
 70
    58
 90
        0
176
     1
 90
        2
176
     1
 90
        0
176
     1
 90
        0
176
     1
 40
0.6
176
     1
 40
30.0
176
     1
 62
     7
420
 16777215
176
     1
 90
        1
176
     1
 90
        4
176
     1
 62
     7
176
     1
 62
   257
176
     1
 90
        1
176
     1
 90
        1
176
     1
 40
1.0
176
     1
 90
        0
176
     1
 62
   257
176
     1
 40
1.0
176
     1
 90
        1
176
     1
 90
        6
176
     1
 90
        2
176
     1
 62
     7
176
     1
 90
        5
176
     1
 90
        0
176
     1
 90
        0
176
     1
290
     0
176
     1
 90
        1
176
     1
 40
0.0
176
     1
 90
        0
176
     1
290
     1
176
     1
290
     1
176
     1
290
     0
176
     1
290
     0
176
     1
290
     0
176
     1
290
     0
176
     1
290
     0
176
     1
290
     0
176
     1
290
     0
176
     1
 90
       50
176
     1
 40
0.0
176
     1
 40
1.0
176
     1
 90
        0
176
     1
 62
   178
420
        0
176
     1
 90
       50
176
     1
 90
        3
176
     1
 62
     5
420
      255
176
     1
290
     0
176
     1
 90
       50
176
     1
 90
       50
176
     1
 90
       50
176
     1
290
     0
176
     1
 90
       50
176
     1
 62
   256
176
     0
 40
1.0
176
     0
 90
        2
176
     1
  1
strokes_ogs.tif
176
     1
290
     0
176
     1
 40
1.0
176
     1
 40
1.0
176
     1
  0
VISUALSTYLE
  5
32
102
{ACAD_REACTORS
330
2A
102
}
330
2A
100
AcDbVisualStyle
  2
Basic
 70
     7
177
     3
291
     1
 70
    58
 90
        1
176
     1
 90
        0
176
     1
 90
        1
176
     1
 90
        0
176
     1
 40
0.6
176
     1
 40
30.0
176
     1
 62
     7
420
 16777215
176
     1
 90
        0
176
     1
 90
        4
176
     1
 62
     7
176
     1
 62
   257
176
     1
 90
        1
176
     1
 90
        1
176
     1
 40
1.0
176
     1
 90
        8
176
     1
 62
     7
176
     1
 40
1.0
176
     1
 90
        1
176
     1
 90
        6
176
     1
 90
        2
176
     1
 62
     7
176
     1
 90
        5
176
     1
 90
        0
176
     1
 90
        0
176
     1
290
     0
176
     1
 90
        1
176
     1
 40
0.0
176
     1
 90
        0
176
     1
290
     0
176
     1
290
     1
176
     1
290
     1
176
     1
290
     0
176
     1
290
     0
176
     1
290
     0
176
     1
290
     0
176
     1
290
     0
176
     1
290
     0
176
     1
 90
       50
176
     1
 40
0.0
176
     1
 40
1.0
176
     1
 90
        0
176
     1
 62
   178
420
        0
176
     1
 90
       50
176
     1
 90
        3
176
     1
 62
     5
420
      255
176
     1
290
     0
176
     1
 90
       50
176
     1
 90
       50
176
     1
 90
       50
176
     1
290
     0
176
     1
 90
       50
176
     1
 62
   256
176
     0
 40
1.0
176
     0
 90
        2
176
     1
  1
strokes_ogs.tif
176
     1
290
     0
176
     1
 40
1.0
176
     1
 40
1.0
176
     1
  0
VISUALSTYLE
  5
36
102
{ACAD_REACTORS
330
2A
102
}
330
2A
100
AcDbVisualStyle
  2
Brighten
 70
    12
177
     3
291
     1
 70
    58
 90
        2
176
     1
 90
        2
176
     1
 90
        0
176
     1
 90
        0
176
     1
 40
0.6
176
     1
 40
30.0
176
     1
 62
     7
420
 16777215
176
     1
 90
        1
176
     1
 90
        4
176
     1
 62
     7
176
     1
 62
   257
176
     1
 90
        1
176
     1
 90
        1
176
     1
 40
1.0
176
     1
 90
        8
176
     1
 62
     7
176
     1
 40
1.0
176
     1
 90
        1
176
     1
 90
        6
176
     1
 90
        2
176
     1
 62
     7
176
     1
 90
        5
176
     1
 90
        0
176
     1
 90
        0
176
     1
290
     0
176
     1
 90
        1
176
     1
 40
50.0
176
     1
 90
        0
176
     1
290
     0
176
     1
290
     1
176
     1
290
     1
176
     1
290
     0
176
     1
290
     0
176
     1
290
     0
176
     1
290
     0
176
     1
290
     0
176
     1
290
     0
176
     1
 90
       50
176
     1
 40
0.0
176
     1
 40
1.0
176
     1
 90
        0
176
     1
 62
   178
420
        0
176
     1
 90
       50
176
     1
 90
        3
176
     1
 62
     5
420
      255
176
     1
290
     0
176
     1
 90
       50
176
     1
 90
       50
176
     1
 90
       50
176
     1
290
     0
176
     1
 90
       50
176
     1
 62
   256
176
     0
 40
1.0
176
     0
 90
        2
176
     1
  1
strokes_ogs.tif
176
     1
290
     0
176
     1
 40
1.0
176
     1
 40
1.0
176
     1
  0
VISUALSTYLE
  5
3A
102
{ACAD_REACTORS
330
2A
102
}
330
2A
100
AcDbVisualStyle
  2
ColorChange
 70
    16
177
     3
291
     1
 70
    58
 90
        2
176
     1
 90
        2
176
     1
 90
        3
176
     1
 90
        0
176
     1
 40
0.6
176
     1
 40
30.0
176
     1
 62
     8
420
  8421504
176
     1
 90
        1
176
     1
 90
        4
176
     1
 62
     7
176
     1
 62
   257
176
     1
 90
        1
176
     1
 90
        1
176
     1
 40
1.0
176
     1
 90
        8
176
     1
 62
     8
420
  8421504
176
     1
 40
1.0
176
     1
 90
        1
176
     1
 90
        6
176
     1
 90
        2
176
     1
 62
     7
176
     1
 90
        5
176
     1
 90
        0
176
     1
 90
        0
176
     1
290
     0
176
     1
 90
        1
176
     1
 40
0.0
176
     1
 90
        0
176
     1
290
     0
176
     1
290
     1
176
     1
290
     1
176
     1
290
     0
176
     1
290
     0
176
     1
290
     0
176
     1
290
     0
176
     1
290
     0
176
     1
290
     0
176
     1
 90
       50
176
     1
 40
0.0
176
     1
 40
1.0
176
     1
 90
        0
176
     1
 62
   178
420
        0
176
     1
 90
       50
176
     1
 90
        3
176
     1
 62
     5
420
      255
176
     1
290
     0
176
     1
 90
       50
176
     1
 90
       50
176
     1
 90
       50
176
     1
290
     0
176
     1
 90
       50
176
     1
 62
   256
176
     0
 40
1.0
176
     0
 90
        2
176
     1
  1
strokes_ogs.tif
176
     1
290
     0
176
     1
 40
1.0
176
     1
 40
1.0
176
     1
  0
VISUALSTYLE
  5
34
102
{ACAD_REACTORS
330
2A
102
}
330
2A
100
AcDbVisualStyle
  2
Conceptual
 70
     9
177
     3
291
     0
 70
    58
 90
        3
176
     1
 90
        2
176
     1
 90
        0
176
     1
 90
        0
176
     1
 40
0.6
176
     1
 40
30.0
176
     1
 62
     7
420
 16777215
176
     1
 90
        2
176
     1
 90
        2
176
     1
 62
     7
176
     1
 62
   257
176
     1
 90
        1
176
     1
 90
        1
176
     1
 40
179.0
176
     1
 90
        8
176
     1
 62
     7
176
     1
 40
1.0
176
     1
 90
        1
176
     1
 90
        6
176
     1
 90
        2
176
     1
 62
     7
176
     1
 90
        3
176
     1
 90
        0
176
     1
 90
        0
176
     1
290
     0
176
     1
 90
        1
176
     1
 40
0.0
176
     1
 90
        0
176
     1
290
     0
176
     1
290
     1
176
     1
290
     1
176
     1
290
     0
176
     1
290
     0
176
     1
290
     0
176
     1
290
     0
176
     1
290
     0
176
     1
290
     0
176
     1
 90
       50
176
     1
 40
0.0
176
     1
 40
1.0
176
     1
 90
        0
176
     1
 62
   178
420
        0
176
     1
 90
       50
176
     1
 90
        3
176
     1
 62
     5
420
      255
176
     1
290
     0
176
     1
 90
       50
176
     1
 90
       50
176
     1
 90
       50
176
     1
290
     0
176
     1
 90
       50
176
     1
 62
   256
176
     0
 40
1.0
176
     0
 90
        2
176
     1
  1
strokes_ogs.tif
176
     1
290
     0
176
     1
 40
1.0
176
     1
 40
1.0
176
     1
  0
VISUALSTYLE
  5
35
102
{ACAD_REACTORS
330
2A
102
}
330
2A
100
AcDbVisualStyle
  2
Dim
 70
    11
177
     3
291
     1
 70
    58
 90
        2
176
     1
 90
        2
176
     1
 90
        0
176
     1
 90
        0
176
     1
 40
0.6
176
     1
 40
30.0
176
     1
 62
     7
420
 16777215
176
     1
 90
        1
176
     1
 90
        4
176
     1
 62
     7
176
     1
 62
   257
176
     1
 90
        1
176
     1
 90
        1
176
     1
 40
1.0
176
     1
 90
        8
176
     1
 62
     7
176
     1
 40
1.0
176
     1
 90
        1
176
     1
 90
        6
176
     1
 90
        2
176
     1
 62
     7
176
     1
 90
        5
176
     1
 90
        0
176
     1
 90
        0
176
     1
290
     0
176
     1
 90
        1
176
     1
 40
-50.0
176
     1
 90
        0
176
     1
290
     0
176
     1
290
     1
176
     1
290
     1
176
     1
290
     0
176
     1
290
     0
176
     1
290
     0
176
     1
290
     0
176
     1
290
     0
176
     1
290
     0
176
     1
 90
       50
176
     1
 40
0.0
176
     1
 40
1.0
176
     1
 90
        0
176
     1
 62
   178
420
        0
176
     1
 90
       50
176
     1
 90
        3
176
     1
 62
     5
420
      255
176
     1
290
     0
176
     1
 90
       50
176
     1
 90
       50
176
     1
 90
       50
176
     1
290
     0
176
     1
 90
       50
176
     1
 62
   256
176
     0
 40
1.0
176
     0
 90
        2
176
     1
  1
strokes_ogs.tif
176
     1
290
     0
176
     1
 40
1.0
176
     1
 40
1.0
176
     1
  0
VISUALSTYLE
  5
3D
102
{ACAD_REACTORS
330
2A
102
}
330
2A
100
AcDbVisualStyle
  2
EdgeColorOff
 70
    22
177
     3
291
     1
 70
    58
 90
        2
176
     0
 90
        2
176
     0
 90
        0
176
     0
 90
        0
176
     0
 40
0.6
176
     0
 40
30.0
176
     0
 62
     7
420
 16777215
176
     0
 90
        1
176
     0
 90
        4
176
     0
 62
     7
176
     0
 62
   257
176
     0
 90
        1
176
     0
 90
        1
176
     0
 40
1.0
176
     0
 90
        8
176
     2
 62
     7
176
     0
 40
1.0
176
     0
 90
        1
176
     0
 90
        6
176
     0
 90
        2
176
     0
 62
     7
176
     0
 90
        5
176
     0
 90
        0
176
     0
 90
        0
176
     0
290
     0
176
     0
 90
        1
176
     0
 40
0.0
176
     0
 90
        0
176
     0
290
     0
176
     0
290
     1
176
     0
290
     1
176
     0
290
     0
176
     0
290
     0
176
     0
290
     0
176
     0
290
     0
176
     0
290
     0
176
     0
290
     0
176
     0
 90
       50
176
     0
 40
0.0
176
     0
 40
1.0
176
     0
 90
        0
176
     0
 62
   178
420
        0
176
     0
 90
       50
176
     0
 90
        3
176
     0
 62
     5
420
      255
176
     0
290
     0
176
     0
 90
       50
176
     0
 90
       50
176
     0
 90
       50
176
     0
290
     0
176
     0
 90
       50
176
     0
 62
   256
176
     0
 40
1.0
176
     0
 90
        2
176
     0
  1
strokes_ogs.tif
176
     0
290
     0
176
     0
 40
1.0
176
     0
 40
1.0
176
     0
  0
VISUALSTYLE
  5
39
102
{ACAD_REACTORS
330
2A
102
}
330
2A
100
AcDbVisualStyle
  2
Facepattern
 70
    15
177
     3
291
     1
 70
    58
 90
        2
176
     1
 90
        2
176
     1
 90
        0
176
     1
 90
        0
176
     1
 40
0.6
176
     1
 40
30.0
176
     1
 62
     7
420
 16777215
176
     1
 90
        1
176
     1
 90
        4
176
     1
 62
     7
176
     1
 62
   257
176
     1
 90
        1
176
     1
 90
        1
176
     1
 40
1.0
176
     1
 90
        8
176
     1
 62
     7
176
     1
 40
1.0
176
     1
 90
        1
176
     1
 90
        6
176
     1
 90
        2
176
     1
 62
     7
176
     1
 90
        5
176
     1
 90
        0
176
     1
 90
        0
176
     1
290
     0
176
     1
 90
        1
176
     1
 40
0.0
176
     1
 90
        0
176
     1
290
     0
176
     1
290
     1
176
     1
290
     1
176
     1
290
     0
176
     1
290
     0
176
     1
290
     0
176
     1
290
     0
176
     1
290
     0
176
     1
290
     0
176
     1
 90
       50
176
     1
 40
0.0
176
     1
 40
1.0
176
     1
 90
        0
176
     1
 62
   178
420
        0
176
     1
 90
       50
176
     1
 90
        3
176
     1
 62
     5
420
      255
176
     1
290
     0
176
     1
 90
       50
176
     1
 90
       50
176
     1
 90
       50
176
     1
290
     0
176
     1
 90
       50
176
     1
 62
   256
176
     0
 40
1.0
176
     0
 90
        2
176
     1
  1
strokes_ogs.tif
176
     1
290
     0
176
     1
 40
1.0
176
     1
 40
1.0
176
     1
  0
VISUALSTYLE
  5
2B
102
{ACAD_REACTORS
330
2A
102
}
330
2A
100
AcDbVisualStyle
  2
Flat
 70
     0
177
     3
291
     1
 70
    58
 90
        2
176
     1
 90
        1
176
     1
 90
        1
176
     1
 90
        2
176
     1
 40
0.6
176
     1
 40
30.0
176
     1
 62
     7
420
 16777215
176
     1
 90
        0
176
     1
 90
        0
176
     1
 62
     7
176
     1
 62
   257
176
     1
 90
        1
176
     1
 90
        1
176
     1
 40
1.0
176
     1
 90
        8
176
     1
 62
     7
176
     1
 40
1.0
176
     1
 90
        1
176
     1
 90
        6
176
     1
 90
        2
176
     1
 62
     7
176
     1
 90
        5
176
     1
 90
        0
176
     1
 90
        0
176
     1
290
     0
176
     1
 90
       13
176
     1
 40
0.0
176
     1
 90
        0
176
     1
290
     0
176
     1
290
     1
176
     1
290
     1
176
     1
290
     0
176
     1
290
     0
176
     1
290
     0
176
     1
290
     0
176
     1
290
     0
176
     1
290
     0
176
     1
 90
       50
176
     1
 40
0.0
176
     1
 40
1.0
176
     1
 90
        0
176
     1
 62
   178
420
        0
176
     1
 90
       50
176
     1
 90
        3
176
     1
 62
     5
420
      255
176
     1
290
     0
176
     1
 90
       50
176
     1
 90
       50
176
     1
 90
       50
176
     1
290
     0
176
     1
 90
       50
176
     1
 62
   256
176
     0
 40
1.0
176
     0
 90
        2
176
     1
  1
strokes_ogs.tif
176
     1
290
     0
176
     1
 40
1.0
176
     1
 40
1.0
176
     1
  0
VISUALSTYLE
  5
2C
102
{ACAD_REACTORS
330
2A
102
}
330
2A
100
AcDbVisualStyle
  2
FlatWithEdges
 70
     1
177
     3
291
     1
 70
    58
 90
        2
176
     1
 90
        1
176
     1
 90
        1
176
     1
 90
        2
176
     1
 40
0.6
176
     1
 40
30.0
176
     1
 62
     7
420
 16777215
176
     1
 90
        1
176
     1
 90
        0
176
     1
 62
     7
176
     1
 62
   257
176
     1
 90
        1
176
     1
 90
        1
176
     1
 40
1.0
176
     1
 90
        0
176
     1
 62
   257
176
     1
 40
1.0
176
     1
 90
        1
176
     1
 90
        6
176
     1
 90
        2
176
     1
 62
     7
176
     1
 90
        5
176
     1
 90
        0
176
     1
 90
        0
176
     1
290
     0
176
     1
 90
       13
176
     1
 40
0.0
176
     1
 90
        0
176
     1
290
     0
176
     1
290
     1
176
     1
290
     1
176
     1
290
     0
176
     1
290
     0
176
     1
290
     0
176
     1
290
     0
176
     1
290
     0
176
     1
290
     0
176
     1
 90
       50
176
     1
 40
0.0
176
     1
 40
1.0
176
     1
 90
        0
176
     1
 62
   178
420
        0
176
     1
 90
       50
176
     1
 90
        3
176
     1
 62
     5
420
      255
176
     1
290
     0
176
     1
 90
       50
176
     1
 90
       50
176
     1
 90
       50
176
     1
290
     0
176
     1
 90
       50
176
     1
 62
   256
176
     0
 40
1.0
176
     0
 90
        2
176
     1
  1
strokes_ogs.tif
176
     1
290
     0
176
     1
 40
1.0
176
     1
 40
1.0
176
     1
  0
VISUALSTYLE
  5
2D
102
{ACAD_REACTORS
330
2A
102
}
330
2A
100
AcDbVisualStyle
  2
Gouraud
 70
     2
177
     3
291
     1
 70
    58
 90
        2
176
     1
 90
        2
176
     1
 90
        1
176
     1
 90
        2
176
     1
 40
0.6
176
     1
 40
30.0
176
     1
 62
     7
420
 16777215
176
     1
 90
        0
176
     1
 90
        0
176
     1
 62
     7
176
     1
 62
   257
176
     1
 90
        1
176
     1
 90
        1
176
     1
 40
1.0
176
     1
 90
        0
176
     1
 62
     7
176
     1
 40
1.0
176
     1
 90
        1
176
     1
 90
        6
176
     1
 90
        2
176
     1
 62
     7
176
     1
 90
        5
176
     1
 90
        0
176
     1
 90
        0
176
     1
290
     0
176
     1
 90
       13
176
     1
 40
0.0
176
     1
 90
        0
176
     1
290
     0
176
     1
290
     1
176
     1
290
     1
176
     1
290
     0
176
     1
290
     0
176
     1
290
     0
176
     1
290
     0
176
     1
290
     0
176
     1
290
     0
176
     1
 90
       50
176
     1
 40
0.0
176
     1
 40
1.0
176
     1
 90
        0
176
     1
 62
   178
420
        0
176
     1
 90
       50
176
     1
 90
        3
176
     1
 62
     5
420
      255
176
     1
290
     0
176
     1
 90
       50
176
     1
 90
       50
176
     1
 90
       50
176
     1
290
     0
176
     1
 90
       50
176
     1
 62
   256
176
     0
 40
1.0
176
     0
 90
        2
176
     1
  1
strokes_ogs.tif
176
     1
290
     0
176
     1
 40
1.0
176
     1
 40
1.0
176
     1
  0
VISUALSTYLE
  5
2E
102
{ACAD_REACTORS
330
2A
102
}
330
2A
100
AcDbVisualStyle
  2
GouraudWithEdges
 70
     3
177
     3
291
     1
 70
    58
 90
        2
176
     1
 90
        2
176
     1
 90
        1
176
     1
 90
        2
176
     1
 40
0.6
176
     1
 40
30.0
176
     1
 62
     7
420
 16777215
176
     1
 90
        1
176
     1
 90
        0
176
     1
 62
     7
176
     1
 62
   257
176
     1
 90
        1
176
     1
 90
        1
176
     1
 40
1.0
176
     1
 90
        0
176
     1
 62
   257
176
     1
 40
1.0
176
     1
 90
        1
176
     1
 90
        6
176
     1
 90
        2
176
     1
 62
     7
176
     1
 90
        5
176
     1
 90
        0
176
     1
 90
        0
176
     1
290
     0
176
     1
 90
       13
176
     1
 40
0.0
176
     1
 90
        0
176
     1
290
     0
176
     1
290
     1
176
     1
290
     1
176
     1
290
     0
176
     1
290
     0
176
     1
290
     0
176
     1
290
     0
176
     1
290
     0
176
     1
290
     0
176
     1
 90
       50
176
     1
 40
0.0
176
     1
 40
1.0
176
     1
 90
        0
176
     1
 62
   178
420
        0
176
     1
 90
       50
176
     1
 90
        3
176
     1
 62
     5
420
      255
176
     1
290
     0
176
     1
 90
       50
176
     1
 90
       50
176
     1
 90
       50
176
     1
290
     0
176
     1
 90
       50
176
     1
 62
   256
176
     0
 40
1.0
176
     0
 90
        2
176
     1
  1
strokes_ogs.tif
176
     1
290
     0
176
     1
 40
1.0
176
     1
 40
1.0
176
     1
  0
VISUALSTYLE
  5
31
102
{ACAD_REACTORS
330
2A
102
}
330
2A
100
AcDbVisualStyle
  2
Hidden
 70
     6
177
     3
291
     0
 70
    58
 90
        1
176
     1
 90
        2
176
     1
 90
        2
176
     1
 90
        0
176
     1
 40
0.6
176
     1
 40
30.0
176
     1
 62
     7
420
 16777215
176
     1
 90
        2
176
     1
 90
        2
176
     1
 62
     7
176
     1
 62
   257
176
     1
 90
        2
176
     1
 90
        1
176
     1
 40
40.0
176
     1
 90
        0
176
     1
 62
   257
176
     1
 40
1.0
176
     1
 90
        1
176
     1
 90
        6
176
     1
 90
        2
176
     1
 62
     7
176
     1
 90
        3
176
     1
 90
        0
176
     1
 90
        0
176
     1
290
     0
176
     1
 90
        1
176
     1
 40
0.0
176
     1
 90
        0
176
     1
290
     0
176
     1
290
     1
176
     1
290
     1
176
     1
290
     0
176
     1
290
     0
176
     1
290
     0
176
     1
290
     0
176
     1
290
     0
176
     1
290
     0
176
     1
 90
       50
176
     1
 40
0.0
176
     1
 40
1.0
176
     1
 90
        0
176
     1
 62
   178
420
        0
176
     1
 90
       50
176
     1
 90
        3
176
     1
 62
     5
420
      255
176
     1
290
     0
176
     1
 90
       50
176
     1
 90
       50
176
     1
 90
       50
176
     1
290
     0
176
     1
 90
       50
176
     1
 62
   256
176
     0
 40
1.0
176
     0
 90
        2
176
     1
  1
strokes_ogs.tif
176
     1
290
     0
176
     1
 40
1.0
176
     1
 40
1.0
176
     1
  0
VISUALSTYLE
  5
3B
102
{ACAD_REACTORS
330
2A
102
}
330
2A
100
AcDbVisualStyle
  2
JitterOff
 70
    20
177
     3
291
     1
 70
    58
 90
        2
176
     0
 90
        2
176
     0
 90
        0
176
     0
 90
        0
176
     0
 40
0.6
176
     0
 40
30.0
176
     0
 62
     7
420
 16777215
176
     0
 90
        1
176
     0
 90
        4
176
     0
 62
     7
176
     0
 62
   257
176
     0
 90
        1
176
     0
 90
        1
176
     0
 40
1.0
176
     0
 90
       10
176
     2
 62
     7
176
     0
 40
1.0
176
     0
 90
        1
176
     0
 90
        6
176
     0
 90
        2
176
     0
 62
     7
176
     0
 90
        5
176
     0
 90
        0
176
     0
 90
        0
176
     0
290
     0
176
     0
 90
        1
176
     0
 40
0.0
176
     0
 90
        0
176
     0
290
     0
176
     0
290
     1
176
     0
290
     1
176
     0
290
     0
176
     0
290
     0
176
     0
290
     0
176
     0
290
     0
176
     0
290
     0
176
     0
290
     0
176
     0
 90
       50
176
     0
 40
0.0
176
     0
 40
1.0
176
     0
 90
        0
176
     0
 62
   178
420
        0
176
     0
 90
       50
176
     0
 90
        3
176
     0
 62
     5
420
      255
176
     0
290
     0
176
     0
 90
       50
176
     0
 90
       50
176
     0
 90
       50
176
     0
290
     0
176
     0
 90
       50
176
     0
 62
   256
176
     0
 40
1.0
176
     0
 90
        2
176
     0
  1
strokes_ogs.tif
176
     0
290
     0
176
     0
 40
1.0
176
     0
 40
1.0
176
     0
  0
VISUALSTYLE
  5
38
102
{ACAD_REACTORS
330
2A
102
}
330
2A
100
AcDbVisualStyle
  2
Linepattern
 70
    14
177
     3
291
     1
 70
    58
 90
        2
176
     1
 90
        2
176
     1
 90
        0
176
     1
 90
        0
176
     1
 40
0.6
176
     1
 40
30.0
176
     1
 62
     7
420
 16777215
176
     1
 90
        1
176
     1
 90
        4
176
     1
 62
     7
176
     1
 62
   257
176
     1
 90
        7
176
     1
 90
        7
176
     1
 40
1.0
176
     1
 90
        8
176
     1
 62
     7
176
     1
 40
1.0
176
     1
 90
        1
176
     1
 90
        6
176
     1
 90
        2
176
     1
 62
     7
176
     1
 90
        5
176
     1
 90
        0
176
     1
 90
        0
176
     1
290
     0
176
     1
 90
        1
176
     1
 40
0.0
176
     1
 90
        0
176
     1
290
     0
176
     1
290
     1
176
     1
290
     1
176
     1
290
     0
176
     1
290
     0
176
     1
290
     0
176
     1
290
     0
176
     1
290
     0
176
     1
290
     0
176
     1
 90
       50
176
     1
 40
0.0
176
     1
 40
1.0
176
     1
 90
        0
176
     1
 62
   178
420
        0
176
     1
 90
       50
176
     1
 90
        3
176
     1
 62
     5
420
      255
176
     1
290
     0
176
     1
 90
       50
176
     1
 90
       50
176
     1
 90
       50
176
     1
290
     0
176
     1
 90
       50
176
     1
 62
   256
176
     0
 40
1.0
176
     0
 90
        2
176
     1
  1
strokes_ogs.tif
176
     1
290
     0
176
     1
 40
1.0
176
     1
 40
1.0
176
     1
  0
VISUALSTYLE
  5
3C
102
{ACAD_REACTORS
330
2A
102
}
330
2A
100
AcDbVisualStyle
  2
OverhangOff
 70
    21
177
     3
291
     1
 70
    58
 90
        2
176
     0
 90
        2
176
     0
 90
        0
176
     0
 90
        0
176
     0
 40
0.6
176
     0
 40
30.0
176
     0
 62
     7
420
 16777215
176
     0
 90
        1
176
     0
 90
        4
176
     0
 62
     7
176
     0
 62
   257
176
     0
 90
        1
176
     0
 90
        1
176
     0
 40
1.0
176
     0
 90
        9
176
     2
 62
     7
176
     0
 40
1.0
176
     0
 90
        1
176
     0
 90
        6
176
     0
 90
        2
176
     0
 62
     7
176
     0
 90
        5
176
     0
 90
        0
176
     0
 90
        0
176
     0
290
     0
176
     0
 90
        1
176
     0
 40
0.0
176
     0
 90
        0
176
     0
290
     0
176
     0
290
     1
176
     0
290
     1
176
     0
290
     0
176
     0
290
     0
176
     0
290
     0
176
     0
290
     0
176
     0
290
     0
176
     0
290
     0
176
     0
 90
       50
176
     0
 40
0.0
176
     0
 40
1.0
176
     0
 90
        0
176
     0
 62
   178
420
        0
176
     0
 90
       50
176
     0
 90
        3
176
     0
 62
     5
420
      255
176
     0
290
     0
176
     0
 90
       50
176
     0
 90
       50
176
     0
 90
       50
176
     0
290
     0
176
     0
 90
       50
176
     0
 62
   256
176
     0
 40
1.0
176
     0
 90
        2
176
     0
  1
strokes_ogs.tif
176
     0
290
     0
176
     0
 40
1.0
176
     0
 40
1.0
176
     0
  0
VISUALSTYLE
  5
33
102
{ACAD_REACTORS
330
2A
102
}
330
2A
100
AcDbVisualStyle
  2
Realistic
 70
     8
177
     3
291
     0
 70
    58
 90
        2
176
     1
 90
        3
176
     1
 90
        0
176
     1
 90
        2
176
     1
 40
0.6
176
     1
 40
30.0
176
     1
 62
     7
420
 16777215
176
     1
 90
        0
176
     1
 90
        0
176
     1
 62
     7
176
     1
 62
   257
176
     1
 90
        1
176
     1
 90
        1
176
     1
 40
1.0
176
     1
 90
        8
176
     1
 62
   257
176
     1
 40
1.0
176
     1
 90
        1
176
     1
 90
        6
176
     1
 90
        2
176
     1
 62
     7
176
     1
 90
        3
176
     1
 90
        0
176
     1
 90
        0
176
     1
290
     0
176
     1
 90
       13
176
     1
 40
0.0
176
     1
 90
        0
176
     1
290
     0
176
     1
290
     1
176
     1
290
     1
176
     1
290
     0
176
     1
290
     0
176
     1
290
     0
176
     1
290
     0
176
     1
290
     0
176
     1
290
     0
176
     1
 90
       50
176
     1
 40
0.0
176
     1
 40
1.0
176
     1
 90
        0
176
     1
 62
   178
420
        0
176
     1
 90
       50
176
     1
 90
        3
176
     1
 62
     5
420
      255
176
     1
290
     0
176
     1
 90
       50
176
     1
 90
       50
176
     1
 90
       50
176
     1
290
     0
176
     1
 90
       50
176
     1
 62
   256
176
     0
 40
1.0
176
     0
 90
        2
176
     1
  1
strokes_ogs.tif
176
     1
290
     0
176
     1
 40
1.0
176
     1
 40
1.0
176
     1
  0
VISUALSTYLE
  5
42
102
{ACAD_REACTORS
330
2A
102
}
330
2A
100
AcDbVisualStyle
  2
Shaded
 70
    27
177
     3
291
     0
 70
    58
 90
        2
176
     1
 90
        2
176
     1
 90
        1
176
     1
 90
        2
176
     1
 40
0.6
176
     1
 40
30.0
176
     1
 62
     7
420
 16777215
176
     1
 90
        0
176
     1
 90
        4
176
     1
 62
     7
176
     1
 62
   257
176
     1
 90
        1
176
     1
 90
        1
176
     1
 40
1.0
176
     1
 90
        8
176
     1
 62
   257
176
     1
 40
1.0
176
     1
 90
        1
176
     1
 90
        6
176
     1
 90
        2
176
     1
 62
     8
420
  7895160
176
     1
 90
        3
176
     1
 90
        0
176
     1
 90
        0
176
     1
290
     0
176
     1
 90
        5
176
     1
 40
0.0
176
     1
 90
        0
176
     1
290
     0
176
     1
290
     1
176
     1
290
     1
176
     1
290
     0
176
     1
290
     0
176
     1
290
     0
176
     1
290
     0
176
     1
290
     0
176
     1
290
     0
176
     1
 90
       50
176
     1
 40
0.0
176
     1
 40
1.0
176
     1
 90
        0
176
     1
 62
   178
420
        0
176
     1
 90
       50
176
     1
 90
        3
176
     1
 62
     5
420
      255
176
     1
290
     0
176
     1
 90
       50
176
     1
 90
       50
176
     1
 90
       50
176
     1
290
     0
176
     1
 90
       50
176
     1
 62
   256
176
     0
 40
1.0
176
     0
 90
        2
176
     1
  1
strokes_ogs.tif
176
     1
290
     0
176
     1
 40
1.0
176
     1
 40
1.0
176
     1
  0
VISUALSTYLE
  5
41
102
{ACAD_REACTORS
330
2A
102
}
330
2A
100
AcDbVisualStyle
  2
Shaded with edges
 70
    26
177
     3
291
     0
 70
    58
 90
        2
176
     1
 90
        2
176
     1
 90
        1
176
     1
 90
        2
176
     1
 40
0.6
176
     1
 40
30.0
176
     1
 62
     7
420
 16777215
176
     1
 90
        1
176
     1
 90
       10
176
     1
 62
     7
176
     1
 62
   257
176
     1
 90
        2
176
     1
 90
        1
176
     1
 40
1.0
176
     1
 90
        8
176
     1
 62
   257
176
     1
 40
1.0
176
     1
 90
        1
176
     1
 90
        6
176
     1
 90
        2
176
     1
 62
     7
176
     1
 90
        3
176
     1
 90
        0
176
     1
 90
        0
176
     1
290
     0
176
     1
 90
        5
176
     1
 40
0.0
176
     1
 90
        0
176
     1
290
     0
176
     1
290
     1
176
     1
290
     1
176
     1
290
     0
176
     1
290
     0
176
     1
290
     0
176
     1
290
     0
176
     1
290
     0
176
     1
290
     0
176
     1
 90
       50
176
     1
 40
0.0
176
     1
 40
1.0
176
     1
 90
        0
176
     1
 62
   178
420
        0
176
     1
 90
       50
176
     1
 90
        3
176
     1
 62
     5
420
      255
176
     1
290
     0
176
     1
 90
       50
176
     1
 90
       50
176
     1
 90
       50
176
     1
290
     0
176
     1
 90
       50
176
     1
 62
   256
176
     0
 40
1.0
176
     0
 90
        2
176
     1
  1
strokes_ogs.tif
176
     1
290
     0
176
     1
 40
1.0
176
     1
 40
1.0
176
     1
  0
VISUALSTYLE
  5
3E
102
{ACAD_REACTORS
330
2A
102
}
330
2A
100
AcDbVisualStyle
  2
Shades of Gray
 70
    23
177
     3
291
     0
 70
    58
 90
        2
176
     1
 90
        2
176
     1
 90
        3
176
     1
 90
        0
176
     1
 40
0.6
176
     1
 40
30.0
176
     1
 62
     7
420
 16777215
176
     1
 90
        2
176
     1
 90
        2
176
     1
 62
     7
176
     1
 62
     7
176
     1
 90
        1
176
     1
 90
        1
176
     1
 40
40.0
176
     1
 90
        8
176
     1
 62
     7
176
     1
 40
1.0
176
     1
 90
        1
176
     1
 90
        6
176
     1
 90
        2
176
     1
 62
     7
176
     1
 90
        3
176
     1
 90
        0
176
     1
 90
        0
176
     1
290
     0
176
     1
 90
        1
176
     1
 40
0.0
176
     1
 90
        0
176
     1
290
     0
176
     1
290
     1
176
     1
290
     1
176
     1
290
     0
176
     1
290
     0
176
     1
290
     0
176
     1
290
     0
176
     1
290
     0
176
     1
290
     0
176
     1
 90
       50
176
     1
 40
0.0
176
     1
 40
1.0
176
     1
 90
        0
176
     1
 62
   178
420
        0
176
     1
 90
       50
176
     1
 90
        3
176
     1
 62
     5
420
      255
176
     1
290
     0
176
     1
 90
       50
176
     1
 90
       50
176
     1
 90
       50
176
     1
290
     0
176
     1
 90
       50
176
     1
 62
   256
176
     0
 40
1.0
176
     0
 90
        2
176
     1
  1
strokes_ogs.tif
176
     1
290
     0
176
     1
 40
1.0
176
     1
 40
1.0
176
     1
  0
VISUALSTYLE
  5
3F
102
{ACAD_REACTORS
330
2A
102
}
330
2A
100
AcDbVisualStyle
  2
Sketchy
 70
    24
177
     3
291
     0
 70
    58
 90
        1
176
     1
 90
        2
176
     1
 90
        2
176
     1
 90
        0
176
     1
 40
0.6
176
     1
 40
30.0
176
     1
 62
     7
420
 16777215
176
     1
 90
        2
176
     1
 90
        2
176
     1
 62
     7
176
     1
 62
     7
176
     1
 90
        1
176
     1
 90
        1
176
     1
 40
40.0
176
     1
 90
       11
176
     1
 62
     7
176
     1
 40
1.0
176
     1
 90
        1
176
     1
 90
        6
176
     1
 90
        2
176
     1
 62
     7
176
     1
 90
        6
176
     1
 90
        0
176
     1
 90
        0
176
     1
290
     0
176
     1
 90
        1
176
     1
 40
0.0
176
     1
 90
        0
176
     1
290
     0
176
     1
290
     1
176
     1
290
     1
176
     1
290
     0
176
     1
290
     0
176
     1
290
     0
176
     1
290
     0
176
     1
290
     0
176
     1
290
     0
176
     1
 90
       50
176
     1
 40
0.0
176
     1
 40
1.0
176
     1
 90
        0
176
     1
 62
   178
420
        0
176
     1
 90
       50
176
     1
 90
        3
176
     1
 62
     5
420
      255
176
     1
290
     0
176
     1
 90
       50
176
     1
 90
       50
176
     1
 90
       50
176
     1
290
     0
176
     1
 90
       50
176
     1
 62
   256
176
     0
 40
1.0
176
     0
 90
        2
176
     1
  1
strokes_ogs.tif
176
     1
290
     0
176
     1
 40
1.0
176
     1
 40
1.0
176
     1
  0
VISUALSTYLE
  5
37
102
{ACAD_REACTORS
330
2A
102
}
330
2A
100
AcDbVisualStyle
  2
Thicken
 70
    13
177
     3
291
     1
 70
    58
 90
        2
176
     1
 90
        2
176
     1
 90
        0
176
     1
 90
        0
176
     1
 40
0.6
176
     1
 40
30.0
176
     1
 62
     7
420
 16777215
176
     1
 90
        1
176
     1
 90
        4
176
     1
 62
     7
176
     1
 62
   257
176
     1
 90
        1
176
     1
 90
        1
176
     1
 40
1.0
176
     1
 90
       12
176
     1
 62
     7
176
     1
 40
1.0
176
     1
 90
        1
176
     1
 90
        6
176
     1
 90
        2
176
     1
 62
     7
176
     1
 90
        5
176
     1
 90
        0
176
     1
 90
        0
176
     1
290
     0
176
     1
 90
        1
176
     1
 40
0.0
176
     1
 90
        0
176
     1
290
     0
176
     1
290
     1
176
     1
290
     1
176
     1
290
     0
176
     1
290
     0
176
     1
290
     0
176
     1
290
     0
176
     1
290
     0
176
     1
290
     0
176
     1
 90
       50
176
     1
 40
0.0
176
     1
 40
1.0
176
     1
 90
        0
176
     1
 62
   178
420
        0
176
     1
 90
       50
176
     1
 90
        3
176
     1
 62
     5
420
      255
176
     1
290
     0
176
     1
 90
       50
176
     1
 90
       50
176
     1
 90
       50
176
     1
290
     0
176
     1
 90
       50
176
     1
 62
   256
176
     0
 40
1.0
176
     0
 90
        2
176
     1
  1
strokes_ogs.tif
176
     1
290
     0
176
     1
 40
1.0
176
     1
 40
1.0
176
     1
  0
VISUALSTYLE
  5
30
102
{ACAD_REACTORS
330
2A
102
}
330
2A
100
AcDbVisualStyle
  2
Wireframe
 70
     5
177
     3
291
     0
 70
    58
 90
        0
176
     1
 90
        2
176
     1
 90
        0
176
     1
 90
        0
176
     1
 40
0.6
176
     1
 40
30.0
176
     1
 62
     7
420
 16777215
176
     1
 90
        1
176
     1
 90
        4
176
     1
 62
     7
176
     1
 62
   257
176
     1
 90
        1
176
     1
 90
        1
176
     1
 40
1.0
176
     1
 90
        0
176
     1
 62
   257
176
     1
 40
1.0
176
     1
 90
        1
176
     1
 90
        6
176
     1
 90
        2
176
     1
 62
     7
176
     1
 90
        3
176
     1
 90
        0
176
     1
 90
        0
176
     1
290
     0
176
     1
 90
        1
176
     1
 40
0.0
176
     1
 90
        0
176
     1
290
     0
176
     1
290
     1
176
     1
290
     1
176
     1
290
     0
176
     1
290
     0
176
     1
290
     0
176
     1
290
     0
176
     1
290
     0
176
     1
290
     0
176
     1
 90
       50
176
     1
 40
0.0
176
     1
 40
1.0
176
     1
 90
        0
176
     1
 62
   178
420
        0
176
     1
 90
       50
176
     1
 90
        3
176
     1
 62
     5
420
      255
176
     1
290
     0
176
     1
 90
       50
176
     1
 90
       50
176
     1
 90
       50
176
     1
290
     0
176
     1
 90
       50
176
     1
 62
   256
176
     0
 40
1.0
176
     0
 90
        2
176
     1
  1
strokes_ogs.tif
176
     1
290
     0
176
     1
 40
1.0
176
     1
 40
1.0
176
     1
  0
VISUALSTYLE
  5
40
102
{ACAD_REACTORS
330
2A
102
}
330
2A
100
AcDbVisualStyle
  2
X-Ray
 70
    25
177
     3
291
     0
 70
    58
 90
        2
176
     1
 90
        2
176
     1
 90
        1
176
     1
 90
        1
176
     1
 40
0.5
176
     1
 40
30.0
176
     1
 62
     7
420
 16777215
176
     1
 90
        1
176
     1
 90
        0
176
     1
 62
     7
176
     1
 62
   257
176
     1
 90
        1
176
     1
 90
        1
176
     1
 40
1.0
176
     1
 90
        8
176
     1
 62
     7
176
     1
 40
1.0
176
     1
 90
        1
176
     1
 90
        6
176
     1
 90
        2
176
     1
 62
     7
176
     1
 90
        3
176
     1
 90
        0
176
     1
 90
        0
176
     1
290
     0
176
     1
 90
       13
176
     1
 40
0.0
176
     1
 90
        0
176
     1
290
     0
176
     1
290
     1
176
     1
290
     1
176
     1
290
     0
176
     1
290
     0
176
     1
290
     0
176
     1
290
     0
176
     1
290
     0
176
     1
290
     0
176
     1
 90
       50
176
     1
 40
0.0
176
     1
 40
1.0
176
     1
 90
        0
176
     1
 62
   178
420
        0
176
     1
 90
       50
176
     1
 90
        3
176
     1
 62
     5
420
      255
176
     1
290
     0
176
     1
 90
       50
176
     1
 90
       50
176
     1
 90
       50
176
     1
290
     0
176
     1
 90
       50
176
     1
 62
   256
176
     0
 40
1.0
176
     0
 90
        2
176
     1
  1
strokes_ogs.tif
176
     1
290
     0
176
     1
 40
1.0
176
     1
 40
1.0
176
     1
  0
DICTIONARYVAR
  5
1AB
102
{ACAD_REACTORS
330
1AA
102
}
330
1AA
100
DictionaryVariables
280
     0
  1
1:1
  0
DICTIONARYVAR
  5
1B0
102
{ACAD_REACTORS
330
1AA
102
}
330
1AA
100
DictionaryVariables
280
     0
  1
Standard
  0
DICTIONARYVAR
  5
1AF
102
{ACAD_REACTORS
330
1AA
102
}
330
1AA
100
DictionaryVariables
280
     0
  1
Standard
  0
DICTIONARY
  5
1AC
330
6A
100
AcDbDictionary
280
     1
281
     1
  3
ACAD_ROUNDTRIP_2008_TABLESTYLE_CELLSTYLEMAP
360
1AD
  0
CELLSTYLEMAP
  5
1AD
102
{ACAD_REACTORS
330
1AC
102
}
330
1AC
100
AcDbCellStyleMap
 90
        3
300
CELLSTYLE
  1
TABLEFORMAT_BEGIN
 90
        5
170
     1
 91
        0
 92
    32768
 62
   257
 93
        1
300
CONTENTFORMAT
  1
CONTENTFORMAT_BEGIN
 90
        0
 91
        0
 92
        4
 93
        0
300

 40
0.0
140
1.0
 94
        5
 62
     0
340
11
144
0.25
309
CONTENTFORMAT_END
171
     1
301
MARGIN
  1
CELLMARGIN_BEGIN
 40
0.06
 40
0.06
 40
0.06
 40
0.06
 40
0.06
 40
0.06
309
CELLMARGIN_END
 94
        6
 95
        1
302
GRIDFORMAT
  1
GRIDFORMAT_BEGIN
 90
        0
 91
        1
 62
     0
 92
       -2
340
14
 93
        0
 40
0.045
309
GRIDFORMAT_END
 95
        2
302
GRIDFORMAT
  1
GRIDFORMAT_BEGIN
 90
        0
 91
        1
 62
     0
 92
       -2
340
14
 93
        0
 40
0.045
309
GRIDFORMAT_END
 95
        4
302
GRIDFORMAT
  1
GRIDFORMAT_BEGIN
 90
        0
 91
        1
 62
     0
 92
       -2
340
14
 93
        0
 40
0.045
309
GRIDFORMAT_END
 95
        8
302
GRIDFORMAT
  1
GRIDFORMAT_BEGIN
 90
        0
 91
        1
 62
     0
 92
       -2
340
14
 93
        0
 40
0.045
309
GRIDFORMAT_END
 95
       16
302
GRIDFORMAT
  1
GRIDFORMAT_BEGIN
 90
        0
 91
        1
 62
     0
 92
       -2
340
14
 93
        0
 40
0.045
309
GRIDFORMAT_END
 95
       32
302
GRIDFORMAT
  1
GRIDFORMAT_BEGIN
 90
        0
 91
        1
 62
     0
 92
       -2
340
14
 93
        0
 40
0.045
309
GRIDFORMAT_END
309
TABLEFORMAT_END
  1
CELLSTYLE_BEGIN
 90
        1
 91
        1
300
_TITLE
309
CELLSTYLE_END
300
CELLSTYLE
  1
TABLEFORMAT_BEGIN
 90
        5
170
     1
 91
        0
 92
        0
 62
   257
 93
        1
300
CONTENTFORMAT
  1
CONTENTFORMAT_BEGIN
 90
        0
 91
        0
 92
        4
 93
        0
300

 40
0.0
140
1.0
 94
        5
 62
     0
340
11
144
0.18
309
CONTENTFORMAT_END
171
     1
301
MARGIN
  1
CELLMARGIN_BEGIN
 40
0.06
 40
0.06
 40
0.06
 40
0.06
 40
0.06
 40
0.06
309
CELLMARGIN_END
 94
        6
 95
        1
302
GRIDFORMAT
  1
GRIDFORMAT_BEGIN
 90
        0
 91
        1
 62
     0
 92
       -2
340
14
 93
        0
 40
0.045
309
GRIDFORMAT_END
 95
        2
302
GRIDFORMAT
  1
GRIDFORMAT_BEGIN
 90
        0
 91
        1
 62
     0
 92
       -2
340
14
 93
        0
 40
0.045
309
GRIDFORMAT_END
 95
        4
302
GRIDFORMAT
  1
GRIDFORMAT_BEGIN
 90
        0
 91
        1
 62
     0
 92
       -2
340
14
 93
        0
 40
0.045
309
GRIDFORMAT_END
 95
        8
302
GRIDFORMAT
  1
GRIDFORMAT_BEGIN
 90
        0
 91
        1
 62
     0
 92
       -2
340
14
 93
        0
 40
0.045
309
GRIDFORMAT_END
 95
       16
302
GRIDFORMAT
  1
GRIDFORMAT_BEGIN
 90
        0
 91
        1
 62
     0
 92
       -2
340
14
 93
        0
 40
0.045
309
GRIDFORMAT_END
 95
       32
302
GRIDFORMAT
  1
GRIDFORMAT_BEGIN
 90
        0
 91
        1
 62
     0
 92
       -2
340
14
 93
        0
 40
0.045
309
GRIDFORMAT_END
309
TABLEFORMAT_END
  1
CELLSTYLE_BEGIN
 90
        2
 91
        1
300
_HEADER
309
CELLSTYLE_END
300
CELLSTYLE
  1
TABLEFORMAT_BEGIN
 90
        5
170
     1
 91
        0
 92
        0
 62
   257
 93
        1
300
CONTENTFORMAT
  1
CONTENTFORMAT_BEGIN
 90
        0
 91
        0
 92
        4
 93
        0
300

 40
0.0
140
1.0
 94
        2
 62
     0
340
11
144
0.18
309
CONTENTFORMAT_END
171
     1
301
MARGIN
  1
CELLMARGIN_BEGIN
 40
0.06
 40
0.06
 40
0.06
 40
0.06
 40
0.06
 40
0.06
309
CELLMARGIN_END
 94
        6
 95
        1
302
GRIDFORMAT
  1
GRIDFORMAT_BEGIN
 90
        0
 91
        1
 62
     0
 92
       -2
340
14
 93
        0
 40
0.045
309
GRIDFORMAT_END
 95
        2
302
GRIDFORMAT
  1
GRIDFORMAT_BEGIN
 90
        0
 91
        1
 62
     0
 92
       -2
340
14
 93
        0
 40
0.045
309
GRIDFORMAT_END
 95
        4
302
GRIDFORMAT
  1
GRIDFORMAT_BEGIN
 90
        0
 91
        1
 62
     0
 92
       -2
340
14
 93
        0
 40
0.045
309
GRIDFORMAT_END
 95
        8
302
GRIDFORMAT
  1
GRIDFORMAT_BEGIN
 90
        0
 91
        1
 62
     0
 92
       -2
340
14
 93
        0
 40
0.045
309
GRIDFORMAT_END
 95
       16
302
GRIDFORMAT
  1
GRIDFORMAT_BEGIN
 90
        0
 91
        1
 62
     0
 92
       -2
340
14
 93
        0
 40
0.045
309
GRIDFORMAT_END
 95
       32
302
GRIDFORMAT
  1
GRIDFORMAT_BEGIN
 90
        0
 91
        1
 62
     0
 92
       -2
340
14
 93
        0
 40
0.045
309
GRIDFORMAT_END
309
TABLEFORMAT_END
  1
CELLSTYLE_BEGIN
 90
        3
 91
        2
300
_DATA
309
CELLSTYLE_END
  0
ENDSEC
  0
EOF
