  0
SECTION
  2
HEADER
  9
$ACADVER
  1
AC1027
  9
$ACADMAINTVER
 70
   105
  9
$DWGCODEPAGE
  3
MAC-ROMAN
  9
$REQUIREDVERSIONS
160
                 0
  9
$INSBASE
 10
0.0
 20
0.0
 30
0.0
  9
$EXTMIN
 10
1.000000000000000E+20
 20
1.000000000000000E+20
 30
1.000000000000000E+20
  9
$EXTMAX
 10
-1.000000000000000E+20
 20
-1.000000000000000E+20
 30
-1.000000000000000E+20
  9
$LIMMIN
 10
0.0
 20
0.0
  9
$LIMMAX
 10
12.0
 20
9.0
  9
$ORTHOMODE
 70
     0
  9
$REGENMODE
 70
     1
  9
$FILLMODE
 70
     1
  9
$QTEXTMODE
 70
     0
  9
$MIRRTEXT
 70
     1
  9
$LTSCALE
 40
1.0
  9
$ATTMODE
 70
     1
  9
$TEXTSIZE
 40
0.2
  9
$TRACEWID
 40
0.05
  9
$TEXTSTYLE
  7
Standard
  9
$CLAYER
  8
0
  9
$CELTYPE
  6
ByLayer
  9
$CECOLOR
 62
   256
  9
$CELTSCALE
 40
1.0
  9
$DISPSILH
 70
     0
  9
$DIMSCALE
 40
1.0
  9
$DIMASZ
 40
0.18
  9
$DIMEXO
 40
0.0625
  9
$DIMDLI
 40
0.38
  9
$DIMRND
 40
0.0
  9
$DIMDLE
 40
0.0
  9
$DIMEXE
 40
0.18
  9
$DIMTP
 40
0.0
  9
$DIMTM
 40
0.0
  9
$DIMTXT
 40
0.18
  9
$DIMCEN
 40
0.09
  9
$DIMTSZ
 40
0.0
  9
$DIMTOL
 70
     0
  9
$DIMLIM
 70
     0
  9
$DIMTIH
 70
     1
  9
$DIMTOH
 70
     1
  9
$DIMSE1
 70
     0
  9
$DIMSE2
 70
     0
  9
$DIMTAD
 70
     0
  9
$DIMZIN
 70
     0
  9
$DIMBLK
  1

  9
$DIMASO
 70
     1
  9
$DIMSHO
 70
     1
  9
$DIMPOST
  1

  9
$DIMAPOST
  1

  9
$DIMALT
 70
     0
  9
$DIMALTD
 70
     2
  9
$DIMALTF
 40
25.4
  9
$DIMLFAC
 40
1.0
  9
$DIMTOFL
 70
     0
  9
$DIMTVP
 40
0.0
  9
$DIMTIX
 70
     0
  9
$DIMSOXD
 70
     0
  9
$DIMSAH
 70
     0
  9
$DIMBLK1
  1

  9
$DIMBLK2
  1

  9
$DIMSTYLE
  2
Standard
  9
$DIMCLRD
 70
     0
  9
$DIMCLRE
 70
     0
  9
$DIMCLRT
 70
     0
  9
$DIMTFAC
 40
1.0
  9
$DIMGAP
 40
0.09
  9
$DIMJUST
 70
     0
  9
$DIMSD1
 70
     0
  9
$DIMSD2
 70
     0
  9
$DIMTOLJ
 70
     1
  9
$DIMTZIN
 70
     0
  9
$DIMALTZ
 70
     0
  9
$DIMALTTZ
 70
     0
  9
$DIMUPT
 70
     0
  9
$DIMDEC
 70
     4
  9
$DIMTDEC
 70
     4
  9
$DIMALTU
 70
     2
  9
$DIMALTTD
 70
     2
  9
$DIMTXSTY
  7
Standard
  9
$DIMAUNIT
 70
     0
  9
$DIMADEC
 70
     0
  9
$DIMALTRND
 40
0.0
  9
$DIMAZIN
 70
     0
  9
$DIMDSEP
 70
    46
  9
$DIMATFIT
 70
     3
  9
$DIMFRAC
 70
     0
  9
$DIMLDRBLK
  1

  9
$DIMLUNIT
 70
     2
  9
$DIMLWD
 70
    -2
  9
$DIMLWE
 70
    -2
  9
$DIMTMOVE
 70
     0
  9
$DIMFXL
 40
1.0
  9
$DIMFXLON
 70
     0
  9
$DIMJOGANG
 40
0.7853981633974483
  9
$DIMTFILL
 70
     0
  9
$DIMTFILLCLR
 70
     0
  9
$DIMARCSYM
 70
     0
  9
$DIMLTYPE
  6

  9
$DIMLTEX1
  6

  9
$DIMLTEX2
  6

  9
$DIMTXTDIRECTION
 70
     0
  9
$LUNITS
 70
     2
  9
$LUPREC
 70
     4
  9
$SKETCHINC
 40
0.1
  9
$FILLETRAD
 40
0.5
  9
$AUNITS
 70
     0
  9
$AUPREC
 70
     0
  9
$MENU
  1
.
  9
$ELEVATION
 40
0.0
  9
$PELEVATION
 40
0.0
  9
$THICKNESS
 40
0.0
  9
$LIMCHECK
 70
     0
  9
$CHAMFERA
 40
0.0
  9
$CHAMFERB
 40
0.0
  9
$CHAMFERC
 40
0.0
  9
$CHAMFERD
 40
0.0
  9
$SKPOLY
 70
     0
  9
$TDCREATE
 40
2458132.600165475
  9
$TDUCREATE
 40
2458132.933498808
  9
$TDUPDATE
 40
2458132.600169166
  9
$TDUUPDATE
 40
2458132.9335025
  9
$TDINDWG
 40
0.0000000116
  9
$TDUSRTIMER
 40
0.0000000116
  9
$USRTIMER
 70
     1
  9
$ANGBASE
 50
0.0
  9
$ANGDIR
 70
     0
  9
$PDMODE
 70
     0
  9
$PDSIZE
 40
0.0
  9
$PLINEWID
 40
0.0
  9
$SPLFRAME
 70
     0
  9
$SPLINETYPE
 70
     6
  9
$SPLINESEGS
 70
     8
  9
$HANDSEED
  5
1E9
  9
$SURFTAB1
 70
     6
  9
$SURFTAB2
 70
     6
  9
$SURFTYPE
 70
     6
  9
$SURFU
 70
     6
  9
$SURFV
 70
     6
  9
$UCSBASE
  2

  9
$UCSNAME
  2

  9
$UCSORG
 10
0.0
 20
0.0
 30
0.0
  9
$UCSXDIR
 10
1.0
 20
0.0
 30
0.0
  9
$UCSYDIR
 10
0.0
 20
1.0
 30
0.0
  9
$UCSORTHOREF
  2

  9
$UCSORTHOVIEW
 70
     0
  9
$UCSORGTOP
 10
0.0
 20
0.0
 30
0.0
  9
$UCSORGBOTTOM
 10
0.0
 20
0.0
 30
0.0
  9
$UCSORGLEFT
 10
0.0
 20
0.0
 30
0.0
  9
$UCSORGRIGHT
 10
0.0
 20
0.0
 30
0.0
  9
$UCSORGFRONT
 10
0.0
 20
0.0
 30
0.0
  9
$UCSORGBACK
 10
0.0
 20
0.0
 30
0.0
  9
$PUCSBASE
  2

  9
$PUCSNAME
  2

  9
$PUCSORG
 10
0.0
 20
0.0
 30
0.0
  9
$PUCSXDIR
 10
1.0
 20
0.0
 30
0.0
  9
$PUCSYDIR
 10
0.0
 20
1.0
 30
0.0
  9
$PUCSORTHOREF
  2

  9
$PUCSORTHOVIEW
 70
     0
  9
$PUCSORGTOP
 10
0.0
 20
0.0
 30
0.0
  9
$PUCSORGBOTTOM
 10
0.0
 20
0.0
 30
0.0
  9
$PUCSORGLEFT
 10
0.0
 20
0.0
 30
0.0
  9
$PUCSORGRIGHT
 10
0.0
 20
0.0
 30
0.0
  9
$PUCSORGFRONT
 10
0.0
 20
0.0
 30
0.0
  9
$PUCSORGBACK
 10
0.0
 20
0.0
 30
0.0
  9
$USERI1
 70
     0
  9
$USERI2
 70
     0
  9
$USERI3
 70
     0
  9
$USERI4
 70
     0
  9
$USERI5
 70
     0
  9
$USERR1
 40
0.0
  9
$USERR2
 40
0.0
  9
$USERR3
 40
0.0
  9
$USERR4
 40
0.0
  9
$USERR5
 40
0.0
  9
$WORLDVIEW
 70
     1
  9
$SHADEDGE
 70
     3
  9
$SHADEDIF
 70
    70
  9
$TILEMODE
 70
     1
  9
$MAXACTVP
 70
    64
  9
$PINSBASE
 10
0.0
 20
0.0
 30
0.0
  9
$PLIMCHECK
 70
     0
  9
$PEXTMIN
 10
1.000000000000000E+20
 20
1.000000000000000E+20
 30
1.000000000000000E+20
  9
$PEXTMAX
 10
-1.000000000000000E+20
 20
-1.000000000000000E+20
 30
-1.000000000000000E+20
  9
$PLIMMIN
 10
0.0
 20
0.0
  9
$PLIMMAX
 10
12.0
 20
9.0
  9
$UNITMODE
 70
     0
  9
$VISRETAIN
 70
     1
  9
$PLINEGEN
 70
     0
  9
$PSLTSCALE
 70
     1
  9
$TREEDEPTH
 70
  3020
  9
$CMLSTYLE
  2
Standard
  9
$CMLJUST
 70
     0
  9
$CMLSCALE
 40
1.0
  9
$PROXYGRAPHICS
 70
     1
  9
$MEASUREMENT
 70
     1
  9
$CELWEIGHT
370
    -1
  9
$ENDCAPS
280
     0
  9
$JOINSTYLE
280
     0
  9
$LWDISPLAY
290
     0
  9
$INSUNITS
 70
     5
  9
$HYPERLINKBASE
  1

  9
$STYLESHEET
  1

  9
$XEDIT
290
     1
  9
$CEPSNTYPE
380
     0
  9
$PSTYLEMODE
290
     1
  9
$FINGERPRINTGUID
  2
{419FC820-F0E1-4D27-A3EF-DD109FAD0EA6}
  9
$VERSIONGUID
  2
{FAEB1C32-E019-11D5-929B-00C0DF256EC4}
  9
$EXTNAMES
290
     1
  9
$PSVPSCALE
 40
0.0
  9
$OLESTARTUP
290
     0
  9
$SORTENTS
280
   127
  9
$INDEXCTL
280
     0
  9
$HIDETEXT
280
     1
  9
$XCLIPFRAME
280
     2
  9
$HALOGAP
280
     0
  9
$OBSCOLOR
 70
   257
  9
$OBSLTYPE
280
     0
  9
$INTERSECTIONDISPLAY
280
     0
  9
$INTERSECTIONCOLOR
 70
   257
  9
$DIMASSOC
280
     2
  9
$PROJECTNAME
  1

  9
$CAMERADISPLAY
290
     0
  9
$LENSLENGTH
 40
50.0
  9
$CAMERAHEIGHT
 40
0.0
  9
$STEPSPERSEC
 40
2.0
  9
$STEPSIZE
 40
6.0
  9
$3DDWFPREC
 40
2.0
  9
$PSOLWIDTH
 40
0.25
  9
$PSOLHEIGHT
 40
4.0
  9
$LOFTANG1
 40
1.570796326794897
  9
$LOFTANG2
 40
1.570796326794897
  9
$LOFTMAG1
 40
0.0
  9
$LOFTMAG2
 40
0.0
  9
$LOFTPARAM
 70
     7
  9
$LOFTNORMALS
280
     1
  9
$LATITUDE
 40
37.795
  9
$LONGITUDE
 40
-122.394
  9
$NORTHDIRECTION
 40
0.0
  9
$TIMEZONE
 70
 -8000
  9
$LIGHTGLYPHDISPLAY
280
     1
  9
$TILEMODELIGHTSYNCH
280
     1
  9
$CMATERIAL
347
44
  9
$SOLIDHIST
280
     0
  9
$SHOWHIST
280
     1
  9
$DWFFRAME
280
     2
  9
$DGNFRAME
280
     2
  9
$REALWORLDSCALE
290
     1
  9
$INTERFERECOLOR
 62
   256
  9
$CSHADOW
280
     0
  9
$SHADOWPLANELOCATION
 40
0.0
  0
ENDSEC
  0
SECTION
  2
CLASSES
  0
CLASS
  1
ACDBDICTIONARYWDFLT
  2
AcDbDictionaryWithDefault
  3
ObjectDBX Classes
 90
        0
 91
        4
280
     0
281
     0
  0
CLASS
  1
VISUALSTYLE
  2
AcDbVisualStyle
  3
ObjectDBX Classes
 90
     4095
 91
        4
280
     0
281
     0
  0
CLASS
  1
MATERIAL
  2
AcDbMaterial
  3
ObjectDBX Classes
 90
     1153
 91
        4
280
     0
281
     0
  0
CLASS
  1
SCALE
  2
AcDbScale
  3
ObjectDBX Classes
 90
     1153
 91
        4
280
     0
281
     0
  0
CLASS
  1
TABLESTYLE
  2
AcDbTableStyle
  3
ObjectDBX Classes
 90
     4095
 91
        4
280
     0
281
     0
  0
CLASS
  1
MLEADERSTYLE
  2
AcDbMLeaderStyle
  3
ACDB_MLEADERSTYLE_CLASS
 90
     4095
 91
        4
280
     0
281
     0
  0
CLASS
  1
SUN
  2
AcDbSun
  3
SCENEOE
 90
     1153
 91
        4
280
     0
281
     0
  0
CLASS
  1
DICTIONARYVAR
  2
AcDbDictionaryVar
  3
ObjectDBX Classes
 90
        0
 91
        4
280
     0
281
     0
  0
CLASS
  1
CELLSTYLEMAP
  2
AcDbCellStyleMap
  3
ObjectDBX Classes
 90
     1152
 91
        4
280
     0
281
     0
  0
ENDSEC
  0
SECTION
  2
TABLES
  0
TABLE
  2
VPORT
  5
8
330
0
100
AcDbSymbolTable
 70
     1
  0
VPORT
  5
29
330
8
100
AcDbSymbolTableRecord
100
AcDbViewportTableRecord
  2
*Active
 70
     0
 10
0.0
 20
0.0
 11
1.0
 21
1.0
 12
10.42990654205607
 22
4.5
 13
0.0
 23
0.0
 14
0.5
 24
0.5
 15
0.5
 25
0.5
 16
0.0
 26
0.0
 36
1.0
 17
0.0
 27
0.0
 37
0.0
 40
9.0
 41
1.972972972850329
 42
50.0
 43
0.0
 44
0.0
 50
0.0
 51
0.0
 71
     0
 72
   100
 73
     1
 74
     3
 75
     0
 76
     0
 77
     0
 78
     0
281
     0
 65
     1
110
0.0
120
0.0
130
0.0
111
1.0
121
0.0
131
0.0
112
0.0
122
1.0
132
0.0
 79
     0
146
0.0
348
2F
 60
     3
 61
     5
292
     1
282
     1
141
0.0
142
0.0
 63
   250
361
6D
  0
ENDTAB
  0
TABLE
  2
LTYPE
  5
5
330
0
100
AcDbSymbolTable
 70
     2
  0
LTYPE
  5
14
330
5
100
AcDbSymbolTableRecord
100
AcDbLinetypeTableRecord
  2
ByBlock
 70
     0
  3

 72
    65
 73
     0
 40
0.0
  0
LTYPE
  5
15
330
5
100
AcDbSymbolTableRecord
100
AcDbLinetypeTableRecord
  2
ByLayer
 70
     0
  3

 72
    65
 73
     0
 40
0.0
  0
LTYPE
  5
16
330
5
100
AcDbSymbolTableRecord
100
AcDbLinetypeTableRecord
  2
Continuous
 70
     0
  3
Solid line
 72
    65
 73
     0
 40
0.0
  0
LTYPE
  5
93
330
5
100
AcDbSymbolTableRecord
100
AcDbLinetypeTableRecord
  2
Dotted_G
 70
     0
  3

 72
    65
 73
     2
 40
0.1001
 49
0.0001
 74
     0
 49
-0.1
 74
     2
 75
     0
340
0
 46
0.0
 50
0.0
 44
0.0
 45
0.0
  9
.
  0
ENDTAB
  0
TABLE
  2
LAYER
  5
2
330
0
100
AcDbSymbolTable
 70
    21
  0
LAYER
  5
10
330
2
100
AcDbSymbolTableRecord
100
AcDbLayerTableRecord
  2
0
 70
     0
 62
     7
  6
Continuous
370
    -3
390
F
347
46
348
0
  0
LAYER
  5
94
330
2
100
AcDbSymbolTableRecord
100
AcDbLayerTableRecord
  2
Stringers
 70
     0
 62
     7
  6
Continuous
370
    -3
390
F
347
46
348
0
  0
LAYER
  5
95
330
2
100
AcDbSymbolTableRecord
100
AcDbLayerTableRecord
  2
Station 6
 70
     0
 62
    -7
  6
Continuous
370
    -3
390
F
347
46
348
0
  0
LAYER
  5
96
330
2
100
AcDbSymbolTableRecord
100
AcDbLayerTableRecord
  2
Station 1
 70
     0
 62
     7
  6
Continuous
370
    -3
390
F
347
46
348
0
  0
LAYER
  5
97
330
2
100
AcDbSymbolTableRecord
100
AcDbLayerTableRecord
  2
Station 2
 70
     0
 62
     7
  6
Continuous
370
    -3
390
F
347
46
348
0
  0
LAYER
  5
98
330
2
100
AcDbSymbolTableRecord
100
AcDbLayerTableRecord
  2
Station 3
 70
     0
 62
     7
  6
Continuous
370
    -3
390
F
347
46
348
0
  0
LAYER
  5
99
330
2
100
AcDbSymbolTableRecord
100
AcDbLayerTableRecord
  2
Station 3.5
 70
     0
 62
    -7
  6
Continuous
370
    -3
390
F
347
46
348
0
  0
LAYER
  5
9A
330
2
100
AcDbSymbolTableRecord
100
AcDbLayerTableRecord
  2
Station 4
 70
     0
 62
    -7
  6
Continuous
370
    -3
390
F
347
46
348
0
  0
LAYER
  5
9B
330
2
100
AcDbSymbolTableRecord
100
AcDbLayerTableRecord
  2
Station 5
 70
     0
 62
    -7
  6
Continuous
370
    -3
390
F
347
46
348
0
  0
LAYER
  5
9C
330
2
100
AcDbSymbolTableRecord
100
AcDbLayerTableRecord
  2
Station 7
 70
     0
 62
    -7
  6
Continuous
370
    -3
390
F
347
46
348
0
  0
LAYER
  5
9D
330
2
100
AcDbSymbolTableRecord
100
AcDbLayerTableRecord
  2
Station 7.5
 70
     0
 62
    -7
  6
Continuous
370
    -3
390
F
347
46
348
0
  0
LAYER
  5
9E
330
2
100
AcDbSymbolTableRecord
100
AcDbLayerTableRecord
  2
Station 8
 70
     0
 62
    -7
  6
Continuous
370
    -3
390
F
347
46
348
0
  0
LAYER
  5
9F
330
2
100
AcDbSymbolTableRecord
100
AcDbLayerTableRecord
  2
Station 9
 70
     0
 62
    -7
  6
Continuous
370
    -3
390
F
347
46
348
0
  0
LAYER
  5
A0
330
2
100
AcDbSymbolTableRecord
100
AcDbLayerTableRecord
  2
Station 10
 70
     0
 62
    -7
  6
Continuous
370
    -3
390
F
347
46
348
0
  0
LAYER
  5
A1
330
2
100
AcDbSymbolTableRecord
100
AcDbLayerTableRecord
  2
Hatchways
 70
     0
 62
     7
  6
Continuous
370
    -3
390
F
347
46
348
0
  0
LAYER
  5
A2
330
2
100
AcDbSymbolTableRecord
100
AcDbLayerTableRecord
  2
Sections
 70
     0
 62
     7
  6
Continuous
370
    -3
390
F
347
46
348
0
  0
LAYER
  5
A3
330
2
100
AcDbSymbolTableRecord
100
AcDbLayerTableRecord
  2
Plan
 70
     0
 62
     7
  6
Continuous
370
    -3
390
F
347
46
348
0
  0
LAYER
  5
A4
330
2
100
AcDbSymbolTableRecord
100
AcDbLayerTableRecord
  2
Layer1
 70
     0
 62
     7
  6
Continuous
370
    -3
390
F
347
46
348
0
  0
LAYER
  5
A5
330
2
100
AcDbSymbolTableRecord
100
AcDbLayerTableRecord
  2
Text
 70
     0
 62
     7
  6
Continuous
370
    -3
390
F
347
46
348
0
  0
LAYER
  5
A6
330
2
100
AcDbSymbolTableRecord
100
AcDbLayerTableRecord
  2
Centers
 70
     0
 62
     7
  6
Continuous
370
    -3
390
F
347
46
348
0
  0
LAYER
  5
A7
330
2
100
AcDbSymbolTableRecord
100
AcDbLayerTableRecord
  2
Construction
 70
     0
 62
     7
  6
Continuous
370
    -3
390
F
347
46
348
0
  0
ENDTAB
  0
TABLE
  2
STYLE
  5
3
330
0
100
AcDbSymbolTable
 70
     4
  0
STYLE
  5
11
330
3
100
AcDbSymbolTableRecord
100
AcDbTextStyleTableRecord
  2
Standard
 70
     0
 40
0.0
 41
1.0
 50
0.0
 71
     0
 42
0.2
  3
txt
  4

  0
STYLE
  5
6E
330
3
100
AcDbSymbolTableRecord
100
AcDbTextStyleTableRecord
  2
OdaShxStyle
 70
     0
 40
0.0
 41
1.0
 50
0.0
 71
     0
 42
0.2
  3
txt
  4

  0
STYLE
  5
6F
330
3
100
AcDbSymbolTableRecord
100
AcDbTextStyleTableRecord
  2
OdaTtfStyle
 70
     0
 40
0.0
 41
1.0
 50
0.0
 71
     0
 42
0.2
  3
VERDANA.TTF
  4

1001
ACAD
1000
Verdana
1071
       34
  0
STYLE
  5
70
330
3
100
AcDbSymbolTableRecord
100
AcDbTextStyleTableRecord
  2

 70
     1
 40
0.0
 41
1.0
 50
0.0
 71
     0
 42
0.2
  3
ltypeshp.shx
  4

  0
ENDTAB
  0
TABLE
  2
VIEW
  5
6
330
0
100
AcDbSymbolTable
 70
     0
  0
ENDTAB
  0
TABLE
  2
UCS
  5
7
330
0
100
AcDbSymbolTable
 70
     0
  0
ENDTAB
  0
TABLE
  2
APPID
  5
9
330
0
100
AcDbSymbolTable
 70
     1
  0
APPID
  5
12
330
9
100
AcDbSymbolTableRecord
100
AcDbRegAppTableRecord
  2
ACAD
 70
     0
  0
ENDTAB
  0
TABLE
  2
DIMSTYLE
  5
A
330
0
100
AcDbSymbolTable
 70
     9
100
AcDbDimStyleTable
  0
DIMSTYLE
105
27
330
A
100
AcDbSymbolTableRecord
100
AcDbDimStyleTableRecord
  2
Standard
 70
     0
178
     0
340
11
  0
DIMSTYLE
105
71
330
A
100
AcDbSymbolTableRecord
100
AcDbDimStyleTableRecord
  2
OdaDimStyle0
 70
     0
178
     0
340
11
  0
DIMSTYLE
105
72
330
A
100
AcDbSymbolTableRecord
100
AcDbDimStyleTableRecord
  2
OdaDimStyle1
 70
     0
178
     0
340
11
  0
DIMSTYLE
105
73
330
A
100
AcDbSymbolTableRecord
100
AcDbDimStyleTableRecord
  2
OdaDimStyle2
 70
     0
178
     0
340
11
342
74
  0
DIMSTYLE
105
7A
330
A
100
AcDbSymbolTableRecord
100
AcDbDimStyleTableRecord
  2
OdaDimStyle3
 70
     0
178
     0
340
11
342
7B
  0
DIMSTYLE
105
7E
330
A
100
AcDbSymbolTableRecord
100
AcDbDimStyleTableRecord
  2
OdaDimStyle4
 70
     0
178
     0
340
11
342
7F
  0
DIMSTYLE
105
83
330
A
100
AcDbSymbolTableRecord
100
AcDbDimStyleTableRecord
  2
OdaDimStyle5
 70
     0
178
     0
340
11
  0
DIMSTYLE
105
84
330
A
100
AcDbSymbolTableRecord
100
AcDbDimStyleTableRecord
  2
OdaDimStyle6
 70
     0
178
     0
340
11
342
85
  0
DIMSTYLE
105
8D
330
A
100
AcDbSymbolTableRecord
100
AcDbDimStyleTableRecord
  2
OdaDimStyle7
 70
     0
178
     0
340
11
342
8E
  0
ENDTAB
  0
TABLE
  2
BLOCK_RECORD
  5
1
330
0
100
AcDbSymbolTable
 70
     6
  0
BLOCK_RECORD
  5
1F
330
1
100
AcDbSymbolTableRecord
100
AcDbBlockTableRecord
  2
*Model_Space
340
22
 70
     0
280
     1
281
     0
  0
BLOCK_RECORD
  5
1B
330
1
100
AcDbSymbolTableRecord
100
AcDbBlockTableRecord
  2
*Paper_Space
340
1E
 70
     0
280
     1
281
     0
  0
BLOCK_RECORD
  5
23
330
1
100
AcDbSymbolTableRecord
100
AcDbBlockTableRecord
  2
*Paper_Space0
340
26
 70
     0
280
     1
281
     0
  0
BLOCK_RECORD
  5
74
330
1
100
AcDbSymbolTableRecord
100
AcDbBlockTableRecord
  2
_CLOSEDBLANK
340
0
 70
     0
280
     1
281
     0
  0
BLOCK_RECORD
  5
7B
330
1
100
AcDbSymbolTableRecord
100
AcDbBlockTableRecord
  2
_NONE
340
0
 70
     0
280
     1
281
     0
  0
BLOCK_RECORD
  5
7F
330
1
100
AcDbSymbolTableRecord
100
AcDbBlockTableRecord
  2
_OBLIQUE
340
0
 70
     0
280
     1
281
     0
  0
BLOCK_RECORD
  5
85
330
1
100
AcDbSymbolTableRecord
100
AcDbBlockTableRecord
  2
_DOT
340
0
 70
     0
280
     1
281
     0
  0
BLOCK_RECORD
  5
8E
330
1
100
AcDbSymbolTableRecord
100
AcDbBlockTableRecord
  2
_DOTBLANK
340
0
 70
     0
280
     1
281
     0
  0
ENDTAB
  0
ENDSEC
  0
SECTION
  2
BLOCKS
  0
BLOCK
  5
20
330
1F
100
AcDbEntity
  8
0
100
AcDbBlockBegin
  2
*Model_Space
 70
     0
 10
0.0
 20
0.0
 30
0.0
  3
*Model_Space
  1

  0
ENDBLK
  5
21
330
1F
100
AcDbEntity
  8
0
100
AcDbBlockEnd
  0
BLOCK
  5
1C
330
1B
100
AcDbEntity
 67
     1
  8
0
100
AcDbBlockBegin
  2
*Paper_Space
 70
     0
 10
0.0
 20
0.0
 30
0.0
  3
*Paper_Space
  1

  0
ENDBLK
  5
1D
330
1B
100
AcDbEntity
 67
     1
  8
0
100
AcDbBlockEnd
  0
BLOCK
  5
24
330
23
100
AcDbEntity
  8
0
100
AcDbBlockBegin
  2
*Paper_Space0
 70
     0
 10
0.0
 20
0.0
 30
0.0
  3
*Paper_Space0
  1

  0
ENDBLK
  5
25
330
23
100
AcDbEntity
  8
0
100
AcDbBlockEnd
  0
BLOCK
  5
75
330
74
100
AcDbEntity
  8
0
100
AcDbBlockBegin
  2
_CLOSEDBLANK
 70
     0
 10
0.0
 20
0.0
 30
0.0
  3
_CLOSEDBLANK
  1

  0
LINE
  5
77
330
74
100
AcDbEntity
  8
0
  6
ByBlock
 62
     0
370
    -2
100
AcDbLine
 10
-1.0
 20
0.166667
 30
0.0
 11
0.0
 21
0.0
 31
0.0
  0
LINE
  5
78
330
74
100
AcDbEntity
  8
0
  6
ByBlock
 62
     0
370
    -2
100
AcDbLine
 10
0.0
 20
0.0
 30
0.0
 11
-1.0
 21
-0.166667
 31
0.0
  0
LINE
  5
79
330
74
100
AcDbEntity
  8
0
  6
ByBlock
 62
     0
370
    -2
100
AcDbLine
 10
-1.0
 20
0.166667
 30
0.0
 11
-1.0
 21
-0.166667
 31
0.0
  0
ENDBLK
  5
76
330
74
100
AcDbEntity
  8
0
100
AcDbBlockEnd
  0
BLOCK
  5
7C
330
7B
100
AcDbEntity
  8
0
100
AcDbBlockBegin
  2
_NONE
 70
     0
 10
0.0
 20
0.0
 30
0.0
  3
_NONE
  1

  0
ENDBLK
  5
7D
330
7B
100
AcDbEntity
  8
0
100
AcDbBlockEnd
  0
BLOCK
  5
80
330
7F
100
AcDbEntity
  8
0
100
AcDbBlockBegin
  2
_OBLIQUE
 70
     0
 10
0.0
 20
0.0
 30
0.0
  3
_OBLIQUE
  1

  0
LINE
  5
82
330
7F
100
AcDbEntity
  8
0
  6
ByBlock
 62
     0
370
    -2
100
AcDbLine
 10
-0.5
 20
-0.5
 30
0.0
 11
0.5
 21
0.5
 31
0.0
  0
ENDBLK
  5
81
330
7F
100
AcDbEntity
  8
0
100
AcDbBlockEnd
  0
BLOCK
  5
86
330
85
100
AcDbEntity
  8
0
100
AcDbBlockBegin
  2
_DOT
 70
     0
 10
0.0
 20
0.0
 30
0.0
  3
_DOT
  1

  0
POLYLINE
  5
88
330
85
100
AcDbEntity
  8
0
  6
ByBlock
 62
     0
100
AcDb2dPolyline
 66
     1
 10
0.0
 20
0.0
 30
0.0
 70
     1
 40
0.5
 41
0.5
  0
VERTEX
  5
8A
330
88
100
AcDbEntity
  8
0
  6
ByBlock
 62
     0
100
AcDbVertex
100
AcDb2dVertex
 10
-0.25
 20
0.0
 30
0.0
 42
1.0
  0
VERTEX
  5
8B
330
88
100
AcDbEntity
  8
0
  6
ByBlock
 62
     0
100
AcDbVertex
100
AcDb2dVertex
 10
0.25
 20
0.0
 30
0.0
 42
1.0
  0
SEQEND
  5
8C
330
88
100
AcDbEntity
  8
0
  6
ByBlock
 62
     0
  0
LINE
  5
89
330
85
100
AcDbEntity
  8
0
  6
ByBlock
 62
     0
370
    -2
100
AcDbLine
 10
-0.5
 20
0.0
 30
0.0
 11
-1.0
 21
0.0
 31
0.0
  0
ENDBLK
  5
87
330
85
100
AcDbEntity
  8
0
100
AcDbBlockEnd
  0
BLOCK
  5
8F
330
8E
100
AcDbEntity
  8
0
100
AcDbBlockBegin
  2
_DOTBLANK
 70
     0
 10
0.0
 20
0.0
 30
0.0
  3
_DOTBLANK
  1

  0
CIRCLE
  5
91
330
8E
100
AcDbEntity
  8
0
  6
ByBlock
 62
     0
370
    -2
100
AcDbCircle
 10
0.0
 20
0.0
 30
0.0
 40
0.5
  0
LINE
  5
92
330
8E
100
AcDbEntity
  8
0
  6
ByBlock
 62
     0
370
    -2
100
AcDbLine
 10
-0.5
 20
0.0
 30
0.0
 11
-1.0
 21
0.0
 31
0.0
  0
ENDBLK
  5
90
330
8E
100
AcDbEntity
  8
0
100
AcDbBlockEnd
  0
ENDSEC
  0
SECTION
  2
ENTITIES
  0
CIRCLE
  5
A8
330
1F
100
AcDbEntity
  8
Station 2
 62
     7
370
     9
100
AcDbCircle
 10
-14.04149914479687
 20
75.6279194464417
 30
0.0
 40
0.2399999999999984
210
0.0
220
0.0
230
-1.0
  0
ARC
  5
A9
330
1F
100
AcDbEntity
  8
Station 2
 62
     7
370
     9
100
AcDbCircle
 10
-11.16160935034813
 20
76.46829720187671
 30
0.0
 40
0.6350000000000057
210
0.0
220
0.0
230
-1.0
100
AcDbArc
 50
324.6582319011616
 51
10.14452119141826
  0
LINE
  5
AA
330
1F
100
AcDbEntity
  8
Station 2
 62
     7
370
     9
100
AcDbLine
 10
15.64526841835007
 20
75.3483216544998
 30
0.0
 11
13.14807516607866
 21
71.82636950964596
 31
0.0
  0
LINE
  5
AB
330
1F
100
AcDbEntity
  8
Station 2
 62
     7
370
     9
100
AcDbLine
 10
10.5365365494627
 20
76.58014081409148
 30
0.0
 11
10.73908797315872
 21
77.71216242199421
 31
0.0
  0
CIRCLE
  5
AC
330
1F
100
AcDbEntity
  8
Station 2
 62
     7
370
     9
100
AcDbCircle
 10
-12.30630112542488
 20
73.1806581539828
 30
0.0
 40
0.1999999999999993
210
0.0
220
0.0
230
-1.0
  0
CIRCLE
  5
AD
330
1F
100
AcDbEntity
  8
Station 2
 62
     7
370
     9
100
AcDbCircle
 10
-13.46315764494018
 20
74.81224725766515
 30
0.0
 40
0.1999999999999993
210
0.0
220
0.0
230
-1.0
  0
CIRCLE
  5
AE
330
1F
100
AcDbEntity
  8
Station 2
 62
     7
370
     9
100
AcDbCircle
 10
-12.3340384166838
 20
74.92907545248998
 30
0.0
 40
0.2399999999999949
210
0.0
220
0.0
230
-1.0
  0
CIRCLE
  5
AF
330
1F
100
AcDbEntity
  8
Station 2
 62
     7
370
     9
100
AcDbCircle
 10
-13.05693565590615
 20
75.80408634555539
 30
0.0
 40
0.1999999999999993
210
0.0
220
0.0
230
-1.0
  0
ARC
  5
B0
330
1F
100
AcDbEntity
  8
Station 2
 62
     7
370
     9
100
AcDbCircle
 10
-12.57724191806982
 20
73.00953239064233
 30
0.0
 40
0.6349999999999928
210
0.0
220
0.0
230
-1.0
100
AcDbArc
 50
305.3380393036664
 51
350.8243298420983
  0
CIRCLE
  5
B1
330
1F
100
AcDbEntity
  8
Station 2
 62
     7
370
     9
100
AcDbCircle
 10
-11.08839929809406
 20
76.15631446477914
 30
0.0
 40
0.2000000000000011
210
0.0
220
0.0
230
-1.0
  0
CIRCLE
  5
B2
330
1F
100
AcDbEntity
  8
Station 2
 62
     7
370
     9
100
AcDbCircle
 10
-12.07266747700011
 20
75.98020040516727
 30
0.0
 40
0.2000000000000011
210
0.0
220
0.0
230
-1.0
  0
LINE
  5
B3
330
1F
100
AcDbEntity
  8
Station 2
 62
     7
370
     9
100
AcDbLine
 10
18.64525393134286
 20
80.94806501353922
 30
0.0
 11
22.90180710027601
 21
80.18644447698202
 31
0.0
  0
LINE
  5
B4
330
1F
100
AcDbEntity
  8
Station 2
 62
     7
370
     9
100
AcDbLine
 10
23.70116345867973
 20
78.58792641898452
 30
0.0
 11
14.51818664806554
 21
65.63658400891349
 31
0.0
  0
CIRCLE
  5
B5
330
1F
100
AcDbEntity
  8
Station 2
 62
     7
370
     9
100
AcDbCircle
 10
-20.79098210326764
 20
77.23247766043362
 30
0.0
 40
0.1999999999999993
210
0.0
220
0.0
230
-1.0
  0
LINE
  5
B6
330
1F
100
AcDbEntity
  8
Station 2
 62
     7
370
     9
100
AcDbLine
 10
22.50032153263026
 20
79.09001794411803
 30
0.0
 11
22.71797778227992
 21
79.17843252566881
 31
0.0
  0
LINE
  5
B7
330
1F
100
AcDbEntity
  8
Station 2
 62
     7
370
     9
100
AcDbLine
 10
3.055352412287268
 20
59.27755642601172
 30
0.0
 11
11.463025679762
 21
63.11050152959324
 31
0.0
  0
LINE
  5
B8
330
1F
100
AcDbEntity
  8
Station 2
 62
     7
370
     9
100
AcDbLine
 10
2.536834906620925
 20
60.42841681098118
 30
0.0
 11
10.92730368660471
 21
64.25351862023022
 31
0.0
  0
ARC
  5
B9
330
1F
100
AcDbEntity
  8
Station 2
 62
     7
370
     9
100
AcDbCircle
 10
-12.3340384166838
 20
74.92907545248998
 30
0.0
 40
7.619999999999989
210
0.0
220
0.0
230
-1.0
100
AcDbArc
 50
144.6582357221435
 51
170.8243247729407
  0
LINE
  5
BA
330
1F
100
AcDbEntity
  8
Station 2
 62
     7
370
     9
100
AcDbLine
 10
22.50032242503099
 20
79.09001794411803
 30
0.0
 11
13.47327116019099
 21
66.35858735299709
 31
0.0
  0
CIRCLE
  5
BB
330
1F
100
AcDbEntity
  8
Station 2
 62
     7
370
     9
100
AcDbCircle
 10
-20.9631016140903
 20
79.03998893710042
 30
0.0
 40
0.1999999999999993
210
0.0
220
0.0
230
-1.0
  0
CIRCLE
  5
BC
330
1F
100
AcDbEntity
  8
Station 2
 62
     7
370
     9
100
AcDbCircle
 10
-19.15767488578494
 20
71.09740523012559
 30
0.0
 40
0.6349999999999995
210
0.0
220
0.0
230
-1.0
  0
CIRCLE
  5
BD
330
1F
100
AcDbEntity
  8
Station 2
 62
     7
370
     9
100
AcDbCircle
 10
-20.24020437486794
 20
78.164978044035
 30
0.0
 40
0.240000000000002
210
0.0
220
0.0
230
-1.0
  0
CIRCLE
  5
BE
330
1F
100
AcDbEntity
  8
Station 2
 62
     7
370
     9
100
AcDbCircle
 10
-19.97883343518425
 20
79.21610299671228
 30
0.0
 40
0.2000000000000028
210
0.0
220
0.0
230
-1.0
  0
ARC
  5
BF
330
1F
100
AcDbEntity
  8
Station 2
 62
     7
370
     9
100
AcDbCircle
 10
-19.06777530853227
 20
79.70419979342172
 30
0.0
 40
0.6350000000000057
210
0.0
220
0.0
230
-1.0
100
AcDbArc
 50
324.6582319011616
 51
10.14452119141703
  0
CIRCLE
  5
C0
330
1F
100
AcDbEntity
  8
Station 2
 62
     7
370
     9
100
AcDbCircle
 10
-8.697218943907654
 20
69.56616381934099
 30
0.0
 40
0.6350000000000016
210
0.0
220
0.0
230
-1.0
  0
CIRCLE
  5
C1
330
1F
100
AcDbEntity
  8
Centers
 62
     7
370
     9
100
AcDbCircle
 10
-15.00276508543516
 20
65.23784375000002
 30
0.0
 40
0.0199999999999996
210
0.0
220
0.0
230
-1.0
  0
CIRCLE
  5
C2
330
1F
100
AcDbEntity
  8
Centers
 62
     7
370
     9
100
AcDbCircle
 10
-8.697218051506916
 20
69.56616381934099
 30
0.0
 40
0.0199999999999996
210
0.0
220
0.0
230
-1.0
  0
CIRCLE
  5
C3
330
1F
100
AcDbEntity
  8
Centers
 62
     7
370
     9
100
AcDbCircle
 10
-9.402765085435163
 20
61.43784375000002
 30
0.0
 40
0.0199999999999996
210
0.0
220
0.0
230
-1.0
  0
CIRCLE
  5
C4
330
1F
100
AcDbEntity
  8
Centers
 62
     7
370
     9
100
AcDbCircle
 10
-23.60276508543516
 20
79.53784375000001
 30
0.0
 40
0.0199999999999996
210
0.0
220
0.0
230
-1.0
  0
CIRCLE
  5
C5
330
1F
100
AcDbEntity
  8
Centers
 62
     7
370
     9
100
AcDbCircle
 10
15.69659912725103
 20
76.301941158455
 30
0.0
 40
0.0199999999999996
  0
CIRCLE
  5
C6
330
1F
100
AcDbEntity
  8
Plan
 62
     7
370
     9
100
AcDbCircle
 10
-9.648031063271066
 20
54.26243750000004
 30
0.0
 40
0.1600000000000001
210
0.0
220
0.0
230
-1.0
  0
CIRCLE
  5
C7
330
1F
100
AcDbEntity
  8
Centers
 62
     7
370
     9
100
AcDbCircle
 10
-9.402765085435163
 20
55.43784375000001
 30
0.0
 40
0.0199999999999996
210
0.0
220
0.0
230
-1.0
  0
MTEXT
  5
C8
330
1F
100
AcDbEntity
  8
Station 2
 62
     7
370
     9
100
AcDbMText
 10
6.402916666666667
 20
49.05452544949591
 30
0.0
 40
0.4233333459496498
 41
6.190336971524517
 46
0.0
 71
     1
 72
     1
  1
{\C7;\l\Fplotter|b0|i0|c00|p34;97.0 cm \P}
 73
     1
 44
1.0
  0
LINE
  5
C9
330
1F
100
AcDbEntity
  8
Station 2
 62
     7
370
     9
100
AcDbLine
 10
10.0377659778359
 20
55.43784375000001
 30
0.0
 11
14.90276535985459
 21
43.23784250824781
 31
0.0
  0
LINE
  5
CA
330
1F
100
AcDbEntity
  8
Station 2
 62
     7
370
     9
100
AcDbLine
 10
8.82255158341013
 20
55.17981908981016
 30
0.0
 11
0.857765609035496
 21
51.63784367094181
 31
0.0
  0
ARC
  5
CB
330
1F
100
AcDbEntity
  8
Station 2
 62
     7
370
     9
100
AcDbCircle
 10
9.4027659778359
 20
55.43784375000001
 30
0.0
 40
0.6350000000000027
100
AcDbArc
 50
203.9749884862289
 51
0.0
  0
ARC
  5
CC
330
1F
100
AcDbEntity
  8
Station 2
 62
     7
370
     9
100
AcDbCircle
 10
-4.427872458499666
 20
71.69317286094494
 30
0.0
 40
7.620000000000013
210
0.0
220
0.0
230
-1.0
100
AcDbArc
 50
144.6582357221433
 51
170.8243247729407
  0
ARC
  5
CD
330
1F
100
AcDbEntity
  8
Station 2
 62
     7
370
     9
100
AcDbCircle
 10
-20.48340787625397
 20
76.24543498218735
 30
0.0
 40
0.6350000000000086
210
0.0
220
0.0
230
-1.0
100
AcDbArc
 50
305.3380393036662
 51
350.8243298420971
  0
CIRCLE
  5
CE
330
1F
100
AcDbEntity
  8
Station 2
 62
     7
370
     9
100
AcDbCircle
 10
23.6027659778359
 20
79.53784375000001
 30
0.0
 40
0.9549999999999983
  0
LINE
  5
CF
330
1F
100
AcDbEntity
  8
Station 2
 62
     7
370
     9
100
AcDbLine
 10
1.241366690957437
 20
84.18403002831379
 30
0.0
 11
23.01245873724207
 21
80.28855165704674
 31
0.0
  0
LINE
  5
D0
330
1F
100
AcDbEntity
  8
Station 2
 62
     7
370
     9
100
AcDbLine
 10
1.0212020999835
 20
82.93325412548101
 30
0.0
 11
22.50032242503099
 21
79.09001794411803
 31
0.0
  0
CIRCLE
  5
D1
330
1F
100
AcDbEntity
  8
Station 2
 62
     7
370
     9
100
AcDbCircle
 10
9.4027659778359
 20
61.43784375000002
 30
0.0
 40
0.6349999999999998
  0
LINE
  5
D2
330
1F
100
AcDbEntity
  8
Station 2
 62
     7
370
     9
100
AcDbLine
 10
8.293234757819683
 20
70.03142316066781
 30
0.0
 11
15.61629025510091
 21
64.79951546043655
 31
0.0
  0
LINE
  5
D3
330
1F
100
AcDbEntity
  8
Station 2
 62
     7
370
     9
100
AcDbLine
 10
8.302142965219968
 20
70.04398697811834
 30
0.0
 11
12.03546900601764
 21
61.85483093655326
 31
0.0
  0
LINE
  5
D4
330
1F
100
AcDbEntity
  8
Station 2
 62
     7
370
     9
100
AcDbLine
 10
22.71447589911933
 20
79.17766885774391
 30
0.0
 11
20.21727776224186
 21
75.65570982381617
 31
0.0
  0
LINE
  5
D5
330
1F
100
AcDbEntity
  8
Station 2
 62
     7
370
     9
100
AcDbLine
 10
18.46454283507145
 20
79.93810486596686
 30
0.0
 11
22.71447589911933
 21
79.17766885774391
 31
0.0
  0
CIRCLE
  5
D6
330
1F
100
AcDbEntity
  8
Layer1
 62
     7
370
     9
100
AcDbCircle
 10
9.4027659778359
 20
61.43784375000002
 30
0.0
 40
0.5099999999999998
  0
CIRCLE
  5
D7
330
1F
100
AcDbEntity
  8
Layer1
 62
     7
370
     9
100
AcDbCircle
 10
15.0027659778359
 20
65.23784375000002
 30
0.0
 40
0.509999999999998
  0
CIRCLE
  5
D8
330
1F
100
AcDbEntity
  8
Layer1
 62
     7
370
     9
100
AcDbCircle
 10
19.15767488578494
 20
71.09740523012559
 30
0.0
 40
0.5100000000000016
  0
CIRCLE
  5
D9
330
1F
100
AcDbEntity
  8
Layer1
 62
     7
370
     9
100
AcDbCircle
 10
23.6027659778359
 20
79.53784375000001
 30
0.0
 40
0.8300000000000018
  0
LINE
  5
DA
330
1F
100
AcDbEntity
  8
Station 2
 62
     7
370
     9
100
AcDbLine
 10
23.55143437653421
 20
78.58422424604484
 30
0.0
 11
21.0542411242628
 21
75.06227210119096
 31
0.0
  0
LINE
  5
DB
330
1F
100
AcDbEntity
  8
Station 2
 62
     7
370
     9
100
AcDbLine
 10
18.44270250764684
 20
79.81604340563648
 30
0.0
 11
18.64525393134286
 21
80.94806501353922
 31
0.0
  0
LINE
  5
DC
330
1F
100
AcDbEntity
  8
Station 2
 62
     7
370
     9
100
AcDbLine
 10
20.11612429548689
 20
75.72743134195021
 30
0.0
 11
21.0542411242628
 21
75.06227210119096
 31
0.0
  0
CIRCLE
  5
DD
330
1F
100
AcDbEntity
  8
Centers
 62
     7
370
     9
100
AcDbCircle
 10
-12.30630112542488
 20
73.1806581539828
 30
0.0
 40
0.0199999999999996
210
0.0
220
0.0
230
-1.0
  0
CIRCLE
  5
DE
330
1F
100
AcDbEntity
  8
Centers
 62
     7
370
     9
100
AcDbCircle
 10
-12.8848161450835
 20
73.9965750688886
 30
0.0
 40
0.0199999999999996
210
0.0
220
0.0
230
-1.0
  0
CIRCLE
  5
DF
330
1F
100
AcDbEntity
  8
Centers
 62
     7
370
     9
100
AcDbCircle
 10
-12.3340384166838
 20
74.92907545248998
 30
0.0
 40
0.0199999999999996
210
0.0
220
0.0
230
-1.0
  0
CIRCLE
  5
E0
330
1F
100
AcDbEntity
  8
Centers
 62
     7
370
     9
100
AcDbCircle
 10
-13.46315764494018
 20
74.81224725766515
 30
0.0
 40
0.0199999999999996
210
0.0
220
0.0
230
-1.0
  0
CIRCLE
  5
E1
330
1F
100
AcDbEntity
  8
Centers
 62
     7
370
     9
100
AcDbCircle
 10
-14.04149914479687
 20
75.6279194464417
 30
0.0
 40
0.0199999999999996
210
0.0
220
0.0
230
-1.0
  0
CIRCLE
  5
E2
330
1F
100
AcDbEntity
  8
Centers
 62
     7
370
     9
100
AcDbCircle
 10
-13.05693565590615
 20
75.80408634555539
 30
0.0
 40
0.0199999999999996
210
0.0
220
0.0
230
-1.0
  0
CIRCLE
  5
E3
330
1F
100
AcDbEntity
  8
Centers
 62
     7
370
     9
100
AcDbCircle
 10
-12.07266747700011
 20
75.98020040516727
 30
0.0
 40
0.0200000000000014
210
0.0
220
0.0
230
-1.0
  0
CIRCLE
  5
E4
330
1F
100
AcDbEntity
  8
Centers
 62
     7
370
     9
100
AcDbCircle
 10
-11.08839929809406
 20
76.15631446477914
 30
0.0
 40
0.0200000000000014
210
0.0
220
0.0
230
-1.0
  0
CIRCLE
  5
E5
330
1F
100
AcDbEntity
  8
Centers
 62
     7
370
     9
100
AcDbCircle
 10
-19.15767467614794
 20
71.09740393772039
 30
0.0
 40
0.0199999999999996
210
0.0
220
0.0
230
-1.0
  0
ARC
  5
E6
330
1F
100
AcDbEntity
  8
Station 3
 62
     7
370
     9
100
AcDbCircle
 10
20.90276597783591
 20
4.199171874999995
 30
0.0
 40
0.6350000000000035
100
AcDbArc
 50
216.2388786429795
 51
334.5197772065243
  0
CIRCLE
  5
E7
330
1F
100
AcDbEntity
  8
Centers
 62
     7
370
     9
100
AcDbCircle
 10
-13.60276508543516
 20
0.6991718749999937
 30
0.0
 40
0.0199999999999996
210
0.0
220
0.0
230
-1.0
  0
CIRCLE
  5
E8
330
1F
100
AcDbEntity
  8
Station 3
 62
     7
370
     9
100
AcDbCircle
 10
28.70276597783593
 20
25.79917187499999
 30
0.0
 40
0.9550000000000018
  0
LINE
  5
E9
330
1F
100
AcDbEntity
  8
Station 3
 62
     7
370
     9
100
AcDbLine
 10
21.83137192011988
 20
28.52532981603252
 30
0.0
 11
16.71134762050945
 21
30.81608968206282
 31
0.0
  0
CIRCLE
  5
EA
330
1F
100
AcDbEntity
  8
Station 3
 62
     7
370
     9
100
AcDbCircle
 10
13.6027659778359
 20
6.699171874999992
 30
0.0
 40
0.6349999999999998
  0
ARC
  5
EB
330
1F
100
AcDbEntity
  8
Station 3
 62
     7
370
     9
100
AcDbCircle
 10
-14.40316298181109
 20
15.3424621733691
 30
0.0
 40
6.350000000000001
210
0.0
220
0.0
230
-1.0
100
AcDbArc
 50
213.2067393168561
 51
257.2981773678345
  0
CIRCLE
  5
EC
330
1F
100
AcDbEntity
  8
Station 3
 62
     7
370
     9
100
AcDbCircle
 10
20.90276597783591
 20
10.19917187499999
 30
0.0
 40
0.634999999999998
  0
CIRCLE
  5
ED
330
1F
100
AcDbEntity
  8
Station 3
 62
     7
370
     9
100
AcDbCircle
 10
-14.76508853961336
 20
14.82070083845675
 30
0.0
 40
0.6349999999999998
210
0.0
220
0.0
230
-1.0
  0
CIRCLE
  5
EE
330
1F
100
AcDbEntity
  8
Station 3
 62
     7
370
     9
100
AcDbCircle
 10
-19.84737516570872
 20
22.90772432450012
 30
0.0
 40
0.6350000000000016
210
0.0
220
0.0
230
-1.0
  0
LINE
  5
EF
330
1F
100
AcDbEntity
  8
Station 3
 62
     7
370
     9
100
AcDbLine
 10
1.578230523051772
 20
4.640651944460723
 30
0.0
 11
16.07862752702696
 21
7.908942242829827
 31
0.0
  0
LINE
  5
F0
330
1F
100
AcDbEntity
  8
Station 3
 62
     7
370
     9
100
AcDbLine
 10
22.3500387968155
 20
29.68459021431188
 30
0.0
 11
17.23001452691603
 21
31.97535006704913
 31
0.0
  0
LINE
  5
F1
330
1F
100
AcDbEntity
  8
Station 3
 62
     7
370
     9
100
AcDbLine
 10
20.77881623120033
 20
11.16928045631526
 30
0.0
 11
25.64405252879503
 21
18.60223250895314
 31
0.0
  0
LINE
  5
F2
330
1F
100
AcDbEntity
  8
Station 3
 62
     7
370
     9
100
AcDbLine
 10
1.29898643218246
 20
5.879571932883935
 30
0.0
 11
15.79938343615765
 21
9.147862231253038
 31
0.0
  0
ARC
  5
F3
330
1F
100
AcDbEntity
  8
Station 2
 62
     7
370
     9
100
AcDbCircle
 10
8.667407984599775
 20
20.35577382817093
 30
0.0
 40
20.26671532484161
100
AcDbArc
 50
285.8896804472488
 51
305.3412881940355
  0
ARC
  5
F4
330
1F
100
AcDbEntity
  8
Station 2
 62
     7
370
     9
100
AcDbCircle
 10
-15.69659912725103
 20
76.301941158455
 30
0.0
 40
0.955000000000015
210
0.0
220
0.0
230
-1.0
100
AcDbArc
 50
273.0811004521298
 51
42.7782765510138
  0
LINE
  5
F5
330
1F
100
AcDbEntity
  8
Station 2
 62
     7
370
     9
100
AcDbLine
 10
12.20995833730276
 20
72.49152875040521
 30
0.0
 11
13.14807516607866
 21
71.82636950964596
 31
0.0
  0
CIRCLE
  5
F6
330
1F
100
AcDbEntity
  8
Station 2
 62
     7
370
     9
100
AcDbCircle
 10
-12.8848161450835
 20
73.9965750688886
 30
0.0
 40
0.1999999999999993
210
0.0
220
0.0
230
-1.0
  0
LINE
  5
F7
330
1F
100
AcDbEntity
  8
Station 2
 62
     7
370
     9
100
AcDbLine
 10
10.73908797315872
 20
77.71216242199421
 30
0.0
 11
14.99564114209186
 21
76.950541885437
 31
0.0
  0
CIRCLE
  5
F8
330
1F
100
AcDbEntity
  8
Station 2
 62
     7
370
     9
100
AcDbCircle
 10
-18.9945652562782
 20
79.39221705632416
 30
0.0
 40
0.2000000000000028
210
0.0
220
0.0
230
-1.0
  0
ARC
  5
F9
330
1F
100
AcDbEntity
  8
Station 2
 62
     7
370
     9
100
AcDbCircle
 10
-8.293234757819683
 20
70.03142316066781
 30
0.0
 40
6.35000000000001
210
0.0
220
0.0
230
-1.0
100
AcDbArc
 50
215.3380393036666
 51
245.4923959894143
  0
CIRCLE
  5
FA
330
1F
100
AcDbEntity
  8
Station 2
 62
     7
370
     9
100
AcDbCircle
 10
-20.21246708360902
 20
76.41656074552783
 30
0.0
 40
0.1999999999999993
210
0.0
220
0.0
230
-1.0
  0
CIRCLE
  5
FB
330
1F
100
AcDbEntity
  8
Station 2
 62
     7
370
     9
100
AcDbCircle
 10
-21.94766510298101
 20
78.86382203798671
 30
0.0
 40
0.2399999999999984
210
0.0
220
0.0
230
-1.0
  0
CIRCLE
  5
FC
330
1F
100
AcDbEntity
  8
Station 2
 62
     7
370
     9
100
AcDbCircle
 10
-21.36932360312433
 20
78.04814984921016
 30
0.0
 40
0.1999999999999993
210
0.0
220
0.0
230
-1.0
  0
ARC
  5
FD
330
1F
100
AcDbEntity
  8
Station 2
 62
     7
370
     9
100
AcDbCircle
 10
-8.302142965219968
 20
70.04398697811834
 30
0.0
 40
7.620000000000005
210
0.0
220
0.0
230
-1.0
100
AcDbArc
 50
215.3380393036666
 51
245.4923959894143
  0
CIRCLE
  5
FE
330
1F
100
AcDbEntity
  8
Station 2
 62
     7
370
     9
100
AcDbCircle
 10
15.0027659778359
 20
65.23784375000002
 30
0.0
 40
0.6349999999999998
  0
CIRCLE
  5
FF
330
1F
100
AcDbEntity
  8
Station 3
 62
     7
370
     9
100
AcDbCircle
 10
24.9027659778359
 20
16.29917187499999
 30
0.0
 40
0.6350000000000016
  0
LINE
  5
100
330
1F
100
AcDbEntity
  8
Station 3
 62
     7
370
     9
100
AcDbLine
 10
28.22179212635431
 20
24.97413247434508
 30
0.0
 11
26.65800356485849
 21
24.46352682163412
 31
0.0
  0
LINE
  5
101
330
1F
100
AcDbEntity
  8
Station 3
 62
     7
370
     9
100
AcDbLine
 10
19.71620735630212
 20
11.86481074249091
 30
0.0
 11
24.55108157209442
 21
19.25137657985551
 31
0.0
  0
ARC
  5
102
330
1F
100
AcDbEntity
  8
Station 3
 62
     7
370
     9
100
AcDbCircle
 10
-14.40316298181108
 20
15.34246217336909
 30
0.0
 40
7.620000000000006
210
0.0
220
0.0
230
-1.0
100
AcDbArc
 50
213.2067393168561
 51
257.2981773678345
  0
LINE
  5
103
330
1F
100
AcDbEntity
  8
Station 3
 62
     7
370
     9
100
AcDbLine
 10
19.23803734085394
 20
22.7290279169691
 30
0.0
 11
26.80399679724789
 21
17.85498909160741
 31
0.0
  0
LINE
  5
104
330
1F
100
AcDbEntity
  8
Station 3
 62
     7
370
     9
100
AcDbLine
 10
19.23803734085394
 20
22.7290279169691
 30
0.0
 11
22.91362965792377
 21
30.94425895501175
 31
0.0
  0
LINE
  5
105
330
1F
100
AcDbEntity
  8
Station 3
 62
     7
370
     9
100
AcDbLine
 10
14.40316298181108
 20
15.34246217336909
 30
0.0
 11
16.38205811395582
 21
6.562714223913266
 31
0.0
  0
LINE
  5
106
330
1F
100
AcDbEntity
  8
Station 3
 62
     7
370
     9
100
AcDbLine
 10
14.40316298181108
 20
15.34246217336909
 30
0.0
 11
21.93346209526296
 21
10.41350738944725
 31
0.0
  0
ELLIPSE
  5
107
330
1F
100
AcDbEntity
  8
Station 3
 62
     3
420
    65280
370
     9
100
AcDbEllipse
 10
17.27604927199111
 20
31.2590941055519
 30
0.0
 11
0.7113137718988023
 21
0.0
 31
0.0
210
0.0
220
0.0
230
1.0
 40
0.8927143337952139
 41
3.746911256507027
 42
7.890274626184414
  0
ELLIPSE
  5
108
330
1F
100
AcDbEntity
  8
Station 3
 62
     3
420
    65280
370
     9
100
AcDbEllipse
 10
16.6653110906329
 20
31.53234564356006
 30
0.0
 11
0.7113137718988023
 21
0.0
 31
0.0
210
0.0
220
0.0
230
1.0
 40
0.8927143337952139
 41
4.74868197259462
 42
6.888503910096822
  0
ELLIPSE
  5
109
330
1F
100
AcDbEntity
  8
Station 3
  6
Dotted_G
 62
     7
370
     9
100
AcDbEllipse
 10
16.97068018131201
 20
31.39571987455598
 30
0.0
 11
0.7113137718988023
 21
0.0
 31
0.0
210
0.0
220
0.0
230
1.0
 40
0.8927143337952139
 41
4.71238898038469
 42
10.99557428756428
  0
CIRCLE
  5
10A
330
1F
100
AcDbEntity
  8
Layer1
 62
     7
370
     9
100
AcDbCircle
 10
13.6027659778359
 20
6.699171874999992
 30
0.0
 40
0.5099999999999998
  0
CIRCLE
  5
10B
330
1F
100
AcDbEntity
  8
Layer1
 62
     7
370
     9
100
AcDbCircle
 10
20.90276597783591
 20
10.19917187499999
 30
0.0
 40
0.5100000000000016
  0
CIRCLE
  5
10C
330
1F
100
AcDbEntity
  8
Layer1
 62
     7
370
     9
100
AcDbCircle
 10
24.9027659778359
 20
16.29917187499999
 30
0.0
 40
0.5100000000000016
  0
CIRCLE
  5
10D
330
1F
100
AcDbEntity
  8
Layer1
 62
     7
370
     9
100
AcDbCircle
 10
28.70276597783593
 20
25.79917187499999
 30
0.0
 40
0.8300000000000018
  0
CIRCLE
  5
10E
330
1F
100
AcDbEntity
  8
Centers
 62
     7
370
     9
100
AcDbCircle
 10
-13.60276508543516
 20
6.699171874999992
 30
0.0
 40
0.0199999999999996
210
0.0
220
0.0
230
-1.0
  0
CIRCLE
  5
10F
330
1F
100
AcDbEntity
  8
Centers
 62
     7
370
     9
100
AcDbCircle
 10
-14.76508764721262
 20
14.82070083845675
 30
0.0
 40
0.0200000000000014
210
0.0
220
0.0
230
-1.0
  0
CIRCLE
  5
110
330
1F
100
AcDbEntity
  8
Centers
 62
     7
370
     9
100
AcDbCircle
 10
-20.90276508543516
 20
10.19917187499999
 30
0.0
 40
0.0199999999999996
210
0.0
220
0.0
230
-1.0
  0
CIRCLE
  5
111
330
1F
100
AcDbEntity
  8
Centers
 62
     7
370
     9
100
AcDbCircle
 10
-24.90276508543516
 20
16.29917187499999
 30
0.0
 40
0.0199999999999996
210
0.0
220
0.0
230
-1.0
  0
CIRCLE
  5
112
330
1F
100
AcDbEntity
  8
Centers
 62
     7
370
     9
100
AcDbCircle
 10
-19.84737427330798
 20
22.90772432450012
 30
0.0
 40
0.0199999999999996
210
0.0
220
0.0
230
-1.0
  0
CIRCLE
  5
113
330
1F
100
AcDbEntity
  8
Centers
 62
     7
370
     9
100
AcDbCircle
 10
-28.70276508543516
 20
25.79917187499999
 30
0.0
 40
0.0199999999999996
210
0.0
220
0.0
230
-1.0
  0
CIRCLE
  5
114
330
1F
100
AcDbEntity
  8
Centers
 62
     7
370
     9
100
AcDbCircle
 10
-16.97377515657878
 20
31.39434503916661
 30
0.0
 40
0.0199999999999996
210
0.0
220
0.0
230
-1.0
  0
CIRCLE
  5
115
330
1F
100
AcDbEntity
  8
Station 3
 62
     7
370
     9
100
AcDbCircle
 10
18.36836874276474
 20
30.77037785842525
 30
0.0
 40
0.1999999999999993
  0
CIRCLE
  5
116
330
1F
100
AcDbEntity
  8
Centers
 62
     7
370
     9
100
AcDbCircle
 10
-20.90276508543516
 20
4.199171874999995
 30
0.0
 40
0.0199999999999996
210
0.0
220
0.0
230
-1.0
  0
CIRCLE
  5
117
330
1F
100
AcDbEntity
  8
Plan
 62
     7
370
     9
100
AcDbCircle
 10
-20.44303106327106
 20
3.122515625000008
 30
0.0
 40
0.1600000000000001
210
0.0
220
0.0
230
-1.0
  0
CIRCLE
  5
118
330
1F
100
AcDbEntity
  8
Station 2
 62
     7
370
     9
100
AcDbCircle
 10
-14.2359680815258
 20
75.6279194464417
 30
0.0
 40
0.2399999999999984
  0
ARC
  5
119
330
1F
100
AcDbEntity
  8
Station 2
 62
     7
370
     9
100
AcDbCircle
 10
-4.622341395228601
 20
71.69317286094494
 30
0.0
 40
7.620000000000012
100
AcDbArc
 50
144.6582357221433
 51
170.8243247729407
  0
LINE
  5
11A
330
1F
100
AcDbEntity
  8
Station 2
 62
     7
370
     9
100
AcDbLine
 10
-10.93355690988766
 20
77.71216242199421
 30
0.0
 11
-15.1901100788208
 21
76.950541885437
 31
0.0
  0
CIRCLE
  5
11B
330
1F
100
AcDbEntity
  8
Station 2
 62
     7
370
     9
100
AcDbCircle
 10
-13.07928508181243
 20
73.9965750688886
 30
0.0
 40
0.1999999999999993
  0
LINE
  5
11C
330
1F
100
AcDbEntity
  8
Station 2
 62
     7
370
     9
100
AcDbLine
 10
-12.40442727403169
 20
72.49152875040521
 30
0.0
 11
-13.34254410280759
 21
71.82636950964596
 31
0.0
  0
MTEXT
  5
11D
330
1F
100
AcDbEntity
  8
Station 2
 62
     7
370
     9
100
AcDbMText
 10
-12.49294452395383
 20
49.09673278115331
 30
0.0
 40
0.4233333459496498
 41
7.728029250151516
 46
0.0
 71
     1
 72
     1
  1
{\C7;\l\Fplotter|b0|i0|c00|p34; Station 2\P}
 73
     1
 44
1.0
  0
LINE
  5
11E
330
1F
100
AcDbEntity
  8
Station 2
 62
     7
370
     9
100
AcDbLine
 10
-10.2322340221641
 20
55.43784375000001
 30
0.0
 11
-15.09723446836447
 21
43.23784375
 31
0.0
  0
LINE
  5
11F
330
1F
100
AcDbEntity
  8
Station 2
 62
     7
370
     9
100
AcDbLine
 10
-9.017019703321655
 20
55.17981982822105
 30
0.0
 11
-1.052234022164099
 21
51.63784375000001
 31
0.0
  0
CIRCLE
  5
120
330
1F
100
AcDbEntity
  8
Plan
 62
     7
370
     9
100
AcDbCircle
 10
-9.8425
 20
54.26243750000004
 30
0.0
 40
0.1599999999999984
  0
ARC
  5
121
330
1F
100
AcDbEntity
  8
Station 2
 62
     7
370
     9
100
AcDbCircle
 10
-9.597234022164098
 20
55.43784375000001
 30
0.0
 40
0.6349999999999998
100
AcDbArc
 50
180.0
 51
336.0250696208052
  0
MTEXT
  5
122
330
1F
100
AcDbEntity
  8
Station 2
 62
     7
370
     9
100
AcDbMText
 10
9.498541666666666
 20
-4.093774524556803
 30
0.0
 40
0.4233333459496498
 41
8.471875136172196
 46
0.0
 71
     1
 72
     1
  1
{\C7;\l\Fplotter|b0|i0|c00|p34;154.0 cm \P}
 73
     1
 44
1.0
  0
CIRCLE
  5
123
330
1F
100
AcDbEntity
  8
Plan
 62
     7
370
     9
100
AcDbCircle
 10
-13.92724130295603
 20
-0.4199506769271397
 30
0.0
 40
0.1600000000000001
210
0.0
220
0.0
230
-1.0
  0
MTEXT
  5
124
330
1F
100
AcDbEntity
  8
Text
 62
     7
370
     9
100
AcDbMText
 10
2.850950105554947
 20
60.24966511027106
 30
0.0
 40
0.4233333459496498
 41
4.962623738673017
 46
0.0
 71
     1
 72
     1
  1
{\C7;\l\Fplotter|b0|i0|c00|p34;  -64.8 cm-\P}
 11
0.9099062268405649
 21
0.4148140045330759
 31
0.0
 73
     1
 44
1.0
  0
MTEXT
  5
125
330
1F
100
AcDbEntity
  8
Text
 62
     7
370
     9
100
AcDbMText
 10
1.398126930478987
 20
83.85838193416711
 30
0.0
 40
0.4233333459496498
 41
5.814468672727144
 46
0.0
 71
     1
 72
     1
  1
{\C7;\l\Fplotter|b0|i0|c00|p34;  -46.9 cm-\P}
 11
0.9843666155676035
 21
-0.1761316727791508
 31
0.0
 73
     1
 44
1.0
  0
MTEXT
  5
126
330
1F
100
AcDbEntity
  8
Text
 62
     7
370
     9
100
AcDbMText
 10
1.569885401079467
 20
5.640335068336149
 30
0.0
 40
0.4233333459496497
 41
6.095468949676699
 46
0.0
 71
     1
 72
     1
  1
{\C7;\l\Fplotter|b0|i0|c00|p34;  -100.0 cm-\P}
 11
0.9755275499395371
 21
0.2198772369049698
 31
0.0
 73
     1
 44
1.0
  0
ARC
  5
127
330
1F
100
AcDbEntity
  8
Station 3
 62
     7
370
     9
100
AcDbCircle
 10
-19.2380364484532
 20
22.7290279169691
 30
0.0
 40
7.619999995677383
210
0.0
220
0.0
230
-1.0
100
AcDbArc
 50
114.1043109699122
 51
212.7898898700903
  0
ARC
  5
128
330
1F
100
AcDbEntity
  8
Station 3
 62
     7
370
     9
100
AcDbCircle
 10
-19.2380364484532
 20
22.7290279169691
 30
0.0
 40
6.349999995677378
210
0.0
220
0.0
230
-1.0
100
AcDbArc
 50
114.1043112953773
 51
213.2067393168561
  0
CIRCLE
  5
129
330
1F
100
AcDbEntity
  8
Station 3
  6
Dotted_G
 62
     7
370
     5
100
AcDbCircle
 10
17.75763056140653
 20
31.04362939643341
 30
0.0
 40
0.1999999999999993
  0
MTEXT
  5
12A
330
1F
100
AcDbEntity
  8
Text
 62
     7
370
     9
100
AcDbMText
 10
10.92286629661677
 20
77.53751228721602
 30
0.0
 40
0.4233333459496498
 41
4.024880827379794
 46
0.0
 71
     1
 72
     1
  1
{\C7;\l\Fplotter|b0|i0|c00|p34;-2-\P}
 11
0.9843666155676039
 21
-0.1761316727791492
 31
0.0
 73
     1
 44
1.0
  0
MTEXT
  5
12B
330
1F
100
AcDbEntity
  8
Layer1
 62
     7
370
     9
100
AcDbMText
 10
39.00811047619048
 20
30.45354166666667
 30
0.0
 40
0.635
 41
15.5575
 46
0.0
 71
     1
 72
     1
  1
{\C7;\l\Fplotter|b0|i1|c01|p34;\H1.00x;Version 1.1\P}
 11
0.0
 21
1.0
 31
0.0
 73
     1
 44
1.0
  0
MTEXT
  5
12C
330
1F
100
AcDbEntity
  8
Layer1
 62
     7
370
     9
100
AcDbMText
 10
39.00811047619048
 20
75.53854166666667
 30
0.0
 40
0.635
 41
15.5575
 46
0.0
 71
     1
 72
     1
  1
{\C7;\l\Fplotter|b0|i0|c00|p34; 1992 GBD/DBC \P}
 11
0.0
 21
1.0
 31
0.0
 73
     1
 44
1.0
  0
SPLINE
  5
12D
330
1F
100
AcDbEntity
  8
Layer1
 62
     7
370
     9
100
AcDbSpline
210
0.0
220
0.0
230
1.0
 70
     8
 71
     3
 72
     9
 73
     5
 74
     0
 42
0.000000001
 43
0.0
 40
0.0
 40
0.0
 40
0.0
 40
0.0
 40
0.499967493380112
 40
1.0
 40
1.0
 40
1.0
 40
1.0
 10
26.26686926156514
 20
25.67180010865786
 30
0.0
 10
26.11633395450815
 20
25.40061388295025
 30
0.0
 10
25.81524376554553
 20
24.85820616785218
 30
0.0
 10
26.37707145634138
 20
24.59509230566835
 30
0.0
 10
26.65800356485849
 20
24.46352682163412
 30
0.0
  0
LINE
  5
12E
330
1F
100
AcDbEntity
  8
Station 3
  6
Dotted_G
 62
   230
420
 16711836
370
     5
100
AcDbLine
 10
27.79493358841764
 20
25.5027482372399
 30
0.0
 11
26.48763200192983
 21
25.07589028707037
 31
0.0
  0
LINE
  5
12F
330
1F
100
AcDbEntity
  8
Station 3
 62
     7
370
     9
100
AcDbLine
 10
24.67539764912204
 20
17.12235263554954
 30
0.0
 11
25.61369044472841
 21
18.55584629022066
 31
0.0
  0
LINE
  5
130
330
1F
100
AcDbEntity
  8
Station 3
 62
     7
370
     9
100
AcDbLine
 10
27.82759524681996
 20
26.1814057740438
 30
0.0
 11
26.26686926156514
 21
25.67180010865786
 31
0.0
  0
ARC
  5
131
330
1F
100
AcDbEntity
  8
Station 2
 62
     7
370
     9
100
AcDbCircle
 10
-12.52850735341274
 20
74.92907545248998
 30
0.0
 40
7.619999999999987
100
AcDbArc
 50
144.6582357221435
 51
170.8243247729407
  0
CIRCLE
  5
132
330
1F
100
AcDbEntity
  8
Station 2
 62
     7
370
     9
100
AcDbCircle
 10
-23.7972340221641
 20
79.53784375000001
 30
0.0
 40
0.9549999999999983
  0
CIRCLE
  5
133
330
1F
100
AcDbEntity
  8
Station 2
 62
     7
370
     9
100
AcDbCircle
 10
-20.98545103999657
 20
77.23247766043362
 30
0.0
 40
0.1999999999999993
  0
LINE
  5
134
330
1F
100
AcDbEntity
  8
Station 2
 62
     7
370
     9
100
AcDbLine
 10
-22.69479046935918
 20
79.09001794411803
 30
0.0
 11
-13.66773920451919
 21
66.35858735299709
 31
0.0
  0
LINE
  5
135
330
1F
100
AcDbEntity
  8
Station 2
 62
     7
370
     9
100
AcDbLine
 10
-3.249820456615466
 20
59.27755642601172
 30
0.0
 11
-11.6574937240902
 21
63.11050152959324
 31
0.0
  0
CIRCLE
  5
136
330
1F
100
AcDbEntity
  8
Station 2
 62
     7
370
     9
100
AcDbCircle
 10
-8.89168698823585
 20
69.56616381934099
 30
0.0
 40
0.6349999999999998
  0
CIRCLE
  5
137
330
1F
100
AcDbEntity
  8
Station 2
 62
     7
370
     9
100
AcDbCircle
 10
-12.26713641372904
 20
75.98020040516727
 30
0.0
 40
0.1999999999999993
  0
CIRCLE
  5
138
330
1F
100
AcDbEntity
  8
Centers
 62
     7
370
     9
100
AcDbCircle
 10
-19.35214361287687
 20
71.09740393772039
 30
0.0
 40
0.0199999999999996
  0
CIRCLE
  5
139
330
1F
100
AcDbEntity
  8
Centers
 62
     7
370
     9
100
AcDbCircle
 10
-11.282868234823
 20
76.15631446477914
 30
0.0
 40
0.0199999999999996
  0
CIRCLE
  5
13A
330
1F
100
AcDbEntity
  8
Centers
 62
     7
370
     9
100
AcDbCircle
 10
-12.26713641372904
 20
75.98020040516727
 30
0.0
 40
0.0199999999999996
  0
CIRCLE
  5
13B
330
1F
100
AcDbEntity
  8
Centers
 62
     7
370
     9
100
AcDbCircle
 10
-13.25140459263508
 20
75.80408634555539
 30
0.0
 40
0.0199999999999996
  0
CIRCLE
  5
13C
330
1F
100
AcDbEntity
  8
Centers
 62
     7
370
     9
100
AcDbCircle
 10
-14.2359680815258
 20
75.6279194464417
 30
0.0
 40
0.0199999999999996
  0
CIRCLE
  5
13D
330
1F
100
AcDbEntity
  8
Centers
 62
     7
370
     9
100
AcDbCircle
 10
-13.65762658166912
 20
74.81224725766515
 30
0.0
 40
0.0199999999999996
  0
CIRCLE
  5
13E
330
1F
100
AcDbEntity
  8
Centers
 62
     7
370
     9
100
AcDbCircle
 10
-12.52850735341273
 20
74.92907545248998
 30
0.0
 40
0.0199999999999996
  0
CIRCLE
  5
13F
330
1F
100
AcDbEntity
  8
Centers
 62
     7
370
     9
100
AcDbCircle
 10
-13.07928508181243
 20
73.9965750688886
 30
0.0
 40
0.0199999999999996
  0
CIRCLE
  5
140
330
1F
100
AcDbEntity
  8
Centers
 62
     7
370
     9
100
AcDbCircle
 10
-12.50077006215382
 20
73.1806581539828
 30
0.0
 40
0.0199999999999996
  0
CIRCLE
  5
141
330
1F
100
AcDbEntity
  8
Centers
 62
     7
370
     9
100
AcDbCircle
 10
-15.89106806397996
 20
76.301941158455
 30
0.0
 40
0.0200000000000014
  0
CIRCLE
  5
142
330
1F
100
AcDbEntity
  8
Centers
 62
     7
370
     9
100
AcDbCircle
 10
-9.597234022164098
 20
55.43784375000001
 30
0.0
 40
0.0199999999999996
  0
CIRCLE
  5
143
330
1F
100
AcDbEntity
  8
Station 2
 62
     7
370
     9
100
AcDbCircle
 10
-13.25140459263508
 20
75.80408634555539
 30
0.0
 40
0.1999999999999993
  0
CIRCLE
  5
144
330
1F
100
AcDbEntity
  8
Station 2
 62
     7
370
     9
100
AcDbCircle
 10
-12.52850735341273
 20
74.92907545248998
 30
0.0
 40
0.2399999999999949
  0
CIRCLE
  5
145
330
1F
100
AcDbEntity
  8
Station 2
 62
     7
370
     9
100
AcDbCircle
 10
-13.65762658166912
 20
74.81224725766515
 30
0.0
 40
0.1999999999999993
  0
CIRCLE
  5
146
330
1F
100
AcDbEntity
  8
Station 2
 62
     7
370
     9
100
AcDbCircle
 10
-12.50077006215382
 20
73.1806581539828
 30
0.0
 40
0.1999999999999993
  0
LINE
  5
147
330
1F
100
AcDbEntity
  8
Station 2
 62
     7
370
     9
100
AcDbLine
 10
-10.73100548619164
 20
76.58014081409148
 30
0.0
 11
-10.93355690988766
 21
77.71216242199421
 31
0.0
  0
LINE
  5
148
330
1F
100
AcDbEntity
  8
Station 2
 62
     7
370
     9
100
AcDbLine
 10
-15.839737355079
 20
75.3483216544998
 30
0.0
 11
-13.34254410280759
 21
71.82636950964596
 31
0.0
  0
ARC
  5
149
330
1F
100
AcDbEntity
  8
Station 2
 62
     7
370
     9
100
AcDbCircle
 10
-11.35607828707707
 20
76.46829720187671
 30
0.0
 40
0.6350000000000057
100
AcDbArc
 50
324.6582319011616
 51
10.14452119141826
  0
CIRCLE
  5
14A
330
1F
100
AcDbEntity
  8
Station 2
 62
     7
370
     9
100
AcDbCircle
 10
-20.40693602033796
 20
76.41656074552783
 30
0.0
 40
0.1999999999999993
  0
LINE
  5
14B
330
1F
100
AcDbEntity
  8
Station 2
 62
     7
370
     9
100
AcDbLine
 10
-2.731302950949122
 20
60.42841681098118
 30
0.0
 11
-11.1217717309329
 21
64.25351862023022
 31
0.0
  0
LINE
  5
14C
330
1F
100
AcDbEntity
  8
Station 2
 62
     7
370
     9
100
AcDbLine
 10
-1.215670144311699
 20
82.93325412548101
 30
0.0
 11
-22.69479046935918
 21
79.09001794411803
 31
0.0
  0
CIRCLE
  5
14D
330
1F
100
AcDbEntity
  8
Station 2
 62
     7
370
     9
100
AcDbCircle
 10
-19.35214361287687
 20
71.09740393772039
 30
0.0
 40
0.6350000000000016
  0
LINE
  5
14E
330
1F
100
AcDbEntity
  8
Station 2
 62
     7
370
     9
100
AcDbLine
 10
-8.487702802147881
 20
70.03142316066781
 30
0.0
 11
-15.81075829942911
 21
64.79951546043655
 31
0.0
  0
LINE
  5
14F
330
1F
100
AcDbEntity
  8
Station 2
 62
     7
370
     9
100
AcDbLine
 10
-8.496611009548166
 20
70.04398697811834
 30
0.0
 11
-12.22993705034584
 21
61.85483093655326
 31
0.0
  0
LINE
  5
150
330
1F
100
AcDbEntity
  8
Station 2
 62
     7
370
     9
100
AcDbLine
 10
-18.65901177180039
 20
79.93810486596686
 30
0.0
 11
-22.90894483584826
 21
79.17766885774391
 31
0.0
  0
LINE
  5
151
330
1F
100
AcDbEntity
  8
Station 2
 62
     7
370
     9
100
AcDbLine
 10
-22.90894483584826
 20
79.17766885774391
 30
0.0
 11
-20.41174669897079
 21
75.65570982381617
 31
0.0
  0
CIRCLE
  5
152
330
1F
100
AcDbEntity
  8
Layer1
 62
     7
370
     9
100
AcDbCircle
 10
-9.597234022164098
 20
61.43784375000002
 30
0.0
 40
0.5099999999999998
  0
CIRCLE
  5
153
330
1F
100
AcDbEntity
  8
Layer1
 62
     7
370
     9
100
AcDbCircle
 10
-15.1972340221641
 20
65.23784375000002
 30
0.0
 40
0.5099999999999998
  0
CIRCLE
  5
154
330
1F
100
AcDbEntity
  8
Layer1
 62
     7
370
     9
100
AcDbCircle
 10
-19.35214361287687
 20
71.09740393772039
 30
0.0
 40
0.509999999999998
  0
ARC
  5
155
330
1F
100
AcDbEntity
  8
Station 2
 62
     7
370
     9
100
AcDbCircle
 10
-15.89106806397996
 20
76.301941158455
 30
0.0
 40
0.955000000000015
100
AcDbArc
 50
273.0811004521298
 51
42.7782765510138
  0
LINE
  5
156
330
1F
100
AcDbEntity
  8
Station 2
 62
     7
370
     9
100
AcDbLine
 10
-20.31059323221583
 20
75.72743134195021
 30
0.0
 11
-21.24871006099173
 21
75.06227210119096
 31
0.0
  0
LINE
  5
157
330
1F
100
AcDbEntity
  8
Station 2
 62
     7
370
     9
100
AcDbLine
 10
-18.8397228680718
 20
80.94806501353922
 30
0.0
 11
-23.09627603700494
 21
80.18644447698202
 31
0.0
  0
LINE
  5
158
330
1F
100
AcDbEntity
  8
Station 2
 62
     7
370
     9
100
AcDbLine
 10
-23.74590331326314
 20
78.58422424604484
 30
0.0
 11
-21.24871006099173
 21
75.06227210119096
 31
0.0
  0
LINE
  5
159
330
1F
100
AcDbEntity
  8
Station 2
 62
     7
370
     9
100
AcDbLine
 10
-18.63717144437577
 20
79.81604340563648
 30
0.0
 11
-18.8397228680718
 21
80.94806501353922
 31
0.0
  0
CIRCLE
  5
15A
330
1F
100
AcDbEntity
  8
Centers
 62
     7
370
     9
100
AcDbCircle
 10
-23.7972340221641
 20
79.53784375000001
 30
0.0
 40
0.0199999999999996
  0
CIRCLE
  5
15B
330
1F
100
AcDbEntity
  8
Centers
 62
     7
370
     9
100
AcDbCircle
 10
-9.597234022164098
 20
61.43784375000002
 30
0.0
 40
0.0199999999999996
  0
CIRCLE
  5
15C
330
1F
100
AcDbEntity
  8
Centers
 62
     7
370
     9
100
AcDbCircle
 10
-8.89168698823585
 20
69.56616381934099
 30
0.0
 40
0.0199999999999996
  0
CIRCLE
  5
15D
330
1F
100
AcDbEntity
  8
Centers
 62
     7
370
     9
100
AcDbCircle
 10
-15.1972340221641
 20
65.23784375000002
 30
0.0
 40
0.0200000000000014
  0
ARC
  5
15E
330
1F
100
AcDbEntity
  8
Station 2
 62
     7
370
     9
100
AcDbCircle
 10
-19.2622442452612
 20
79.70419979342172
 30
0.0
 40
0.6350000000000057
100
AcDbArc
 50
324.6582319011616
 51
10.14452119141703
  0
LINE
  5
15F
330
1F
100
AcDbEntity
  8
Station 2
 62
     7
370
     9
100
AcDbLine
 10
-23.89563150300792
 20
78.58792641898452
 30
0.0
 11
-14.71265469239374
 21
65.63658400891349
 31
0.0
  0
CIRCLE
  5
160
330
1F
100
AcDbEntity
  8
Station 2
 62
     7
370
     9
100
AcDbCircle
 10
-22.14213403970994
 20
78.86382203798671
 30
0.0
 40
0.240000000000002
  0
CIRCLE
  5
161
330
1F
100
AcDbEntity
  8
Station 2
 62
     7
370
     9
100
AcDbCircle
 10
-9.597234022164098
 20
61.43784375000002
 30
0.0
 40
0.6349999999999998
  0
LINE
  5
162
330
1F
100
AcDbEntity
  8
Station 2
 62
     7
370
     9
100
AcDbLine
 10
-1.435834735285634
 20
84.18403002831379
 30
0.0
 11
-23.20692678157026
 21
80.28855165704674
 31
0.0
  0
LINE
  5
163
330
1F
100
AcDbEntity
  8
Station 3
 62
     7
370
     9
100
AcDbLine
 10
-19.91067540063032
 20
11.86481074249091
 30
0.0
 11
-24.74554961642261
 21
19.25137657985551
 31
0.0
  0
LINE
  5
164
330
1F
100
AcDbEntity
  8
Station 3
 62
     7
370
     9
100
AcDbLine
 10
-20.97328427552852
 20
11.16928045631526
 30
0.0
 11
-25.83852057312322
 21
18.60223250895314
 31
0.0
  0
LINE
  5
165
330
1F
100
AcDbEntity
  8
Station 3
 62
     7
370
     9
100
AcDbLine
 10
-28.41626106308324
 20
24.97413247434508
 30
0.0
 11
-26.85247250158741
 21
24.46352682163412
 31
0.0
  0
LINE
  5
166
330
1F
100
AcDbEntity
  8
Station 3
 62
     7
370
     9
100
AcDbLine
 10
-1.77269856737997
 20
4.640651944460723
 30
0.0
 11
-16.27309557135515
 21
7.908942242829827
 31
0.0
  0
CIRCLE
  5
167
330
1F
100
AcDbEntity
  8
Station 3
 62
     7
370
     9
100
AcDbCircle
 10
-28.89723402216409
 20
25.79917187499999
 30
0.0
 40
0.9549999999999983
  0
CIRCLE
  5
168
330
1F
100
AcDbEntity
  8
Station 3
 62
     7
370
     9
100
AcDbCircle
 10
-14.95955658394156
 20
14.82070083845675
 30
0.0
 40
0.6349999999999998
  0
CIRCLE
  5
169
330
1F
100
AcDbEntity
  8
Station 3
 62
     7
370
     9
100
AcDbCircle
 10
-20.04184321003692
 20
22.90772432450012
 30
0.0
 40
0.634999999999998
  0
CIRCLE
  5
16A
330
1F
100
AcDbEntity
  8
Layer1
 62
     7
370
     9
100
AcDbCircle
 10
-28.89723402216409
 20
25.79917187499999
 30
0.0
 40
0.8299999999999983
  0
CIRCLE
  5
16B
330
1F
100
AcDbEntity
  8
Station 3
 62
     7
370
     9
100
AcDbCircle
 10
-13.7972340221641
 20
6.699171874999992
 30
0.0
 40
0.6349999999999998
  0
CIRCLE
  5
16C
330
1F
100
AcDbEntity
  8
Centers
 62
     7
370
     9
100
AcDbCircle
 10
-13.7972340221641
 20
0.6991718749999937
 30
0.0
 40
0.0199999999999996
  0
ARC
  5
16D
330
1F
100
AcDbEntity
  8
Station 2
 62
     7
370
     9
100
AcDbCircle
 10
8.861876921328712
 20
20.35577382817094
 30
0.0
 40
20.26671532484162
210
0.0
220
0.0
230
-1.0
100
AcDbArc
 50
285.8896804472488
 51
305.3412881940355
  0
CIRCLE
  5
16E
330
1F
100
AcDbEntity
  8
Centers
 62
     7
370
     9
100
AcDbCircle
 10
-17.16824409330771
 20
31.39434503916661
 30
0.0
 40
0.0199999999999996
  0
CIRCLE
  5
16F
330
1F
100
AcDbEntity
  8
Layer1
 62
     7
370
     9
100
AcDbCircle
 10
-23.7972340221641
 20
79.53784375000001
 30
0.0
 40
0.8300000000000018
  0
CIRCLE
  5
170
330
1F
100
AcDbEntity
  8
Station 2
 62
     7
370
     9
100
AcDbCircle
 10
-11.282868234823
 20
76.15631446477914
 30
0.0
 40
0.1999999999999993
  0
ARC
  5
171
330
1F
100
AcDbEntity
  8
Station 2
 62
     7
370
     9
100
AcDbCircle
 10
-12.77171085479876
 20
73.00953239064233
 30
0.0
 40
0.6349999999999928
100
AcDbArc
 50
305.3380393036664
 51
350.8243298420983
  0
CIRCLE
  5
172
330
1F
100
AcDbEntity
  8
Station 2
 62
     7
370
     9
100
AcDbCircle
 10
-20.17330237191318
 20
79.21610299671228
 30
0.0
 40
0.1999999999999993
  0
ARC
  5
173
330
1F
100
AcDbEntity
  8
Station 2
 62
     7
370
     9
100
AcDbCircle
 10
-8.487702802147881
 20
70.03142316066781
 30
0.0
 40
6.35000000000001
100
AcDbArc
 50
215.3380393036666
 51
245.4923959894143
  0
ARC
  5
174
330
1F
100
AcDbEntity
  8
Station 2
 62
     7
370
     9
100
AcDbCircle
 10
-8.496611009548166
 20
70.04398697811834
 30
0.0
 40
7.620000000000005
100
AcDbArc
 50
215.3380393036666
 51
245.4923959894143
  0
CIRCLE
  5
175
330
1F
100
AcDbEntity
  8
Station 2
 62
     7
370
     9
100
AcDbCircle
 10
-19.18903419300713
 20
79.39221705632416
 30
0.0
 40
0.1999999999999993
  0
ARC
  5
176
330
1F
100
AcDbEntity
  8
Station 2
 62
     7
370
     9
100
AcDbCircle
 10
-20.67787681298289
 20
76.24543498218735
 30
0.0
 40
0.6350000000000044
100
AcDbArc
 50
305.3380393036657
 51
350.824329842097
  0
CIRCLE
  5
177
330
1F
100
AcDbEntity
  8
Station 2
 62
     7
370
     9
100
AcDbCircle
 10
-21.15757055081922
 20
79.03998893710042
 30
0.0
 40
0.1999999999999993
  0
CIRCLE
  5
178
330
1F
100
AcDbEntity
  8
Station 2
 62
     7
370
     9
100
AcDbCircle
 10
-15.1972340221641
 20
65.23784375000002
 30
0.0
 40
0.6350000000000016
  0
CIRCLE
  5
179
330
1F
100
AcDbEntity
  8
Station 2
 62
     7
370
     9
100
AcDbCircle
 10
-20.43467331159687
 20
78.164978044035
 30
0.0
 40
0.2399999999999949
  0
CIRCLE
  5
17A
330
1F
100
AcDbEntity
  8
Station 2
 62
     7
370
     9
100
AcDbCircle
 10
-21.56379253985325
 20
78.04814984921016
 30
0.0
 40
0.1999999999999993
  0
LINE
  5
17B
330
1F
100
AcDbEntity
  8
Station 2
 62
     7
370
     9
100
AcDbLine
 10
-22.69479046935918
 20
79.09001794411803
 30
0.0
 11
-22.91244671900884
 21
79.17843252566881
 31
0.0
  0
LINE
  5
17C
330
1F
100
AcDbEntity
  8
Station 3
  6
Dotted_G
 62
   230
420
 16711836
370
     5
100
AcDbLine
 10
-27.98940252514657
 20
25.5027482372399
 30
0.0
 11
-26.68210093865876
 21
25.07589028707037
 31
0.0
  0
LINE
  5
17D
330
1F
100
AcDbEntity
  8
Station 3
 62
     7
370
     9
100
AcDbLine
 10
-19.43250538518213
 20
22.7290279169691
 30
0.0
 11
-23.10809770225196
 21
30.94425895501175
 31
0.0
  0
LINE
  5
17E
330
1F
100
AcDbEntity
  8
Station 3
 62
     7
370
     9
100
AcDbLine
 10
-14.59763102613928
 20
15.34246217336909
 30
0.0
 11
-16.57652615828402
 21
6.562714223913266
 31
0.0
  0
LINE
  5
17F
330
1F
100
AcDbEntity
  8
Station 3
 62
     7
370
     9
100
AcDbLine
 10
-19.43250538518213
 20
22.7290279169691
 30
0.0
 11
-26.99846484157608
 21
17.85498909160741
 31
0.0
  0
LINE
  5
180
330
1F
100
AcDbEntity
  8
Station 3
 62
     7
370
     9
100
AcDbLine
 10
-14.59763102613928
 20
15.34246217336909
 30
0.0
 11
-22.12793013959115
 21
10.41350738944725
 31
0.0
  0
ELLIPSE
  5
181
330
1F
100
AcDbEntity
  8
Station 3
  6
Dotted_G
 62
     7
370
     9
100
AcDbEllipse
 10
-17.16514911804094
 20
31.39571987455598
 30
0.0
 11
-0.7113137718988023
 21
0.0
 31
0.0
210
0.0
220
0.0
230
-1.0
 40
0.8927143337952139
 41
4.71238898038469
 42
10.99557428756428
  0
ELLIPSE
  5
182
330
1F
100
AcDbEntity
  8
Station 3
 62
     3
420
    65280
370
     9
100
AcDbEllipse
 10
-16.85978002736183
 20
31.53234564356006
 30
0.0
 11
-0.7113137718988023
 21
0.0
 31
0.0
210
0.0
220
0.0
230
-1.0
 40
0.8927143337952139
 41
4.74868197259462
 42
6.888503910096822
  0
ELLIPSE
  5
183
330
1F
100
AcDbEntity
  8
Station 3
 62
     3
420
    65280
370
     9
100
AcDbEllipse
 10
-17.47051820872004
 20
31.2590941055519
 30
0.0
 11
-0.7113137718988023
 21
0.0
 31
0.0
210
0.0
220
0.0
230
-1.0
 40
0.8927143337952139
 41
3.746911256507027
 42
7.890274626184414
  0
LINE
  5
184
330
1F
100
AcDbEntity
  8
Station 3
 62
     7
370
     9
100
AcDbLine
 10
-22.5445068411437
 20
29.68459021431188
 30
0.0
 11
-17.42448257124422
 21
31.97535006704913
 31
0.0
  0
CIRCLE
  5
185
330
1F
100
AcDbEntity
  8
Layer1
 62
     7
370
     9
100
AcDbCircle
 10
-13.7972340221641
 20
6.699171874999992
 30
0.0
 40
0.509999999999998
  0
CIRCLE
  5
186
330
1F
100
AcDbEntity
  8
Layer1
 62
     7
370
     9
100
AcDbCircle
 10
-21.0972340221641
 20
10.19917187499999
 30
0.0
 40
0.5100000000000016
  0
CIRCLE
  5
187
330
1F
100
AcDbEntity
  8
Layer1
 62
     7
370
     9
100
AcDbCircle
 10
-25.09723402216409
 20
16.29917187499999
 30
0.0
 40
0.5100000000000016
  0
CIRCLE
  5
188
330
1F
100
AcDbEntity
  8
Centers
 62
     7
370
     9
100
AcDbCircle
 10
-28.89723402216409
 20
25.79917187499999
 30
0.0
 40
0.0199999999999996
  0
CIRCLE
  5
189
330
1F
100
AcDbEntity
  8
Centers
 62
     7
370
     9
100
AcDbCircle
 10
-20.04184321003692
 20
22.90772432450012
 30
0.0
 40
0.0199999999999996
  0
CIRCLE
  5
18A
330
1F
100
AcDbEntity
  8
Centers
 62
     7
370
     9
100
AcDbCircle
 10
-25.09723402216409
 20
16.29917187499999
 30
0.0
 40
0.0199999999999996
  0
CIRCLE
  5
18B
330
1F
100
AcDbEntity
  8
Centers
 62
     7
370
     9
100
AcDbCircle
 10
-21.0972340221641
 20
10.19917187499999
 30
0.0
 40
0.0199999999999996
  0
CIRCLE
  5
18C
330
1F
100
AcDbEntity
  8
Centers
 62
     7
370
     9
100
AcDbCircle
 10
-14.95955658394156
 20
14.82070083845675
 30
0.0
 40
0.0199999999999996
  0
CIRCLE
  5
18D
330
1F
100
AcDbEntity
  8
Centers
 62
     7
370
     9
100
AcDbCircle
 10
-13.7972340221641
 20
6.699171874999992
 30
0.0
 40
0.0199999999999996
  0
CIRCLE
  5
18E
330
1F
100
AcDbEntity
  8
Station 3
 62
     7
370
     9
100
AcDbCircle
 10
18.56283767949368
 20
30.77037785842525
 30
0.0
 40
0.1999999999999993
210
0.0
220
0.0
230
-1.0
  0
CIRCLE
  5
18F
330
1F
100
AcDbEntity
  8
Plan
 62
     7
370
     9
100
AcDbCircle
 10
-20.6375
 20
3.122515625000008
 30
0.0
 40
0.1600000000000001
  0
CIRCLE
  5
190
330
1F
100
AcDbEntity
  8
Centers
 62
     7
370
     9
100
AcDbCircle
 10
-21.0972340221641
 20
4.199171874999995
 30
0.0
 40
0.0199999999999996
  0
ARC
  5
191
330
1F
100
AcDbEntity
  8
Station 3
 62
     7
370
     9
100
AcDbCircle
 10
-21.0972340221641
 20
4.199171874999995
 30
0.0
 40
0.6350000000000001
100
AcDbArc
 50
205.5714519288047
 51
323.7610747743206
  0
ARC
  5
192
330
1F
100
AcDbEntity
  8
Station 3
 62
     7
370
     9
100
AcDbCircle
 10
-14.59763102613928
 20
15.3424621733691
 30
0.0
 40
6.350000000000001
100
AcDbArc
 50
213.2067393168561
 51
257.2981773678345
  0
LINE
  5
193
330
1F
100
AcDbEntity
  8
Station 3
 62
     7
370
     9
100
AcDbLine
 10
-22.54450684114369
 20
29.68459021431188
 30
0.0
 11
-17.42448257124423
 21
31.97535006704913
 31
0.0
  0
LINE
  5
194
330
1F
100
AcDbEntity
  8
Station 3
 62
     7
370
     9
100
AcDbLine
 10
-22.02583996444806
 20
28.52532981603252
 30
0.0
 11
-16.90581566483764
 21
30.81608968206282
 31
0.0
  0
LINE
  5
195
330
1F
100
AcDbEntity
  8
Layer1
 62
     7
370
     9
100
AcDbLine
 10
-40.005
 20
-14.843125
 30
0.0
 11
-40.005
 21
90.566875
 31
0.0
  0
MTEXT
  5
196
330
1F
100
AcDbEntity
  8
Layer1
 62
     7
370
     9
100
AcDbMText
 10
-39.67141333333333
 20
-14.63145833333333
 30
0.0
 40
0.635
 41
15.5575
 46
0.0
 71
     1
 72
     1
  1
{\C7;\l\Fplotter|b0|i0|c00|p34; 6.6m TWO-HATCH BAIDARKA\P}
 11
0.0
 21
1.0
 31
0.0
 73
     1
 44
1.0
  0
LINE
  5
197
330
1F
100
AcDbEntity
  8
Station 2
 62
     7
370
     9
100
AcDbLine
 10
-13.18135019292987
 20
0.5445364686799038
 30
0.0
 11
-1.052234022164099
 21
-2.500828125000005
 31
0.0
  0
LINE
  5
198
330
1F
100
AcDbEntity
  8
Station 2
 62
     7
370
     9
100
AcDbLine
 10
-15.1020859375
 20
-9.800828125000002
 30
0.0
 11
-21.67003430253891
 21
3.925082767586844
 31
0.0
  0
ARC
  5
199
330
1F
100
AcDbEntity
  8
Station 3
 62
     7
370
     9
100
AcDbCircle
 10
13.6027659778359
 20
0.6991718749999937
 30
0.0
 40
0.6349999999999996
100
AcDbArc
 50
194.0943867754765
 51
14.99206546381748
  0
LINE
  5
19A
330
1F
100
AcDbEntity
  8
Layer1
 62
     7
370
     9
100
AcDbLine
 10
40.005
 20
90.566875
 30
0.0
 11
40.005
 21
-14.843125
 31
0.0
  0
MTEXT
  5
19B
330
1F
100
AcDbEntity
  8
Layer1
 62
     7
370
     9
100
AcDbMText
 10
39.00811047619048
 20
-14.63145833333333
 30
0.0
 40
0.635
 41
15.5575
 46
0.0
 71
     1
 72
     1
  1
{\C7;\l\Fplotter|b0|i0|c00|p34; Sheet No. 4\P}
 11
0.0
 21
1.0
 31
0.0
 73
     1
 44
1.0
  0
LINE
  5
19C
330
1F
100
AcDbEntity
  8
Station 2
 62
     7
370
     9
100
AcDbLine
 10
14.90761700077106
 20
-9.800828125000002
 30
0.0
 11
21.47556536580998
 21
3.925082767586844
 31
0.0
  0
LINE
  5
19D
330
1F
100
AcDbEntity
  8
Station 2
 62
     7
370
     9
100
AcDbLine
 10
12.98688125620093
 20
0.5445364686799038
 30
0.0
 11
0.8577650854351646
 21
-2.500828125000005
 31
0.0
  0
MTEXT
  5
19E
330
1F
100
AcDbEntity
  8
Station 2
 62
     7
370
     9
100
AcDbMText
 10
-17.76146311403579
 20
-4.093774524556803
 30
0.0
 40
0.4233333459496498
 41
9.759536269737577
 46
0.0
 71
     1
 72
     1
  1
{\C7;\l\Fplotter|b0|i0|c00|p34;\H1.00x; Station 3\P}
 73
     1
 44
1.0
  0
CIRCLE
  5
19F
330
1F
100
AcDbEntity
  8
Plan
 62
     7
370
     9
100
AcDbCircle
 10
-14.12171023968497
 20
-0.4199506769271397
 30
0.0
 40
0.1600000000000001
  0
MTEXT
  5
1A0
330
1F
100
AcDbEntity
  8
Text
 62
     7
370
     9
100
AcDbMText
 10
-10.07334895833334
 20
74.5574691368423
 30
0.0
 40
0.4233333459496498
 41
1.77452734375
 46
0.0
 71
     1
 72
     1
  1
{\C7;\l\Fplotter|b0|i1|c01|p34;A=16\P}
 73
     1
 44
1.0
  0
ARC
  5
1A1
330
1F
100
AcDbEntity
  8
Station 3
 62
     7
370
     9
100
AcDbCircle
 10
-19.43250538518213
 20
22.7290279169691
 30
0.0
 40
6.349999995677377
100
AcDbArc
 50
114.1043112953772
 51
213.2067393168561
  0
ARC
  5
1A2
330
1F
100
AcDbEntity
  8
Station 3
 62
     7
370
     9
100
AcDbCircle
 10
-19.43250538518213
 20
22.7290279169691
 30
0.0
 40
7.619999995677383
100
AcDbArc
 50
114.1043109699122
 51
212.7898898700903
  0
CIRCLE
  5
1A3
330
1F
100
AcDbEntity
  8
Station 3
  6
Dotted_G
 62
     7
370
     5
100
AcDbCircle
 10
17.95209949813546
 20
31.04362939643341
 30
0.0
 40
0.1999999999999993
210
0.0
220
0.0
230
-1.0
  0
MTEXT
  5
1A4
330
1F
100
AcDbEntity
  8
Text
 62
     7
370
     9
100
AcDbMText
 10
-14.89062886964169
 20
76.86236086544162
 30
0.0
 40
0.4233333459496498
 41
4.024880827379796
 46
0.0
 71
     1
 72
     1
  1
{\C7;\l\Fplotter|b0|i0|c00|p34;-2-\P}
 11
0.9843666155676039
 21
0.1761316727791491
 31
0.0
 73
     1
 44
1.0
  0
MTEXT
  5
1A5
330
1F
100
AcDbEntity
  8
Layer1
 62
     7
370
     9
100
AcDbMText
 10
-39.73188952380952
 20
75.53854166666667
 30
0.0
 40
0.635
 41
15.5575
 46
0.0
 71
     1
 72
     1
  1
{\C7;\l\Fplotter|b0|i0|c00|p34;\H1.00x;Scale 1:1 \P}
 11
0.0
 21
1.0
 31
0.0
 73
     1
 44
1.0
  0
MTEXT
  5
1A6
330
1F
100
AcDbEntity
  8
Layer1
 62
     7
370
     9
100
AcDbMText
 10
-39.67141333333333
 20
27.87385416666662
 30
0.0
 40
0.635
 41
20.8915
 46
0.0
 71
     1
 72
     1
  1
{\C7;\l\Fplotter|b0|i0|c00|p34;STATIONS 2 & 3\P}
 11
0.0
 21
1.0
 31
0.0
 73
     1
 44
1.0
  0
SPLINE
  5
1A7
330
1F
100
AcDbEntity
  8
Layer1
 62
     7
370
     9
100
AcDbSpline
210
0.0
220
0.0
230
1.0
 70
     8
 71
     3
 72
     9
 73
     5
 74
     0
 42
0.000000001
 43
0.0
 40
0.0
 40
0.0
 40
0.0
 40
0.0
 40
0.499967493380112
 40
1.0
 40
1.0
 40
1.0
 40
1.0
 10
-26.46133819829408
 20
25.67180010865786
 30
0.0
 10
-26.31080289123708
 20
25.40061388295025
 30
0.0
 10
-26.00971270227446
 20
24.85820616785218
 30
0.0
 10
-26.57154039307031
 20
24.59509230566835
 30
0.0
 10
-26.85247250158742
 20
24.46352682163412
 30
0.0
  0
CIRCLE
  5
1A8
330
1F
100
AcDbEntity
  8
Station 3
 62
     7
370
     9
100
AcDbCircle
 10
-21.0972340221641
 20
10.19917187499999
 30
0.0
 40
0.6350000000000016
  0
LINE
  5
1A9
330
1F
100
AcDbEntity
  8
Station 3
 62
     7
370
     9
100
AcDbLine
 10
-24.86986569345023
 20
17.12235263554954
 30
0.0
 11
-25.80815848905659
 21
18.55584629022066
 31
0.0
  0
LINE
  5
1AA
330
1F
100
AcDbEntity
  8
Station 3
 62
     7
370
     9
100
AcDbLine
 10
-1.49345447651066
 20
5.879571932883937
 30
0.0
 11
-15.99385148048585
 21
9.147862231253038
 31
0.0
  0
LINE
  5
1AB
330
1F
100
AcDbEntity
  8
Station 3
 62
     7
370
     9
100
AcDbLine
 10
-28.02206418354889
 20
26.1814057740438
 30
0.0
 11
-26.46133819829407
 21
25.67180010865786
 31
0.0
  0
ARC
  5
1AC
330
1F
100
AcDbEntity
  8
Station 3
 62
     7
370
     9
100
AcDbCircle
 10
-14.59763102613928
 20
15.34246217336909
 30
0.0
 40
7.619999999999995
100
AcDbArc
 50
213.2067393168562
 51
257.2981773678345
  0
CIRCLE
  5
1AD
330
1F
100
AcDbEntity
  8
Station 3
 62
     7
370
     9
100
AcDbCircle
 10
-25.09723402216409
 20
16.29917187499999
 30
0.0
 40
0.6350000000000016
  0
LINE
  5
1AE
330
1F
100
AcDbEntity
  8
Station 2
 62
     7
370
     9
100
AcDbLine
 10
-0.0972344683644671
 20
-9.800828125000002
 30
0.0
 11
14.90761700077106
 21
-9.800828125000002
 31
0.0
  0
CIRCLE
  5
1AF
330
1F
100
AcDbEntity
  8
Plan
 62
     7
370
     9
100
AcDbCircle
 10
-0.0972344683644673
 20
-5.800827855467803
 30
0.0
 40
0.6349999999999999
  0
LINE
  5
1B0
330
1F
100
AcDbEntity
  8
Station 3
 62
     7
370
     9
100
AcDbLine
 10
-17.97312978070246
 20
-3.800827855467803
 30
0.0
 11
17.77866084397352
 21
-3.800827855467803
 31
0.0
  0
ARC
  5
1B1
330
1F
100
AcDbEntity
  8
Station 3
 62
     7
370
     9
100
AcDbCircle
 10
-0.0972340221640988
 20
-2.500828125000005
 30
0.0
 40
0.9549999999999998
100
AcDbArc
 50
180.0
 51
0.0000134452408264
  0
LINE
  5
1B2
330
1F
100
AcDbEntity
  8
Station 3
 62
     7
370
     9
100
AcDbLine
 10
-0.0972340221640988
 20
12.07417187499999
 30
0.0
 11
1.881661109980633
 21
3.294423925544163
 31
0.0
  0
LINE
  5
1B3
330
1F
100
AcDbEntity
  8
Station 2
 62
     7
370
     9
100
AcDbLine
 10
-0.0972340221640987
 20
76.70284375000001
 30
0.0
 11
1.487951052066779
 21
85.56214328666968
 31
0.0
  0
CIRCLE
  5
1B4
330
1F
100
AcDbEntity
  8
Layer1
 62
     7
370
     9
100
AcDbCircle
 10
-0.0972342452642829
 20
84.93784374999993
 30
0.0
 40
0.51
  0
CIRCLE
  5
1B5
330
1F
100
AcDbEntity
  8
Layer1
 62
     7
370
     9
100
AcDbCircle
 10
-0.0972340221640988
 20
57.63784375000002
 30
0.0
 40
0.8300000000000001
  0
ARC
  5
1B6
330
1F
100
AcDbEntity
  8
Station 2
 62
     7
370
     9
100
AcDbCircle
 10
-0.0972340221640988
 20
76.70284375000001
 30
0.0
 40
7.599999999999983
100
AcDbArc
 50
79.8554801405125
 51
100.1445213157095
  0
CIRCLE
  5
1B7
330
1F
100
AcDbEntity
  8
Station 2
 62
     7
370
     9
100
AcDbCircle
 10
-0.0972340221640988
 20
57.63784375000002
 30
0.0
 40
0.955
  0
ARC
  5
1B8
330
1F
100
AcDbEntity
  8
Station 2
 62
     7
370
     9
100
AcDbCircle
 10
-0.0972340221640988
 20
66.19284375000002
 30
0.0
 40
7.600000000000001
100
AcDbArc
 50
245.4923948945371
 51
294.5076051247619
  0
ARC
  5
1B9
330
1F
100
AcDbEntity
  8
Station 2
 62
     7
370
     9
100
AcDbCircle
 10
-0.0972340221640978
 20
66.20632135141877
 30
0.0
 40
6.35
100
AcDbArc
 50
245.4923959894143
 51
294.5076040105857
  0
ARC
  5
1BA
330
1F
100
AcDbEntity
  8
Station 2
 62
     7
370
     9
100
AcDbCircle
 10
0.0972340221640996
 20
76.68252611662673
 30
0.0
 40
6.349999999999997
210
0.0
220
0.0
230
-1.0
100
AcDbArc
 50
79.85547880858256
 51
100.1445211914174
  0
CIRCLE
  5
1BB
330
1F
100
AcDbEntity
  8
Station 2
 62
     7
370
     9
100
AcDbCircle
 10
-0.0972342452642829
 20
84.93784374999993
 30
0.0
 40
0.6349999999999448
  0
CIRCLE
  5
1BC
330
1F
100
AcDbEntity
  8
Station 2
 62
     7
370
     9
100
AcDbCircle
 10
-0.0972340221640988
 20
77.30284375000001
 30
0.0
 40
0.6349999999999999
  0
CIRCLE
  5
1BD
330
1F
100
AcDbEntity
  8
Station 2
 62
     7
370
     9
100
AcDbCircle
 10
-0.0972340221640988
 20
65.59284375000001
 30
0.0
 40
0.6350000000000001
  0
LINE
  5
1BE
330
1F
100
AcDbEntity
  8
Station 2
 62
     7
370
     9
100
AcDbLine
 10
-0.0972346401453613
 20
43.23784375
 30
0.0
 11
14.90276535985459
 21
43.23784250824781
 31
0.0
  0
CIRCLE
  5
1BF
330
1F
100
AcDbEntity
  8
Plan
 62
     7
370
     9
100
AcDbCircle
 10
-0.0972344183938085
 20
47.23784401953222
 30
0.0
 40
0.635
  0
CIRCLE
  5
1C0
330
1F
100
AcDbEntity
  8
Plan
 62
     7
370
     9
100
AcDbCircle
 10
-0.0972344683644671
 20
50.10021093750002
 30
0.0
 40
0.16
  0
LINE
  5
1C1
330
1F
100
AcDbEntity
  8
Station 2
 62
     7
370
     9
100
AcDbLine
 10
-12.70461119062049
 20
49.23784401953221
 30
0.0
 11
12.51014235383287
 21
49.23784401953221
 31
0.0
  0
ARC
  5
1C2
330
1F
100
AcDbEntity
  8
Station 2
 62
     7
370
     9
100
AcDbCircle
 10
-0.0972340221640988
 20
51.63784375000001
 30
0.0
 40
0.9549999999999998
100
AcDbArc
 50
180.0
 51
0.0000051226418775
  0
LINE
  5
1C3
330
1F
100
AcDbEntity
  8
Station 2
 62
     7
370
     9
100
AcDbLine
 10
-0.0972340221640997
 20
66.20632135141877
 30
0.0
 11
3.636092018633572
 21
58.01716530985368
 31
0.0
  0
LINE
  5
1C4
330
1F
100
AcDbEntity
  8
Construction
  6
Dotted_G
 62
     7
370
     5
100
AcDbLine
 10
-40.005
 20
93.74187500000001
 30
0.0
 11
40.005
 21
93.74187500000001
 31
0.0
  0
LINE
  5
1C5
330
1F
100
AcDbEntity
  8
Construction
  6
Dotted_G
 62
     7
370
     5
100
AcDbLine
 10
40.005
 20
-18.01812499999999
 30
0.0
 11
-40.005
 21
-18.01812499999999
 31
0.0
  0
ARC
  5
1C6
330
1F
100
AcDbEntity
  8
Station 3
 62
     7
370
     9
100
AcDbCircle
 10
-13.7972340221641
 20
0.6991718749999937
 30
0.0
 40
0.6349999999999986
100
AcDbArc
 50
165.0079565843949
 51
345.9055936160388
  0
LINE
  5
1C7
330
1F
100
AcDbEntity
  8
Station 3
 62
     7
370
     9
100
AcDbLine
 10
-0.0972340221640988
 20
12.07417187499999
 30
0.0
 11
-2.076129154308831
 21
3.294423925544163
 31
0.0
  0
CIRCLE
  5
1C8
330
1F
100
AcDbEntity
  8
Centers
 62
     7
370
     9
100
AcDbCircle
 10
-0.0972340221640988
 20
3.499171874999995
 30
0.0
 40
0.02
  0
LINE
  5
1C9
330
1F
100
AcDbEntity
  8
Station 2
 62
     7
370
     9
100
AcDbLine
 10
-0.0972340221640988
 20
76.70284375000001
 30
0.0
 11
-1.682419096394977
 21
85.56214328666968
 31
0.0
  0
LINE
  5
1CA
330
1F
100
AcDbEntity
  8
Station 2
 62
     7
370
     9
100
AcDbLine
 10
-0.0972340221640978
 20
66.20632135141877
 30
0.0
 11
-3.83056006296177
 21
58.01716530985368
 31
0.0
  0
CIRCLE
  5
1CB
330
1F
100
AcDbEntity
  8
Centers
 62
     7
370
     9
100
AcDbCircle
 10
-0.0972342452642829
 20
84.93784374999993
 30
0.0
 40
0.02
  0
CIRCLE
  5
1CC
330
1F
100
AcDbEntity
  8
Centers
 62
     7
370
     9
100
AcDbCircle
 10
-0.0972340221640988
 20
77.30284375000001
 30
0.0
 40
0.02
  0
CIRCLE
  5
1CD
330
1F
100
AcDbEntity
  8
Centers
 62
     7
370
     9
100
AcDbCircle
 10
-0.0972340221640988
 20
65.59284375000001
 30
0.0
 40
0.02
  0
CIRCLE
  5
1CE
330
1F
100
AcDbEntity
  8
Centers
 62
     7
370
     9
100
AcDbCircle
 10
-0.0972340221640988
 20
57.63784375000002
 30
0.0
 40
0.02
  0
LINE
  5
1CF
330
1F
100
AcDbEntity
  8
Centers
 62
     7
370
     9
100
AcDbLine
 10
-0.0972344683644671
 20
47.87284401953222
 30
0.0
 11
-0.0972344683644671
 21
85.57284374999983
 31
0.0
  0
CIRCLE
  5
1D0
330
1F
100
AcDbEntity
  8
Centers
 62
     7
370
     9
100
AcDbCircle
 10
-0.0972344183938085
 20
47.23784401953222
 30
0.0
 40
0.02
  0
CIRCLE
  5
1D1
330
1F
100
AcDbEntity
  8
Centers
 62
     7
370
     9
100
AcDbCircle
 10
-0.0972340221640988
 20
51.63784375000001
 30
0.0
 40
0.02
  0
LINE
  5
1D2
330
1F
100
AcDbEntity
  8
Station 2
 62
     7
370
     9
100
AcDbLine
 10
-0.0972344683644671
 20
43.23784375
 30
0.0
 11
-15.09723446836447
 21
43.23784375
 31
0.0
  0
LINE
  5
1D3
330
1F
100
AcDbEntity
  8
Station 2
 62
     7
370
     9
100
AcDbLine
 10
-0.0972344683644671
 20
43.23784375
 30
0.0
 11
-0.0972344683644671
 21
46.60284401953221
 31
0.0
  0
CIRCLE
  5
1D4
330
1F
100
AcDbEntity
  8
Centers
 62
     7
370
     9
100
AcDbCircle
 10
-0.0972344683644673
 20
-5.800827855467803
 30
0.0
 40
0.02
  0
LINE
  5
1D5
330
1F
100
AcDbEntity
  8
Station 2
 62
     7
370
     9
100
AcDbLine
 10
-0.0972344683644671
 20
-9.800828125000002
 30
0.0
 11
-15.1020859375
 21
-9.800828125000002
 31
0.0
  0
LINE
  5
1D6
330
1F
100
AcDbEntity
  8
Station 3
 62
     7
370
     9
100
AcDbLine
 10
-0.0972344683644671
 20
-9.800828125000002
 30
0.0
 11
-0.0972344683644671
 21
-6.435827855467801
 31
0.0
  0
CIRCLE
  5
1D7
330
1F
100
AcDbEntity
  8
Centers
 62
     7
370
     9
100
AcDbCircle
 10
-0.0972340221640988
 20
-2.500828125000005
 30
0.0
 40
0.02
  0
LINE
  5
1D8
330
1F
100
AcDbEntity
  8
Centers
 62
     7
370
     9
100
AcDbLine
 10
-0.0972344683644671
 20
-5.165827855467802
 30
0.0
 11
-0.0972344683644671
 21
32.02934503916661
 31
0.0
  0
LINE
  5
1D9
330
1F
100
AcDbEntity
  8
Layer1
 62
     7
370
     9
100
AcDbLine
 10
-40.005
 20
90.566875
 30
0.0
 11
40.005
 21
90.566875
 31
0.0
  0
LINE
  5
1DA
330
1F
100
AcDbEntity
  8
Layer1
 62
     7
370
     9
100
AcDbLine
 10
40.005
 20
-14.843125
 30
0.0
 11
-40.005
 21
-14.843125
 31
0.0
  0
CIRCLE
  5
1DB
330
1F
100
AcDbEntity
  8
Layer1
 62
     7
370
     9
100
AcDbCircle
 10
-0.0972340221640988
 20
3.499171874999995
 30
0.0
 40
0.8300000000000001
  0
ARC
  5
1DC
330
1F
100
AcDbEntity
  8
Station 3
 62
     7
370
     9
100
AcDbCircle
 10
-0.0972340221640999
 20
12.07417187499999
 30
0.0
 40
6.349999999999996
100
AcDbArc
 50
257.2981773678345
 51
282.7018226321655
  0
ARC
  5
1DD
330
1F
100
AcDbEntity
  8
Station 3
 62
     7
370
     9
100
AcDbCircle
 10
-0.0972340221640988
 20
12.07417187499999
 30
0.0
 40
7.619999999999998
100
AcDbArc
 50
257.2981773678345
 51
282.7018226321655
  0
CIRCLE
  5
1DE
330
1F
100
AcDbEntity
  8
Station 3
 62
     7
370
     9
100
AcDbCircle
 10
-0.0972340221640988
 20
3.499171874999995
 30
0.0
 40
0.955
  0
CIRCLE
  5
1DF
330
1F
100
AcDbEntity
  8
Station 3
 62
     7
370
     9
100
AcDbCircle
 10
-0.0972340221640988
 20
11.43917187499999
 30
0.0
 40
0.6350000000000001
  0
ENDSEC
  0
SECTION
  2
OBJECTS
  0
DICTIONARY
  5
C
330
0
100
AcDbDictionary
281
     1
  3
ACAD_DETAILVIEWSTYLE
350
1E7
  3
ACAD_GROUP
350
D
  3
ACAD_LAYOUT
350
1A
  3
ACAD_MATERIAL
350
43
  3
ACAD_MLEADERSTYLE
350
6B
  3
ACAD_MLINESTYLE
350
17
  3
ACAD_PLOTSETTINGS
350
19
  3
ACAD_PLOTSTYLENAME
350
E
  3
ACAD_SCALELIST
350
47
  3
ACAD_SECTIONVIEWSTYLE
350
1E8
  3
ACAD_TABLESTYLE
350
69
  3
ACAD_VISUALSTYLE
350
2A
  3
AcDbVariableDictionary
350
1E0
  3
ACDB_RECOMPOSE_DATA
350
1E4
  0
SUN
  5
6D
330
29
100
AcDbSun
 90
        1
290
     0
 63
     7
421
 16777215
 40
1.0
291
     1
 91
  2455826
 92
 54000000
292
     0
 70
     2
 71
   256
280
     1
  0
DICTIONARY
  5
1E7
102
{ACAD_REACTORS
330
C
102
}
330
C
100
AcDbDictionary
281
     1
  0
DICTIONARY
  5
D
102
{ACAD_REACTORS
330
C
102
}
330
C
100
AcDbDictionary
281
     1
  0
DICTIONARY
  5
1A
102
{ACAD_REACTORS
330
C
102
}
330
C
100
AcDbDictionary
281
     1
  3
Layout1
350
1E
  3
Layout2
350
26
  3
Model
350
22
  0
DICTIONARY
  5
43
102
{ACAD_REACTORS
330
C
102
}
330
C
100
AcDbDictionary
281
     1
  3
ByBlock
350
45
  3
ByLayer
350
44
  3
Global
350
46
  0
DICTIONARY
  5
6B
102
{ACAD_REACTORS
330
C
102
}
330
C
100
AcDbDictionary
281
     1
  3
Standard
350
6C
  0
DICTIONARY
  5
17
102
{ACAD_REACTORS
330
C
102
}
330
C
100
AcDbDictionary
281
     1
  3
Standard
350
18
  0
DICTIONARY
  5
19
102
{ACAD_REACTORS
330
C
102
}
330
C
100
AcDbDictionary
281
     1
  0
ACDBDICTIONARYWDFLT
  5
E
102
{ACAD_REACTORS
330
C
102
}
330
C
100
AcDbDictionary
281
     1
  3
Normal
350
F
100
AcDbDictionaryWithDefault
340
F
  0
DICTIONARY
  5
47
102
{ACAD_REACTORS
330
C
102
}
330
C
100
AcDbDictionary
281
     1
  3
A0
350
48
  3
A1
350
49
  3
A2
350
4A
  3
A3
350
4B
  3
A4
350
4C
  3
A5
350
4D
  3
A6
350
4E
  3
A7
350
4F
  3
A8
350
50
  3
A9
350
51
  3
B0
350
52
  3
B1
350
53
  3
B2
350
54
  3
B3
350
55
  3
B4
350
56
  3
B5
350
57
  3
B6
350
58
  3
B7
350
59
  3
B8
350
5A
  3
B9
350
5B
  3
C0
350
5C
  3
C1
350
5D
  3
C2
350
5E
  3
C3
350
5F
  3
C4
350
60
  3
C5
350
61
  3
C6
350
62
  3
C7
350
63
  3
C8
350
64
  3
C9
350
65
  3
D0
350
66
  3
D1
350
67
  3
D2
350
68
  0
DICTIONARY
  5
1E8
102
{ACAD_REACTORS
330
C
102
}
330
C
100
AcDbDictionary
281
     1
  0
DICTIONARY
  5
69
102
{ACAD_REACTORS
330
C
102
}
330
C
100
AcDbDictionary
281
     1
  3
Standard
350
6A
  0
DICTIONARY
  5
2A
102
{ACAD_REACTORS
330
C
102
}
330
C
100
AcDbDictionary
281
     1
  3
2dWireframe
350
2F
  3
Basic
350
32
  3
Brighten
350
36
  3
ColorChange
350
3A
  3
Conceptual
350
34
  3
Dim
350
35
  3
EdgeColorOff
350
3D
  3
Facepattern
350
39
  3
Flat
350
2B
  3
FlatWithEdges
350
2C
  3
Gouraud
350
2D
  3
GouraudWithEdges
350
2E
  3
Hidden
350
31
  3
JitterOff
350
3B
  3
Linepattern
350
38
  3
OverhangOff
350
3C
  3
Realistic
350
33
  3
Shaded
350
42
  3
Shaded with edges
350
41
  3
Shades of Gray
350
3E
  3
Sketchy
350
3F
  3
Thicken
350
37
  3
Wireframe
350
30
  3
X-Ray
350
40
  0
DICTIONARY
  5
1E0
102
{ACAD_REACTORS
330
C
102
}
330
C
100
AcDbDictionary
281
     1
  3
CANNOSCALE
350
1E1
  3
CMLEADERSTYLE
350
1E6
  3
CTABLESTYLE
350
1E5
  0
XRECORD
  5
1E4
102
{ACAD_REACTORS
330
C
102
}
330
C
100
AcDbXrecord
280
     1
 90
        1
330
6A
  0
LAYOUT
  5
1E
102
{ACAD_REACTORS
330
1A
102
}
330
1A
100
AcDbPlotSettings
  1

  2
none_device
  4

  6

 40
0.0
 41
0.0
 42
0.0
 43
0.0
 44
0.0
 45
0.0
 46
0.0
 47
0.0
 48
0.0
 49
0.0
140
0.0
141
0.0
142
1.0
143
1.0
 70
   688
 72
     0
 73
     0
 74
     5
  7

 75
    16
 76
     0
 77
     2
 78
   300
147
1.0
148
0.0
149
0.0
100
AcDbLayout
  1
Layout1
 70
     1
 71
     1
 10
0.0
 20
0.0
 11
12.0
 21
9.0
 12
0.0
 22
0.0
 32
0.0
 14
1.000000000000000E+20
 24
1.000000000000000E+20
 34
1.000000000000000E+20
 15
-1.000000000000000E+20
 25
-1.000000000000000E+20
 35
-1.000000000000000E+20
146
0.0
 13
0.0
 23
0.0
 33
0.0
 16
1.0
 26
0.0
 36
0.0
 17
0.0
 27
1.0
 37
0.0
 76
     0
330
1B
  0
LAYOUT
  5
26
102
{ACAD_REACTORS
330
1A
102
}
330
1A
100
AcDbPlotSettings
  1

  2
none_device
  4

  6

 40
0.0
 41
0.0
 42
0.0
 43
0.0
 44
0.0
 45
0.0
 46
0.0
 47
0.0
 48
0.0
 49
0.0
140
0.0
141
0.0
142
1.0
143
1.0
 70
   688
 72
     0
 73
     0
 74
     5
  7

 75
    16
 76
     0
 77
     2
 78
   300
147
1.0
148
0.0
149
0.0
100
AcDbLayout
  1
Layout2
 70
     1
 71
     2
 10
0.0
 20
0.0
 11
0.0
 21
0.0
 12
0.0
 22
0.0
 32
0.0
 14
0.0
 24
0.0
 34
0.0
 15
0.0
 25
0.0
 35
0.0
146
0.0
 13
0.0
 23
0.0
 33
0.0
 16
1.0
 26
0.0
 36
0.0
 17
0.0
 27
1.0
 37
0.0
 76
     0
330
23
  0
LAYOUT
  5
22
102
{ACAD_REACTORS
330
1A
102
}
330
1A
100
AcDbPlotSettings
  1

  2
none_device
  4
Letter_(8.50_x_11.00_Inches)
  6

 40
6.35
 41
6.35
 42
6.35000508
 43
6.35000508
 44
215.9
 45
279.4
 46
0.0
 47
0.0
 48
0.0
 49
0.0
140
0.0
141
0.0
142
1.0
143
1.0
 70
  1712
 72
     0
 73
     0
 74
     0
  7

 75
     0
 76
     0
 77
     2
 78
   300
147
1.0
148
0.0
149
0.0
100
AcDbLayout
  1
Model
 70
     1
 71
     0
 10
0.0
 20
0.0
 11
12.0
 21
9.0
 12
0.0
 22
0.0
 32
0.0
 14
1.000000000000000E+20
 24
1.000000000000000E+20
 34
1.000000000000000E+20
 15
-1.000000000000000E+20
 25
-1.000000000000000E+20
 35
-1.000000000000000E+20
146
0.0
 13
0.0
 23
0.0
 33
0.0
 16
1.0
 26
0.0
 36
0.0
 17
0.0
 27
1.0
 37
0.0
 76
     0
330
1F
331
29
  0
MATERIAL
  5
45
102
{ACAD_REACTORS
330
43
102
}
330
43
100
AcDbMaterial
  1
ByBlock
 72
     1
 94
      127
  0
MATERIAL
  5
44
102
{ACAD_REACTORS
330
43
102
}
330
43
100
AcDbMaterial
  1
ByLayer
 72
     1
 94
      127
  0
MATERIAL
  5
46
102
{ACAD_REACTORS
330
43
102
}
330
43
100
AcDbMaterial
  1
Global
 72
     1
 94
      127
  0
MLEADERSTYLE
  5
6C
102
{ACAD_REACTORS
330
6B
102
}
330
6B
100
AcDbMLeaderStyle
179
     2
170
     2
171
     1
172
     0
 90
        2
 40
0.0
 41
0.0
173
     1
 91
-1056964608
340
14
 92
       -2
290
     1
 42
0.09
291
     1
 43
0.36
  3
Standard
341
0
 44
0.18
300

342
11
174
     1
178
     6
175
     1
176
     0
 93
-1056964608
 45
0.18
292
     0
297
     0
 46
0.18
343
0
 94
-1056964608
 47
1.0
 49
1.0
140
1.0
293
     1
141
0.0
294
     1
177
     0
142
1.0
295
     0
296
     0
143
0.125
271
     0
272
     9
273
     9
298
     0
  0
MLINESTYLE
  5
18
102
{ACAD_REACTORS
330
17
102
}
330
17
100
AcDbMlineStyle
  2
Standard
 70
     0
  3

 62
   256
 51
90.0
 52
90.0
 71
     2
 49
0.5
 62
   256
  6
BYLAYER
 49
-0.5
 62
   256
  6
BYLAYER
  0
ACDBPLACEHOLDER
  5
F
102
{ACAD_REACTORS
330
E
102
}
330
E
  0
SCALE
  5
48
102
{ACAD_REACTORS
330
47
102
}
330
47
100
AcDbScale
 70
     0
300
1:1
140
1.0
141
1.0
290
     1
  0
SCALE
  5
49
102
{ACAD_REACTORS
330
47
102
}
330
47
100
AcDbScale
 70
     0
300
1:2
140
1.0
141
2.0
290
     0
  0
SCALE
  5
4A
102
{ACAD_REACTORS
330
47
102
}
330
47
100
AcDbScale
 70
     0
300
1:4
140
1.0
141
4.0
290
     0
  0
SCALE
  5
4B
102
{ACAD_REACTORS
330
47
102
}
330
47
100
AcDbScale
 70
     0
300
1:5
140
1.0
141
5.0
290
     0
  0
SCALE
  5
4C
102
{ACAD_REACTORS
330
47
102
}
330
47
100
AcDbScale
 70
     0
300
1:8
140
1.0
141
8.0
290
     0
  0
SCALE
  5
4D
102
{ACAD_REACTORS
330
47
102
}
330
47
100
AcDbScale
 70
     0
300
1:10
140
1.0
141
10.0
290
     0
  0
SCALE
  5
4E
102
{ACAD_REACTORS
330
47
102
}
330
47
100
AcDbScale
 70
     0
300
1:16
140
1.0
141
16.0
290
     0
  0
SCALE
  5
4F
102
{ACAD_REACTORS
330
47
102
}
330
47
100
AcDbScale
 70
     0
300
1:20
140
1.0
141
20.0
290
     0
  0
SCALE
  5
50
102
{ACAD_REACTORS
330
47
102
}
330
47
100
AcDbScale
 70
     0
300
1:30
140
1.0
141
30.0
290
     0
  0
SCALE
  5
51
102
{ACAD_REACTORS
330
47
102
}
330
47
100
AcDbScale
 70
     0
300
1:40
140
1.0
141
40.0
290
     0
  0
SCALE
  5
52
102
{ACAD_REACTORS
330
47
102
}
330
47
100
AcDbScale
 70
     0
300
1:50
140
1.0
141
50.0
290
     0
  0
SCALE
  5
53
102
{ACAD_REACTORS
330
47
102
}
330
47
100
AcDbScale
 70
     0
300
1:100
140
1.0
141
100.0
290
     0
  0
SCALE
  5
54
102
{ACAD_REACTORS
330
47
102
}
330
47
100
AcDbScale
 70
     0
300
2:1
140
2.0
141
1.0
290
     0
  0
SCALE
  5
55
102
{ACAD_REACTORS
330
47
102
}
330
47
100
AcDbScale
 70
     0
300
4:1
140
4.0
141
1.0
290
     0
  0
SCALE
  5
56
102
{ACAD_REACTORS
330
47
102
}
330
47
100
AcDbScale
 70
     0
300
8:1
140
8.0
141
1.0
290
     0
  0
SCALE
  5
57
102
{ACAD_REACTORS
330
47
102
}
330
47
100
AcDbScale
 70
     0
300
10:1
140
10.0
141
1.0
290
     0
  0
SCALE
  5
58
102
{ACAD_REACTORS
330
47
102
}
330
47
100
AcDbScale
 70
     0
300
100:1
140
100.0
141
1.0
290
     0
  0
SCALE
  5
59
102
{ACAD_REACTORS
330
47
102
}
330
47
100
AcDbScale
 70
     0
300
1/128" = 1'-0"
140
0.0078125
141
12.0
290
     0
  0
SCALE
  5
5A
102
{ACAD_REACTORS
330
47
102
}
330
47
100
AcDbScale
 70
     0
300
1/64" = 1'-0"
140
0.015625
141
12.0
290
     0
  0
SCALE
  5
5B
102
{ACAD_REACTORS
330
47
102
}
330
47
100
AcDbScale
 70
     0
300
1/32" = 1'-0"
140
0.03125
141
12.0
290
     0
  0
SCALE
  5
5C
102
{ACAD_REACTORS
330
47
102
}
330
47
100
AcDbScale
 70
     0
300
1/16" = 1'-0"
140
0.0625
141
12.0
290
     0
  0
SCALE
  5
5D
102
{ACAD_REACTORS
330
47
102
}
330
47
100
AcDbScale
 70
     0
300
3/32" = 1'-0"
140
0.09375
141
12.0
290
     0
  0
SCALE
  5
5E
102
{ACAD_REACTORS
330
47
102
}
330
47
100
AcDbScale
 70
     0
300
1/8" = 1'-0"
140
0.125
141
12.0
290
     0
  0
SCALE
  5
5F
102
{ACAD_REACTORS
330
47
102
}
330
47
100
AcDbScale
 70
     0
300
3/16" = 1'-0"
140
0.1875
141
12.0
290
     0
  0
SCALE
  5
60
102
{ACAD_REACTORS
330
47
102
}
330
47
100
AcDbScale
 70
     0
300
1/4" = 1'-0"
140
0.25
141
12.0
290
     0
  0
SCALE
  5
61
102
{ACAD_REACTORS
330
47
102
}
330
47
100
AcDbScale
 70
     0
300
3/8" = 1'-0"
140
0.375
141
12.0
290
     0
  0
SCALE
  5
62
102
{ACAD_REACTORS
330
47
102
}
330
47
100
AcDbScale
 70
     0
300
1/2" = 1'-0"
140
0.5
141
12.0
290
     0
  0
SCALE
  5
63
102
{ACAD_REACTORS
330
47
102
}
330
47
100
AcDbScale
 70
     0
300
3/4" = 1'-0"
140
0.75
141
12.0
290
     0
  0
SCALE
  5
64
102
{ACAD_REACTORS
330
47
102
}
330
47
100
AcDbScale
 70
     0
300
1" = 1'-0"
140
1.0
141
12.0
290
     0
  0
SCALE
  5
65
102
{ACAD_REACTORS
330
47
102
}
330
47
100
AcDbScale
 70
     0
300
1-1/2" = 1'-0"
140
1.5
141
12.0
290
     0
  0
SCALE
  5
66
102
{ACAD_REACTORS
330
47
102
}
330
47
100
AcDbScale
 70
     0
300
3" = 1'-0"
140
3.0
141
12.0
290
     0
  0
SCALE
  5
67
102
{ACAD_REACTORS
330
47
102
}
330
47
100
AcDbScale
 70
     0
300
6" = 1'-0"
140
6.0
141
12.0
290
     0
  0
SCALE
  5
68
102
{ACAD_REACTORS
330
47
102
}
330
47
100
AcDbScale
 70
     0
300
1'-0" = 1'-0"
140
12.0
141
12.0
290
     0
  0
TABLESTYLE
  5
6A
102
{ACAD_REACTORS
330
69
102
}
102
{ACAD_XDICTIONARY
360
1E2
102
}
330
69
100
AcDbTableStyle
  3
Standard
 70
     0
 71
     0
 40
0.06
 41
0.06
280
     0
281
     0
  7
Standard
140
0.18
170
     2
 62
     0
 63
   257
283
     0
 90
        4
 91
        0
  1

274
    -2
284
     1
 64
     0
275
    -2
285
     1
 65
     0
276
    -2
286
     1
 66
     0
277
    -2
287
     1
 67
     0
278
    -2
288
     1
 68
     0
279
    -2
289
     1
 69
     0
  7
Standard
140
0.25
170
     5
 62
     0
 63
   257
283
     0
 90
        4
 91
        0
  1

274
    -2
284
     1
 64
     0
275
    -2
285
     1
 65
     0
276
    -2
286
     1
 66
     0
277
    -2
287
     1
 67
     0
278
    -2
288
     1
 68
     0
279
    -2
289
     1
 69
     0
  7
Standard
140
0.18
170
     5
 62
     0
 63
   257
283
     0
 90
        4
 91
        0
  1

274
    -2
284
     1
 64
     0
275
    -2
285
     1
 65
     0
276
    -2
286
     1
 66
     0
277
    -2
287
     1
 67
     0
278
    -2
288
     1
 68
     0
279
    -2
289
     1
 69
     0
  0
VISUALSTYLE
  5
2F
102
{ACAD_REACTORS
330
2A
102
}
330
2A
100
AcDbVisualStyle
  2
2dWireframe
 70
     4
177
     3
291
     0
 70
    58
 90
        0
176
     1
 90
        2
176
     1
 90
        0
176
     1
 90
        0
176
     1
 40
0.6
176
     1
 40
30.0
176
     1
 62
     7
420
 16777215
176
     1
 90
        1
176
     1
 90
        4
176
     1
 62
     7
176
     1
 62
   257
176
     1
 90
        1
176
     1
 90
        1
176
     1
 40
1.0
176
     1
 90
        0
176
     1
 62
   257
176
     1
 40
1.0
176
     1
 90
        1
176
     1
 90
        6
176
     1
 90
        2
176
     1
 62
     7
176
     1
 90
        5
176
     1
 90
        0
176
     1
 90
        0
176
     1
290
     0
176
     1
 90
        1
176
     1
 40
0.0
176
     1
 90
        0
176
     1
290
     1
176
     1
290
     1
176
     1
290
     0
176
     1
290
     0
176
     1
290
     0
176
     1
290
     0
176
     1
290
     0
176
     1
290
     0
176
     1
290
     0
176
     1
 90
       50
176
     1
 40
0.0
176
     1
 40
1.0
176
     1
 90
        0
176
     1
 62
   178
420
        0
176
     1
 90
       50
176
     1
 90
        3
176
     1
 62
     5
420
      255
176
     1
290
     0
176
     1
 90
       50
176
     1
 90
       50
176
     1
 90
       50
176
     1
290
     0
176
     1
 90
       50
176
     1
 62
   256
176
     0
 40
1.0
176
     0
 90
        2
176
     1
  1
strokes_ogs.tif
176
     1
290
     0
176
     1
 40
1.0
176
     1
 40
1.0
176
     1
  0
VISUALSTYLE
  5
32
102
{ACAD_REACTORS
330
2A
102
}
330
2A
100
AcDbVisualStyle
  2
Basic
 70
     7
177
     3
291
     1
 70
    58
 90
        1
176
     1
 90
        0
176
     1
 90
        1
176
     1
 90
        0
176
     1
 40
0.6
176
     1
 40
30.0
176
     1
 62
     7
420
 16777215
176
     1
 90
        0
176
     1
 90
        4
176
     1
 62
     7
176
     1
 62
   257
176
     1
 90
        1
176
     1
 90
        1
176
     1
 40
1.0
176
     1
 90
        8
176
     1
 62
     7
176
     1
 40
1.0
176
     1
 90
        1
176
     1
 90
        6
176
     1
 90
        2
176
     1
 62
     7
176
     1
 90
        5
176
     1
 90
        0
176
     1
 90
        0
176
     1
290
     0
176
     1
 90
        1
176
     1
 40
0.0
176
     1
 90
        0
176
     1
290
     0
176
     1
290
     1
176
     1
290
     1
176
     1
290
     0
176
     1
290
     0
176
     1
290
     0
176
     1
290
     0
176
     1
290
     0
176
     1
290
     0
176
     1
 90
       50
176
     1
 40
0.0
176
     1
 40
1.0
176
     1
 90
        0
176
     1
 62
   178
420
        0
176
     1
 90
       50
176
     1
 90
        3
176
     1
 62
     5
420
      255
176
     1
290
     0
176
     1
 90
       50
176
     1
 90
       50
176
     1
 90
       50
176
     1
290
     0
176
     1
 90
       50
176
     1
 62
   256
176
     0
 40
1.0
176
     0
 90
        2
176
     1
  1
strokes_ogs.tif
176
     1
290
     0
176
     1
 40
1.0
176
     1
 40
1.0
176
     1
  0
VISUALSTYLE
  5
36
102
{ACAD_REACTORS
330
2A
102
}
330
2A
100
AcDbVisualStyle
  2
Brighten
 70
    12
177
     3
291
     1
 70
    58
 90
        2
176
     1
 90
        2
176
     1
 90
        0
176
     1
 90
        0
176
     1
 40
0.6
176
     1
 40
30.0
176
     1
 62
     7
420
 16777215
176
     1
 90
        1
176
     1
 90
        4
176
     1
 62
     7
176
     1
 62
   257
176
     1
 90
        1
176
     1
 90
        1
176
     1
 40
1.0
176
     1
 90
        8
176
     1
 62
     7
176
     1
 40
1.0
176
     1
 90
        1
176
     1
 90
        6
176
     1
 90
        2
176
     1
 62
     7
176
     1
 90
        5
176
     1
 90
        0
176
     1
 90
        0
176
     1
290
     0
176
     1
 90
        1
176
     1
 40
50.0
176
     1
 90
        0
176
     1
290
     0
176
     1
290
     1
176
     1
290
     1
176
     1
290
     0
176
     1
290
     0
176
     1
290
     0
176
     1
290
     0
176
     1
290
     0
176
     1
290
     0
176
     1
 90
       50
176
     1
 40
0.0
176
     1
 40
1.0
176
     1
 90
        0
176
     1
 62
   178
420
        0
176
     1
 90
       50
176
     1
 90
        3
176
     1
 62
     5
420
      255
176
     1
290
     0
176
     1
 90
       50
176
     1
 90
       50
176
     1
 90
       50
176
     1
290
     0
176
     1
 90
       50
176
     1
 62
   256
176
     0
 40
1.0
176
     0
 90
        2
176
     1
  1
strokes_ogs.tif
176
     1
290
     0
176
     1
 40
1.0
176
     1
 40
1.0
176
     1
  0
VISUALSTYLE
  5
3A
102
{ACAD_REACTORS
330
2A
102
}
330
2A
100
AcDbVisualStyle
  2
ColorChange
 70
    16
177
     3
291
     1
 70
    58
 90
        2
176
     1
 90
        2
176
     1
 90
        3
176
     1
 90
        0
176
     1
 40
0.6
176
     1
 40
30.0
176
     1
 62
     8
420
  8421504
176
     1
 90
        1
176
     1
 90
        4
176
     1
 62
     7
176
     1
 62
   257
176
     1
 90
        1
176
     1
 90
        1
176
     1
 40
1.0
176
     1
 90
        8
176
     1
 62
     8
420
  8421504
176
     1
 40
1.0
176
     1
 90
        1
176
     1
 90
        6
176
     1
 90
        2
176
     1
 62
     7
176
     1
 90
        5
176
     1
 90
        0
176
     1
 90
        0
176
     1
290
     0
176
     1
 90
        1
176
     1
 40
0.0
176
     1
 90
        0
176
     1
290
     0
176
     1
290
     1
176
     1
290
     1
176
     1
290
     0
176
     1
290
     0
176
     1
290
     0
176
     1
290
     0
176
     1
290
     0
176
     1
290
     0
176
     1
 90
       50
176
     1
 40
0.0
176
     1
 40
1.0
176
     1
 90
        0
176
     1
 62
   178
420
        0
176
     1
 90
       50
176
     1
 90
        3
176
     1
 62
     5
420
      255
176
     1
290
     0
176
     1
 90
       50
176
     1
 90
       50
176
     1
 90
       50
176
     1
290
     0
176
     1
 90
       50
176
     1
 62
   256
176
     0
 40
1.0
176
     0
 90
        2
176
     1
  1
strokes_ogs.tif
176
     1
290
     0
176
     1
 40
1.0
176
     1
 40
1.0
176
     1
  0
VISUALSTYLE
  5
34
102
{ACAD_REACTORS
330
2A
102
}
330
2A
100
AcDbVisualStyle
  2
Conceptual
 70
     9
177
     3
291
     0
 70
    58
 90
        3
176
     1
 90
        2
176
     1
 90
        0
176
     1
 90
        0
176
     1
 40
0.6
176
     1
 40
30.0
176
     1
 62
     7
420
 16777215
176
     1
 90
        2
176
     1
 90
        2
176
     1
 62
     7
176
     1
 62
   257
176
     1
 90
        1
176
     1
 90
        1
176
     1
 40
179.0
176
     1
 90
        8
176
     1
 62
     7
176
     1
 40
1.0
176
     1
 90
        1
176
     1
 90
        6
176
     1
 90
        2
176
     1
 62
     7
176
     1
 90
        3
176
     1
 90
        0
176
     1
 90
        0
176
     1
290
     0
176
     1
 90
        1
176
     1
 40
0.0
176
     1
 90
        0
176
     1
290
     0
176
     1
290
     1
176
     1
290
     1
176
     1
290
     0
176
     1
290
     0
176
     1
290
     0
176
     1
290
     0
176
     1
290
     0
176
     1
290
     0
176
     1
 90
       50
176
     1
 40
0.0
176
     1
 40
1.0
176
     1
 90
        0
176
     1
 62
   178
420
        0
176
     1
 90
       50
176
     1
 90
        3
176
     1
 62
     5
420
      255
176
     1
290
     0
176
     1
 90
       50
176
     1
 90
       50
176
     1
 90
       50
176
     1
290
     0
176
     1
 90
       50
176
     1
 62
   256
176
     0
 40
1.0
176
     0
 90
        2
176
     1
  1
strokes_ogs.tif
176
     1
290
     0
176
     1
 40
1.0
176
     1
 40
1.0
176
     1
  0
VISUALSTYLE
  5
35
102
{ACAD_REACTORS
330
2A
102
}
330
2A
100
AcDbVisualStyle
  2
Dim
 70
    11
177
     3
291
     1
 70
    58
 90
        2
176
     1
 90
        2
176
     1
 90
        0
176
     1
 90
        0
176
     1
 40
0.6
176
     1
 40
30.0
176
     1
 62
     7
420
 16777215
176
     1
 90
        1
176
     1
 90
        4
176
     1
 62
     7
176
     1
 62
   257
176
     1
 90
        1
176
     1
 90
        1
176
     1
 40
1.0
176
     1
 90
        8
176
     1
 62
     7
176
     1
 40
1.0
176
     1
 90
        1
176
     1
 90
        6
176
     1
 90
        2
176
     1
 62
     7
176
     1
 90
        5
176
     1
 90
        0
176
     1
 90
        0
176
     1
290
     0
176
     1
 90
        1
176
     1
 40
-50.0
176
     1
 90
        0
176
     1
290
     0
176
     1
290
     1
176
     1
290
     1
176
     1
290
     0
176
     1
290
     0
176
     1
290
     0
176
     1
290
     0
176
     1
290
     0
176
     1
290
     0
176
     1
 90
       50
176
     1
 40
0.0
176
     1
 40
1.0
176
     1
 90
        0
176
     1
 62
   178
420
        0
176
     1
 90
       50
176
     1
 90
        3
176
     1
 62
     5
420
      255
176
     1
290
     0
176
     1
 90
       50
176
     1
 90
       50
176
     1
 90
       50
176
     1
290
     0
176
     1
 90
       50
176
     1
 62
   256
176
     0
 40
1.0
176
     0
 90
        2
176
     1
  1
strokes_ogs.tif
176
     1
290
     0
176
     1
 40
1.0
176
     1
 40
1.0
176
     1
  0
VISUALSTYLE
  5
3D
102
{ACAD_REACTORS
330
2A
102
}
330
2A
100
AcDbVisualStyle
  2
EdgeColorOff
 70
    22
177
     3
291
     1
 70
    58
 90
        2
176
     0
 90
        2
176
     0
 90
        0
176
     0
 90
        0
176
     0
 40
0.6
176
     0
 40
30.0
176
     0
 62
     7
420
 16777215
176
     0
 90
        1
176
     0
 90
        4
176
     0
 62
     7
176
     0
 62
   257
176
     0
 90
        1
176
     0
 90
        1
176
     0
 40
1.0
176
     0
 90
        8
176
     2
 62
     7
176
     0
 40
1.0
176
     0
 90
        1
176
     0
 90
        6
176
     0
 90
        2
176
     0
 62
     7
176
     0
 90
        5
176
     0
 90
        0
176
     0
 90
        0
176
     0
290
     0
176
     0
 90
        1
176
     0
 40
0.0
176
     0
 90
        0
176
     0
290
     0
176
     0
290
     1
176
     0
290
     1
176
     0
290
     0
176
     0
290
     0
176
     0
290
     0
176
     0
290
     0
176
     0
290
     0
176
     0
290
     0
176
     0
 90
       50
176
     0
 40
0.0
176
     0
 40
1.0
176
     0
 90
        0
176
     0
 62
   178
420
        0
176
     0
 90
       50
176
     0
 90
        3
176
     0
 62
     5
420
      255
176
     0
290
     0
176
     0
 90
       50
176
     0
 90
       50
176
     0
 90
       50
176
     0
290
     0
176
     0
 90
       50
176
     0
 62
   256
176
     0
 40
1.0
176
     0
 90
        2
176
     0
  1
strokes_ogs.tif
176
     0
290
     0
176
     0
 40
1.0
176
     0
 40
1.0
176
     0
  0
VISUALSTYLE
  5
39
102
{ACAD_REACTORS
330
2A
102
}
330
2A
100
AcDbVisualStyle
  2
Facepattern
 70
    15
177
     3
291
     1
 70
    58
 90
        2
176
     1
 90
        2
176
     1
 90
        0
176
     1
 90
        0
176
     1
 40
0.6
176
     1
 40
30.0
176
     1
 62
     7
420
 16777215
176
     1
 90
        1
176
     1
 90
        4
176
     1
 62
     7
176
     1
 62
   257
176
     1
 90
        1
176
     1
 90
        1
176
     1
 40
1.0
176
     1
 90
        8
176
     1
 62
     7
176
     1
 40
1.0
176
     1
 90
        1
176
     1
 90
        6
176
     1
 90
        2
176
     1
 62
     7
176
     1
 90
        5
176
     1
 90
        0
176
     1
 90
        0
176
     1
290
     0
176
     1
 90
        1
176
     1
 40
0.0
176
     1
 90
        0
176
     1
290
     0
176
     1
290
     1
176
     1
290
     1
176
     1
290
     0
176
     1
290
     0
176
     1
290
     0
176
     1
290
     0
176
     1
290
     0
176
     1
290
     0
176
     1
 90
       50
176
     1
 40
0.0
176
     1
 40
1.0
176
     1
 90
        0
176
     1
 62
   178
420
        0
176
     1
 90
       50
176
     1
 90
        3
176
     1
 62
     5
420
      255
176
     1
290
     0
176
     1
 90
       50
176
     1
 90
       50
176
     1
 90
       50
176
     1
290
     0
176
     1
 90
       50
176
     1
 62
   256
176
     0
 40
1.0
176
     0
 90
        2
176
     1
  1
strokes_ogs.tif
176
     1
290
     0
176
     1
 40
1.0
176
     1
 40
1.0
176
     1
  0
VISUALSTYLE
  5
2B
102
{ACAD_REACTORS
330
2A
102
}
330
2A
100
AcDbVisualStyle
  2
Flat
 70
     0
177
     3
291
     1
 70
    58
 90
        2
176
     1
 90
        1
176
     1
 90
        1
176
     1
 90
        2
176
     1
 40
0.6
176
     1
 40
30.0
176
     1
 62
     7
420
 16777215
176
     1
 90
        0
176
     1
 90
        0
176
     1
 62
     7
176
     1
 62
   257
176
     1
 90
        1
176
     1
 90
        1
176
     1
 40
1.0
176
     1
 90
        8
176
     1
 62
     7
176
     1
 40
1.0
176
     1
 90
        1
176
     1
 90
        6
176
     1
 90
        2
176
     1
 62
     7
176
     1
 90
        5
176
     1
 90
        0
176
     1
 90
        0
176
     1
290
     0
176
     1
 90
       13
176
     1
 40
0.0
176
     1
 90
        0
176
     1
290
     0
176
     1
290
     1
176
     1
290
     1
176
     1
290
     0
176
     1
290
     0
176
     1
290
     0
176
     1
290
     0
176
     1
290
     0
176
     1
290
     0
176
     1
 90
       50
176
     1
 40
0.0
176
     1
 40
1.0
176
     1
 90
        0
176
     1
 62
   178
420
        0
176
     1
 90
       50
176
     1
 90
        3
176
     1
 62
     5
420
      255
176
     1
290
     0
176
     1
 90
       50
176
     1
 90
       50
176
     1
 90
       50
176
     1
290
     0
176
     1
 90
       50
176
     1
 62
   256
176
     0
 40
1.0
176
     0
 90
        2
176
     1
  1
strokes_ogs.tif
176
     1
290
     0
176
     1
 40
1.0
176
     1
 40
1.0
176
     1
  0
VISUALSTYLE
  5
2C
102
{ACAD_REACTORS
330
2A
102
}
330
2A
100
AcDbVisualStyle
  2
FlatWithEdges
 70
     1
177
     3
291
     1
 70
    58
 90
        2
176
     1
 90
        1
176
     1
 90
        1
176
     1
 90
        2
176
     1
 40
0.6
176
     1
 40
30.0
176
     1
 62
     7
420
 16777215
176
     1
 90
        1
176
     1
 90
        0
176
     1
 62
     7
176
     1
 62
   257
176
     1
 90
        1
176
     1
 90
        1
176
     1
 40
1.0
176
     1
 90
        0
176
     1
 62
   257
176
     1
 40
1.0
176
     1
 90
        1
176
     1
 90
        6
176
     1
 90
        2
176
     1
 62
     7
176
     1
 90
        5
176
     1
 90
        0
176
     1
 90
        0
176
     1
290
     0
176
     1
 90
       13
176
     1
 40
0.0
176
     1
 90
        0
176
     1
290
     0
176
     1
290
     1
176
     1
290
     1
176
     1
290
     0
176
     1
290
     0
176
     1
290
     0
176
     1
290
     0
176
     1
290
     0
176
     1
290
     0
176
     1
 90
       50
176
     1
 40
0.0
176
     1
 40
1.0
176
     1
 90
        0
176
     1
 62
   178
420
        0
176
     1
 90
       50
176
     1
 90
        3
176
     1
 62
     5
420
      255
176
     1
290
     0
176
     1
 90
       50
176
     1
 90
       50
176
     1
 90
       50
176
     1
290
     0
176
     1
 90
       50
176
     1
 62
   256
176
     0
 40
1.0
176
     0
 90
        2
176
     1
  1
strokes_ogs.tif
176
     1
290
     0
176
     1
 40
1.0
176
     1
 40
1.0
176
     1
  0
VISUALSTYLE
  5
2D
102
{ACAD_REACTORS
330
2A
102
}
330
2A
100
AcDbVisualStyle
  2
Gouraud
 70
     2
177
     3
291
     1
 70
    58
 90
        2
176
     1
 90
        2
176
     1
 90
        1
176
     1
 90
        2
176
     1
 40
0.6
176
     1
 40
30.0
176
     1
 62
     7
420
 16777215
176
     1
 90
        0
176
     1
 90
        0
176
     1
 62
     7
176
     1
 62
   257
176
     1
 90
        1
176
     1
 90
        1
176
     1
 40
1.0
176
     1
 90
        0
176
     1
 62
     7
176
     1
 40
1.0
176
     1
 90
        1
176
     1
 90
        6
176
     1
 90
        2
176
     1
 62
     7
176
     1
 90
        5
176
     1
 90
        0
176
     1
 90
        0
176
     1
290
     0
176
     1
 90
       13
176
     1
 40
0.0
176
     1
 90
        0
176
     1
290
     0
176
     1
290
     1
176
     1
290
     1
176
     1
290
     0
176
     1
290
     0
176
     1
290
     0
176
     1
290
     0
176
     1
290
     0
176
     1
290
     0
176
     1
 90
       50
176
     1
 40
0.0
176
     1
 40
1.0
176
     1
 90
        0
176
     1
 62
   178
420
        0
176
     1
 90
       50
176
     1
 90
        3
176
     1
 62
     5
420
      255
176
     1
290
     0
176
     1
 90
       50
176
     1
 90
       50
176
     1
 90
       50
176
     1
290
     0
176
     1
 90
       50
176
     1
 62
   256
176
     0
 40
1.0
176
     0
 90
        2
176
     1
  1
strokes_ogs.tif
176
     1
290
     0
176
     1
 40
1.0
176
     1
 40
1.0
176
     1
  0
VISUALSTYLE
  5
2E
102
{ACAD_REACTORS
330
2A
102
}
330
2A
100
AcDbVisualStyle
  2
GouraudWithEdges
 70
     3
177
     3
291
     1
 70
    58
 90
        2
176
     1
 90
        2
176
     1
 90
        1
176
     1
 90
        2
176
     1
 40
0.6
176
     1
 40
30.0
176
     1
 62
     7
420
 16777215
176
     1
 90
        1
176
     1
 90
        0
176
     1
 62
     7
176
     1
 62
   257
176
     1
 90
        1
176
     1
 90
        1
176
     1
 40
1.0
176
     1
 90
        0
176
     1
 62
   257
176
     1
 40
1.0
176
     1
 90
        1
176
     1
 90
        6
176
     1
 90
        2
176
     1
 62
     7
176
     1
 90
        5
176
     1
 90
        0
176
     1
 90
        0
176
     1
290
     0
176
     1
 90
       13
176
     1
 40
0.0
176
     1
 90
        0
176
     1
290
     0
176
     1
290
     1
176
     1
290
     1
176
     1
290
     0
176
     1
290
     0
176
     1
290
     0
176
     1
290
     0
176
     1
290
     0
176
     1
290
     0
176
     1
 90
       50
176
     1
 40
0.0
176
     1
 40
1.0
176
     1
 90
        0
176
     1
 62
   178
420
        0
176
     1
 90
       50
176
     1
 90
        3
176
     1
 62
     5
420
      255
176
     1
290
     0
176
     1
 90
       50
176
     1
 90
       50
176
     1
 90
       50
176
     1
290
     0
176
     1
 90
       50
176
     1
 62
   256
176
     0
 40
1.0
176
     0
 90
        2
176
     1
  1
strokes_ogs.tif
176
     1
290
     0
176
     1
 40
1.0
176
     1
 40
1.0
176
     1
  0
VISUALSTYLE
  5
31
102
{ACAD_REACTORS
330
2A
102
}
330
2A
100
AcDbVisualStyle
  2
Hidden
 70
     6
177
     3
291
     0
 70
    58
 90
        1
176
     1
 90
        2
176
     1
 90
        2
176
     1
 90
        0
176
     1
 40
0.6
176
     1
 40
30.0
176
     1
 62
     7
420
 16777215
176
     1
 90
        2
176
     1
 90
        2
176
     1
 62
     7
176
     1
 62
   257
176
     1
 90
        2
176
     1
 90
        1
176
     1
 40
40.0
176
     1
 90
        0
176
     1
 62
   257
176
     1
 40
1.0
176
     1
 90
        1
176
     1
 90
        6
176
     1
 90
        2
176
     1
 62
     7
176
     1
 90
        3
176
     1
 90
        0
176
     1
 90
        0
176
     1
290
     0
176
     1
 90
        1
176
     1
 40
0.0
176
     1
 90
        0
176
     1
290
     0
176
     1
290
     1
176
     1
290
     1
176
     1
290
     0
176
     1
290
     0
176
     1
290
     0
176
     1
290
     0
176
     1
290
     0
176
     1
290
     0
176
     1
 90
       50
176
     1
 40
0.0
176
     1
 40
1.0
176
     1
 90
        0
176
     1
 62
   178
420
        0
176
     1
 90
       50
176
     1
 90
        3
176
     1
 62
     5
420
      255
176
     1
290
     0
176
     1
 90
       50
176
     1
 90
       50
176
     1
 90
       50
176
     1
290
     0
176
     1
 90
       50
176
     1
 62
   256
176
     0
 40
1.0
176
     0
 90
        2
176
     1
  1
strokes_ogs.tif
176
     1
290
     0
176
     1
 40
1.0
176
     1
 40
1.0
176
     1
  0
VISUALSTYLE
  5
3B
102
{ACAD_REACTORS
330
2A
102
}
330
2A
100
AcDbVisualStyle
  2
JitterOff
 70
    20
177
     3
291
     1
 70
    58
 90
        2
176
     0
 90
        2
176
     0
 90
        0
176
     0
 90
        0
176
     0
 40
0.6
176
     0
 40
30.0
176
     0
 62
     7
420
 16777215
176
     0
 90
        1
176
     0
 90
        4
176
     0
 62
     7
176
     0
 62
   257
176
     0
 90
        1
176
     0
 90
        1
176
     0
 40
1.0
176
     0
 90
       10
176
     2
 62
     7
176
     0
 40
1.0
176
     0
 90
        1
176
     0
 90
        6
176
     0
 90
        2
176
     0
 62
     7
176
     0
 90
        5
176
     0
 90
        0
176
     0
 90
        0
176
     0
290
     0
176
     0
 90
        1
176
     0
 40
0.0
176
     0
 90
        0
176
     0
290
     0
176
     0
290
     1
176
     0
290
     1
176
     0
290
     0
176
     0
290
     0
176
     0
290
     0
176
     0
290
     0
176
     0
290
     0
176
     0
290
     0
176
     0
 90
       50
176
     0
 40
0.0
176
     0
 40
1.0
176
     0
 90
        0
176
     0
 62
   178
420
        0
176
     0
 90
       50
176
     0
 90
        3
176
     0
 62
     5
420
      255
176
     0
290
     0
176
     0
 90
       50
176
     0
 90
       50
176
     0
 90
       50
176
     0
290
     0
176
     0
 90
       50
176
     0
 62
   256
176
     0
 40
1.0
176
     0
 90
        2
176
     0
  1
strokes_ogs.tif
176
     0
290
     0
176
     0
 40
1.0
176
     0
 40
1.0
176
     0
  0
VISUALSTYLE
  5
38
102
{ACAD_REACTORS
330
2A
102
}
330
2A
100
AcDbVisualStyle
  2
Linepattern
 70
    14
177
     3
291
     1
 70
    58
 90
        2
176
     1
 90
        2
176
     1
 90
        0
176
     1
 90
        0
176
     1
 40
0.6
176
     1
 40
30.0
176
     1
 62
     7
420
 16777215
176
     1
 90
        1
176
     1
 90
        4
176
     1
 62
     7
176
     1
 62
   257
176
     1
 90
        7
176
     1
 90
        7
176
     1
 40
1.0
176
     1
 90
        8
176
     1
 62
     7
176
     1
 40
1.0
176
     1
 90
        1
176
     1
 90
        6
176
     1
 90
        2
176
     1
 62
     7
176
     1
 90
        5
176
     1
 90
        0
176
     1
 90
        0
176
     1
290
     0
176
     1
 90
        1
176
     1
 40
0.0
176
     1
 90
        0
176
     1
290
     0
176
     1
290
     1
176
     1
290
     1
176
     1
290
     0
176
     1
290
     0
176
     1
290
     0
176
     1
290
     0
176
     1
290
     0
176
     1
290
     0
176
     1
 90
       50
176
     1
 40
0.0
176
     1
 40
1.0
176
     1
 90
        0
176
     1
 62
   178
420
        0
176
     1
 90
       50
176
     1
 90
        3
176
     1
 62
     5
420
      255
176
     1
290
     0
176
     1
 90
       50
176
     1
 90
       50
176
     1
 90
       50
176
     1
290
     0
176
     1
 90
       50
176
     1
 62
   256
176
     0
 40
1.0
176
     0
 90
        2
176
     1
  1
strokes_ogs.tif
176
     1
290
     0
176
     1
 40
1.0
176
     1
 40
1.0
176
     1
  0
VISUALSTYLE
  5
3C
102
{ACAD_REACTORS
330
2A
102
}
330
2A
100
AcDbVisualStyle
  2
OverhangOff
 70
    21
177
     3
291
     1
 70
    58
 90
        2
176
     0
 90
        2
176
     0
 90
        0
176
     0
 90
        0
176
     0
 40
0.6
176
     0
 40
30.0
176
     0
 62
     7
420
 16777215
176
     0
 90
        1
176
     0
 90
        4
176
     0
 62
     7
176
     0
 62
   257
176
     0
 90
        1
176
     0
 90
        1
176
     0
 40
1.0
176
     0
 90
        9
176
     2
 62
     7
176
     0
 40
1.0
176
     0
 90
        1
176
     0
 90
        6
176
     0
 90
        2
176
     0
 62
     7
176
     0
 90
        5
176
     0
 90
        0
176
     0
 90
        0
176
     0
290
     0
176
     0
 90
        1
176
     0
 40
0.0
176
     0
 90
        0
176
     0
290
     0
176
     0
290
     1
176
     0
290
     1
176
     0
290
     0
176
     0
290
     0
176
     0
290
     0
176
     0
290
     0
176
     0
290
     0
176
     0
290
     0
176
     0
 90
       50
176
     0
 40
0.0
176
     0
 40
1.0
176
     0
 90
        0
176
     0
 62
   178
420
        0
176
     0
 90
       50
176
     0
 90
        3
176
     0
 62
     5
420
      255
176
     0
290
     0
176
     0
 90
       50
176
     0
 90
       50
176
     0
 90
       50
176
     0
290
     0
176
     0
 90
       50
176
     0
 62
   256
176
     0
 40
1.0
176
     0
 90
        2
176
     0
  1
strokes_ogs.tif
176
     0
290
     0
176
     0
 40
1.0
176
     0
 40
1.0
176
     0
  0
VISUALSTYLE
  5
33
102
{ACAD_REACTORS
330
2A
102
}
330
2A
100
AcDbVisualStyle
  2
Realistic
 70
     8
177
     3
291
     0
 70
    58
 90
        2
176
     1
 90
        3
176
     1
 90
        0
176
     1
 90
        2
176
     1
 40
0.6
176
     1
 40
30.0
176
     1
 62
     7
420
 16777215
176
     1
 90
        0
176
     1
 90
        0
176
     1
 62
     7
176
     1
 62
   257
176
     1
 90
        1
176
     1
 90
        1
176
     1
 40
1.0
176
     1
 90
        8
176
     1
 62
   257
176
     1
 40
1.0
176
     1
 90
        1
176
     1
 90
        6
176
     1
 90
        2
176
     1
 62
     7
176
     1
 90
        3
176
     1
 90
        0
176
     1
 90
        0
176
     1
290
     0
176
     1
 90
       13
176
     1
 40
0.0
176
     1
 90
        0
176
     1
290
     0
176
     1
290
     1
176
     1
290
     1
176
     1
290
     0
176
     1
290
     0
176
     1
290
     0
176
     1
290
     0
176
     1
290
     0
176
     1
290
     0
176
     1
 90
       50
176
     1
 40
0.0
176
     1
 40
1.0
176
     1
 90
        0
176
     1
 62
   178
420
        0
176
     1
 90
       50
176
     1
 90
        3
176
     1
 62
     5
420
      255
176
     1
290
     0
176
     1
 90
       50
176
     1
 90
       50
176
     1
 90
       50
176
     1
290
     0
176
     1
 90
       50
176
     1
 62
   256
176
     0
 40
1.0
176
     0
 90
        2
176
     1
  1
strokes_ogs.tif
176
     1
290
     0
176
     1
 40
1.0
176
     1
 40
1.0
176
     1
  0
VISUALSTYLE
  5
42
102
{ACAD_REACTORS
330
2A
102
}
330
2A
100
AcDbVisualStyle
  2
Shaded
 70
    27
177
     3
291
     0
 70
    58
 90
        2
176
     1
 90
        2
176
     1
 90
        1
176
     1
 90
        2
176
     1
 40
0.6
176
     1
 40
30.0
176
     1
 62
     7
420
 16777215
176
     1
 90
        0
176
     1
 90
        4
176
     1
 62
     7
176
     1
 62
   257
176
     1
 90
        1
176
     1
 90
        1
176
     1
 40
1.0
176
     1
 90
        8
176
     1
 62
   257
176
     1
 40
1.0
176
     1
 90
        1
176
     1
 90
        6
176
     1
 90
        2
176
     1
 62
     8
420
  7895160
176
     1
 90
        3
176
     1
 90
        0
176
     1
 90
        0
176
     1
290
     0
176
     1
 90
        5
176
     1
 40
0.0
176
     1
 90
        0
176
     1
290
     0
176
     1
290
     1
176
     1
290
     1
176
     1
290
     0
176
     1
290
     0
176
     1
290
     0
176
     1
290
     0
176
     1
290
     0
176
     1
290
     0
176
     1
 90
       50
176
     1
 40
0.0
176
     1
 40
1.0
176
     1
 90
        0
176
     1
 62
   178
420
        0
176
     1
 90
       50
176
     1
 90
        3
176
     1
 62
     5
420
      255
176
     1
290
     0
176
     1
 90
       50
176
     1
 90
       50
176
     1
 90
       50
176
     1
290
     0
176
     1
 90
       50
176
     1
 62
   256
176
     0
 40
1.0
176
     0
 90
        2
176
     1
  1
strokes_ogs.tif
176
     1
290
     0
176
     1
 40
1.0
176
     1
 40
1.0
176
     1
  0
VISUALSTYLE
  5
41
102
{ACAD_REACTORS
330
2A
102
}
330
2A
100
AcDbVisualStyle
  2
Shaded with edges
 70
    26
177
     3
291
     0
 70
    58
 90
        2
176
     1
 90
        2
176
     1
 90
        1
176
     1
 90
        2
176
     1
 40
0.6
176
     1
 40
30.0
176
     1
 62
     7
420
 16777215
176
     1
 90
        1
176
     1
 90
       10
176
     1
 62
     7
176
     1
 62
   257
176
     1
 90
        2
176
     1
 90
        1
176
     1
 40
1.0
176
     1
 90
        8
176
     1
 62
   257
176
     1
 40
1.0
176
     1
 90
        1
176
     1
 90
        6
176
     1
 90
        2
176
     1
 62
     7
176
     1
 90
        3
176
     1
 90
        0
176
     1
 90
        0
176
     1
290
     0
176
     1
 90
        5
176
     1
 40
0.0
176
     1
 90
        0
176
     1
290
     0
176
     1
290
     1
176
     1
290
     1
176
     1
290
     0
176
     1
290
     0
176
     1
290
     0
176
     1
290
     0
176
     1
290
     0
176
     1
290
     0
176
     1
 90
       50
176
     1
 40
0.0
176
     1
 40
1.0
176
     1
 90
        0
176
     1
 62
   178
420
        0
176
     1
 90
       50
176
     1
 90
        3
176
     1
 62
     5
420
      255
176
     1
290
     0
176
     1
 90
       50
176
     1
 90
       50
176
     1
 90
       50
176
     1
290
     0
176
     1
 90
       50
176
     1
 62
   256
176
     0
 40
1.0
176
     0
 90
        2
176
     1
  1
strokes_ogs.tif
176
     1
290
     0
176
     1
 40
1.0
176
     1
 40
1.0
176
     1
  0
VISUALSTYLE
  5
3E
102
{ACAD_REACTORS
330
2A
102
}
330
2A
100
AcDbVisualStyle
  2
Shades of Gray
 70
    23
177
     3
291
     0
 70
    58
 90
        2
176
     1
 90
        2
176
     1
 90
        3
176
     1
 90
        0
176
     1
 40
0.6
176
     1
 40
30.0
176
     1
 62
     7
420
 16777215
176
     1
 90
        2
176
     1
 90
        2
176
     1
 62
     7
176
     1
 62
     7
176
     1
 90
        1
176
     1
 90
        1
176
     1
 40
40.0
176
     1
 90
        8
176
     1
 62
     7
176
     1
 40
1.0
176
     1
 90
        1
176
     1
 90
        6
176
     1
 90
        2
176
     1
 62
     7
176
     1
 90
        3
176
     1
 90
        0
176
     1
 90
        0
176
     1
290
     0
176
     1
 90
        1
176
     1
 40
0.0
176
     1
 90
        0
176
     1
290
     0
176
     1
290
     1
176
     1
290
     1
176
     1
290
     0
176
     1
290
     0
176
     1
290
     0
176
     1
290
     0
176
     1
290
     0
176
     1
290
     0
176
     1
 90
       50
176
     1
 40
0.0
176
     1
 40
1.0
176
     1
 90
        0
176
     1
 62
   178
420
        0
176
     1
 90
       50
176
     1
 90
        3
176
     1
 62
     5
420
      255
176
     1
290
     0
176
     1
 90
       50
176
     1
 90
       50
176
     1
 90
       50
176
     1
290
     0
176
     1
 90
       50
176
     1
 62
   256
176
     0
 40
1.0
176
     0
 90
        2
176
     1
  1
strokes_ogs.tif
176
     1
290
     0
176
     1
 40
1.0
176
     1
 40
1.0
176
     1
  0
VISUALSTYLE
  5
3F
102
{ACAD_REACTORS
330
2A
102
}
330
2A
100
AcDbVisualStyle
  2
Sketchy
 70
    24
177
     3
291
     0
 70
    58
 90
        1
176
     1
 90
        2
176
     1
 90
        2
176
     1
 90
        0
176
     1
 40
0.6
176
     1
 40
30.0
176
     1
 62
     7
420
 16777215
176
     1
 90
        2
176
     1
 90
        2
176
     1
 62
     7
176
     1
 62
     7
176
     1
 90
        1
176
     1
 90
        1
176
     1
 40
40.0
176
     1
 90
       11
176
     1
 62
     7
176
     1
 40
1.0
176
     1
 90
        1
176
     1
 90
        6
176
     1
 90
        2
176
     1
 62
     7
176
     1
 90
        6
176
     1
 90
        0
176
     1
 90
        0
176
     1
290
     0
176
     1
 90
        1
176
     1
 40
0.0
176
     1
 90
        0
176
     1
290
     0
176
     1
290
     1
176
     1
290
     1
176
     1
290
     0
176
     1
290
     0
176
     1
290
     0
176
     1
290
     0
176
     1
290
     0
176
     1
290
     0
176
     1
 90
       50
176
     1
 40
0.0
176
     1
 40
1.0
176
     1
 90
        0
176
     1
 62
   178
420
        0
176
     1
 90
       50
176
     1
 90
        3
176
     1
 62
     5
420
      255
176
     1
290
     0
176
     1
 90
       50
176
     1
 90
       50
176
     1
 90
       50
176
     1
290
     0
176
     1
 90
       50
176
     1
 62
   256
176
     0
 40
1.0
176
     0
 90
        2
176
     1
  1
strokes_ogs.tif
176
     1
290
     0
176
     1
 40
1.0
176
     1
 40
1.0
176
     1
  0
VISUALSTYLE
  5
37
102
{ACAD_REACTORS
330
2A
102
}
330
2A
100
AcDbVisualStyle
  2
Thicken
 70
    13
177
     3
291
     1
 70
    58
 90
        2
176
     1
 90
        2
176
     1
 90
        0
176
     1
 90
        0
176
     1
 40
0.6
176
     1
 40
30.0
176
     1
 62
     7
420
 16777215
176
     1
 90
        1
176
     1
 90
        4
176
     1
 62
     7
176
     1
 62
   257
176
     1
 90
        1
176
     1
 90
        1
176
     1
 40
1.0
176
     1
 90
       12
176
     1
 62
     7
176
     1
 40
1.0
176
     1
 90
        1
176
     1
 90
        6
176
     1
 90
        2
176
     1
 62
     7
176
     1
 90
        5
176
     1
 90
        0
176
     1
 90
        0
176
     1
290
     0
176
     1
 90
        1
176
     1
 40
0.0
176
     1
 90
        0
176
     1
290
     0
176
     1
290
     1
176
     1
290
     1
176
     1
290
     0
176
     1
290
     0
176
     1
290
     0
176
     1
290
     0
176
     1
290
     0
176
     1
290
     0
176
     1
 90
       50
176
     1
 40
0.0
176
     1
 40
1.0
176
     1
 90
        0
176
     1
 62
   178
420
        0
176
     1
 90
       50
176
     1
 90
        3
176
     1
 62
     5
420
      255
176
     1
290
     0
176
     1
 90
       50
176
     1
 90
       50
176
     1
 90
       50
176
     1
290
     0
176
     1
 90
       50
176
     1
 62
   256
176
     0
 40
1.0
176
     0
 90
        2
176
     1
  1
strokes_ogs.tif
176
     1
290
     0
176
     1
 40
1.0
176
     1
 40
1.0
176
     1
  0
VISUALSTYLE
  5
30
102
{ACAD_REACTORS
330
2A
102
}
330
2A
100
AcDbVisualStyle
  2
Wireframe
 70
     5
177
     3
291
     0
 70
    58
 90
        0
176
     1
 90
        2
176
     1
 90
        0
176
     1
 90
        0
176
     1
 40
0.6
176
     1
 40
30.0
176
     1
 62
     7
420
 16777215
176
     1
 90
        1
176
     1
 90
        4
176
     1
 62
     7
176
     1
 62
   257
176
     1
 90
        1
176
     1
 90
        1
176
     1
 40
1.0
176
     1
 90
        0
176
     1
 62
   257
176
     1
 40
1.0
176
     1
 90
        1
176
     1
 90
        6
176
     1
 90
        2
176
     1
 62
     7
176
     1
 90
        3
176
     1
 90
        0
176
     1
 90
        0
176
     1
290
     0
176
     1
 90
        1
176
     1
 40
0.0
176
     1
 90
        0
176
     1
290
     0
176
     1
290
     1
176
     1
290
     1
176
     1
290
     0
176
     1
290
     0
176
     1
290
     0
176
     1
290
     0
176
     1
290
     0
176
     1
290
     0
176
     1
 90
       50
176
     1
 40
0.0
176
     1
 40
1.0
176
     1
 90
        0
176
     1
 62
   178
420
        0
176
     1
 90
       50
176
     1
 90
        3
176
     1
 62
     5
420
      255
176
     1
290
     0
176
     1
 90
       50
176
     1
 90
       50
176
     1
 90
       50
176
     1
290
     0
176
     1
 90
       50
176
     1
 62
   256
176
     0
 40
1.0
176
     0
 90
        2
176
     1
  1
strokes_ogs.tif
176
     1
290
     0
176
     1
 40
1.0
176
     1
 40
1.0
176
     1
  0
VISUALSTYLE
  5
40
102
{ACAD_REACTORS
330
2A
102
}
330
2A
100
AcDbVisualStyle
  2
X-Ray
 70
    25
177
     3
291
     0
 70
    58
 90
        2
176
     1
 90
        2
176
     1
 90
        1
176
     1
 90
        1
176
     1
 40
0.5
176
     1
 40
30.0
176
     1
 62
     7
420
 16777215
176
     1
 90
        1
176
     1
 90
        0
176
     1
 62
     7
176
     1
 62
   257
176
     1
 90
        1
176
     1
 90
        1
176
     1
 40
1.0
176
     1
 90
        8
176
     1
 62
     7
176
     1
 40
1.0
176
     1
 90
        1
176
     1
 90
        6
176
     1
 90
        2
176
     1
 62
     7
176
     1
 90
        3
176
     1
 90
        0
176
     1
 90
        0
176
     1
290
     0
176
     1
 90
       13
176
     1
 40
0.0
176
     1
 90
        0
176
     1
290
     0
176
     1
290
     1
176
     1
290
     1
176
     1
290
     0
176
     1
290
     0
176
     1
290
     0
176
     1
290
     0
176
     1
290
     0
176
     1
290
     0
176
     1
 90
       50
176
     1
 40
0.0
176
     1
 40
1.0
176
     1
 90
        0
176
     1
 62
   178
420
        0
176
     1
 90
       50
176
     1
 90
        3
176
     1
 62
     5
420
      255
176
     1
290
     0
176
     1
 90
       50
176
     1
 90
       50
176
     1
 90
       50
176
     1
290
     0
176
     1
 90
       50
176
     1
 62
   256
176
     0
 40
1.0
176
     0
 90
        2
176
     1
  1
strokes_ogs.tif
176
     1
290
     0
176
     1
 40
1.0
176
     1
 40
1.0
176
     1
  0
DICTIONARYVAR
  5
1E1
102
{ACAD_REACTORS
330
1E0
102
}
330
1E0
100
DictionaryVariables
280
     0
  1
1:1
  0
DICTIONARYVAR
  5
1E6
102
{ACAD_REACTORS
330
1E0
102
}
330
1E0
100
DictionaryVariables
280
     0
  1
Standard
  0
DICTIONARYVAR
  5
1E5
102
{ACAD_REACTORS
330
1E0
102
}
330
1E0
100
DictionaryVariables
280
     0
  1
Standard
  0
DICTIONARY
  5
1E2
330
6A
100
AcDbDictionary
280
     1
281
     1
  3
ACAD_ROUNDTRIP_2008_TABLESTYLE_CELLSTYLEMAP
360
1E3
  0
CELLSTYLEMAP
  5
1E3
102
{ACAD_REACTORS
330
1E2
102
}
330
1E2
100
AcDbCellStyleMap
 90
        3
300
CELLSTYLE
  1
TABLEFORMAT_BEGIN
 90
        5
170
     1
 91
        0
 92
    32768
 62
   257
 93
        1
300
CONTENTFORMAT
  1
CONTENTFORMAT_BEGIN
 90
        0
 91
        0
 92
        4
 93
        0
300

 40
0.0
140
1.0
 94
        5
 62
     0
340
11
144
0.25
309
CONTENTFORMAT_END
171
     1
301
MARGIN
  1
CELLMARGIN_BEGIN
 40
0.06
 40
0.06
 40
0.06
 40
0.06
 40
0.06
 40
0.06
309
CELLMARGIN_END
 94
        6
 95
        1
302
GRIDFORMAT
  1
GRIDFORMAT_BEGIN
 90
        0
 91
        1
 62
     0
 92
       -2
340
14
 93
        0
 40
0.045
309
GRIDFORMAT_END
 95
        2
302
GRIDFORMAT
  1
GRIDFORMAT_BEGIN
 90
        0
 91
        1
 62
     0
 92
       -2
340
14
 93
        0
 40
0.045
309
GRIDFORMAT_END
 95
        4
302
GRIDFORMAT
  1
GRIDFORMAT_BEGIN
 90
        0
 91
        1
 62
     0
 92
       -2
340
14
 93
        0
 40
0.045
309
GRIDFORMAT_END
 95
        8
302
GRIDFORMAT
  1
GRIDFORMAT_BEGIN
 90
        0
 91
        1
 62
     0
 92
       -2
340
14
 93
        0
 40
0.045
309
GRIDFORMAT_END
 95
       16
302
GRIDFORMAT
  1
GRIDFORMAT_BEGIN
 90
        0
 91
        1
 62
     0
 92
       -2
340
14
 93
        0
 40
0.045
309
GRIDFORMAT_END
 95
       32
302
GRIDFORMAT
  1
GRIDFORMAT_BEGIN
 90
        0
 91
        1
 62
     0
 92
       -2
340
14
 93
        0
 40
0.045
309
GRIDFORMAT_END
309
TABLEFORMAT_END
  1
CELLSTYLE_BEGIN
 90
        1
 91
        1
300
_TITLE
309
CELLSTYLE_END
300
CELLSTYLE
  1
TABLEFORMAT_BEGIN
 90
        5
170
     1
 91
        0
 92
        0
 62
   257
 93
        1
300
CONTENTFORMAT
  1
CONTENTFORMAT_BEGIN
 90
        0
 91
        0
 92
        4
 93
        0
300

 40
0.0
140
1.0
 94
        5
 62
     0
340
11
144
0.18
309
CONTENTFORMAT_END
171
     1
301
MARGIN
  1
CELLMARGIN_BEGIN
 40
0.06
 40
0.06
 40
0.06
 40
0.06
 40
0.06
 40
0.06
309
CELLMARGIN_END
 94
        6
 95
        1
302
GRIDFORMAT
  1
GRIDFORMAT_BEGIN
 90
        0
 91
        1
 62
     0
 92
       -2
340
14
 93
        0
 40
0.045
309
GRIDFORMAT_END
 95
        2
302
GRIDFORMAT
  1
GRIDFORMAT_BEGIN
 90
        0
 91
        1
 62
     0
 92
       -2
340
14
 93
        0
 40
0.045
309
GRIDFORMAT_END
 95
        4
302
GRIDFORMAT
  1
GRIDFORMAT_BEGIN
 90
        0
 91
        1
 62
     0
 92
       -2
340
14
 93
        0
 40
0.045
309
GRIDFORMAT_END
 95
        8
302
GRIDFORMAT
  1
GRIDFORMAT_BEGIN
 90
        0
 91
        1
 62
     0
 92
       -2
340
14
 93
        0
 40
0.045
309
GRIDFORMAT_END
 95
       16
302
GRIDFORMAT
  1
GRIDFORMAT_BEGIN
 90
        0
 91
        1
 62
     0
 92
       -2
340
14
 93
        0
 40
0.045
309
GRIDFORMAT_END
 95
       32
302
GRIDFORMAT
  1
GRIDFORMAT_BEGIN
 90
        0
 91
        1
 62
     0
 92
       -2
340
14
 93
        0
 40
0.045
309
GRIDFORMAT_END
309
TABLEFORMAT_END
  1
CELLSTYLE_BEGIN
 90
        2
 91
        1
300
_HEADER
309
CELLSTYLE_END
300
CELLSTYLE
  1
TABLEFORMAT_BEGIN
 90
        5
170
     1
 91
        0
 92
        0
 62
   257
 93
        1
300
CONTENTFORMAT
  1
CONTENTFORMAT_BEGIN
 90
        0
 91
        0
 92
        4
 93
        0
300

 40
0.0
140
1.0
 94
        2
 62
     0
340
11
144
0.18
309
CONTENTFORMAT_END
171
     1
301
MARGIN
  1
CELLMARGIN_BEGIN
 40
0.06
 40
0.06
 40
0.06
 40
0.06
 40
0.06
 40
0.06
309
CELLMARGIN_END
 94
        6
 95
        1
302
GRIDFORMAT
  1
GRIDFORMAT_BEGIN
 90
        0
 91
        1
 62
     0
 92
       -2
340
14
 93
        0
 40
0.045
309
GRIDFORMAT_END
 95
        2
302
GRIDFORMAT
  1
GRIDFORMAT_BEGIN
 90
        0
 91
        1
 62
     0
 92
       -2
340
14
 93
        0
 40
0.045
309
GRIDFORMAT_END
 95
        4
302
GRIDFORMAT
  1
GRIDFORMAT_BEGIN
 90
        0
 91
        1
 62
     0
 92
       -2
340
14
 93
        0
 40
0.045
309
GRIDFORMAT_END
 95
        8
302
GRIDFORMAT
  1
GRIDFORMAT_BEGIN
 90
        0
 91
        1
 62
     0
 92
       -2
340
14
 93
        0
 40
0.045
309
GRIDFORMAT_END
 95
       16
302
GRIDFORMAT
  1
GRIDFORMAT_BEGIN
 90
        0
 91
        1
 62
     0
 92
       -2
340
14
 93
        0
 40
0.045
309
GRIDFORMAT_END
 95
       32
302
GRIDFORMAT
  1
GRIDFORMAT_BEGIN
 90
        0
 91
        1
 62
     0
 92
       -2
340
14
 93
        0
 40
0.045
309
GRIDFORMAT_END
309
TABLEFORMAT_END
  1
CELLSTYLE_BEGIN
 90
        3
 91
        2
300
_DATA
309
CELLSTYLE_END
  0
ENDSEC
  0
EOF
